<svg width="430" height="932" viewBox="0 0 430 932" fill="none" xmlns="http://www.w3.org/2000/svg">
<line x1="408.629" y1="79.482" x2="72.9995" y2="79.482" stroke="black" stroke-width="0.592985"/>
<path d="M286.017 70V63.1417H289.271C290.419 63.1417 291.228 63.8505 291.228 64.8488C291.228 65.5676 290.868 66.0168 290.25 66.3662C291.048 66.7555 291.507 67.3745 291.507 68.1332C291.507 69.2313 290.629 70 289.401 70H286.017ZM287.025 65.9968H289.022C289.71 65.9968 290.2 65.5875 290.2 65.0185C290.2 64.4495 289.71 64.0302 289.022 64.0302H287.025V65.9968ZM287.025 69.1115H289.171C289.94 69.1115 290.479 68.6423 290.479 67.9834C290.479 67.3246 289.94 66.8554 289.171 66.8554H287.025V69.1115ZM301.096 65.3779C301.096 66.4361 300.377 67.2447 299.339 67.5142L301.086 70H299.928L298.251 67.6141H296.673V70H295.665V63.1417H298.55C299.998 63.1417 301.096 64.0701 301.096 65.3779ZM296.673 64.0801V66.6757H298.41C299.399 66.6757 300.068 66.1865 300.068 65.3779C300.068 64.5693 299.399 64.0801 298.41 64.0801H296.673ZM310.541 70L309.943 68.6024H306.369L305.77 70H304.652L307.597 63.1417H308.715L311.66 70H310.541ZM306.758 67.6939H309.553L308.156 64.4395L306.758 67.6939ZM315.682 70V63.1417H316.69L320.633 68.3428V63.1417H321.642V70H320.633L316.69 64.7989V70H315.682ZM326.279 70V63.1417H328.645C330.861 63.1417 332.438 64.5593 332.438 66.5659C332.438 68.5724 330.861 70 328.645 70H326.279ZM327.287 69.0816H328.704C330.292 69.0816 331.4 68.0433 331.4 66.5659C331.4 65.0984 330.292 64.0601 328.704 64.0601H327.287V69.0816ZM342.42 70V63.1417H343.428V70H342.42ZM347.949 70V63.1417H350.315C352.532 63.1417 354.109 64.5593 354.109 66.5659C354.109 68.5724 352.532 70 350.315 70H347.949ZM348.958 69.0816H350.375C351.963 69.0816 353.071 68.0433 353.071 66.5659C353.071 65.0984 351.963 64.0601 350.375 64.0601H348.958V69.0816ZM363.37 64.0801H359.347V66.0368H362.981V66.9752H359.347V69.0616H363.37V70H358.329V63.1417H363.37V64.0801ZM367.651 70V63.1417H368.66L372.603 68.3428V63.1417H373.611V70H372.603L368.66 64.7989V70H367.651ZM380.035 70V64.0801H377.789V63.1417H383.299V64.0801H381.043V70H380.035ZM387.351 70V63.1417H388.359V70H387.351ZM394.668 70V64.0801H392.421V63.1417H397.932V64.0801L395.676 64.0801V70H394.668ZM404.1 70V67.3146L401.354 63.1417H402.572L404.619 66.3562L406.695 63.1417H407.863L405.138 67.3146V70H404.1Z" fill="black"/>
</svg>
