<svg width="1519" height="742" viewBox="0 0 1519 742" fill="none" xmlns="http://www.w3.org/2000/svg">
<g clip-path="url(#clip0_2011_2)">
<line x1="1344.72" y1="108.583" x2="1553.24" y2="-29.8468" stroke="#8C8C8C"/>
<line x1="219.458" y1="851.946" x2="1213.72" y2="194.583" stroke="#8C8C8C"/>
<line x1="554.648" y1="-20.377" x2="1381.61" y2="699.987" stroke="#8C8C8C"/>
<path d="M1220.86 183.063C1219.95 183.672 1219.82 184.489 1220.49 185.489L1220.92 186.132L1223.24 184.586L1223.75 185.363L1221.44 186.908L1226.11 193.899L1225.19 194.507L1220.53 187.517L1219.74 188.045L1219.22 187.268L1220.01 186.74L1219.57 186.083C1218.26 184.126 1219.25 182.95 1220.18 182.332C1220.76 181.943 1221.38 181.743 1222.06 181.723L1222.16 182.585C1221.73 182.615 1221.29 182.774 1220.86 183.063ZM1228.42 180.911C1229.33 180.302 1230.54 180.013 1231.79 180.196C1233.03 180.34 1234.34 181.236 1235.18 182.765L1228.36 187.321C1229.06 188.173 1229.87 188.645 1230.81 188.73C1231.75 188.814 1232.62 188.599 1233.43 188.061C1234.5 187.343 1235.12 186.456 1235.28 185.425L1236.16 185.549C1236.04 186.859 1235.31 187.97 1233.97 188.867C1232.88 189.595 1231.7 189.865 1230.41 189.711C1229.12 189.532 1228.06 188.816 1227.21 187.546C1225.44 184.887 1226.66 182.087 1228.42 180.911ZM1228.96 181.717C1227.64 182.53 1226.8 184.603 1227.86 186.574L1233.86 182.566C1233.23 181.715 1232.42 181.242 1231.47 181.143C1230.52 181.044 1229.67 181.239 1228.96 181.717ZM1242.56 183.135C1241.93 183.553 1241.23 183.803 1240.46 183.908C1238.92 184.093 1237.09 183.392 1235.96 181.704C1235.4 180.852 1235.12 179.981 1235.1 179.084C1235.08 177.266 1235.92 175.906 1237.17 175.068C1238.53 174.161 1240.23 174.15 1241.39 174.862L1241.47 174.812L1240.36 173.154L1241.27 172.546L1246.46 180.313L1245.55 180.921L1244.44 179.263L1244.37 179.313C1244.58 180.663 1243.91 182.227 1242.56 183.135ZM1242.08 182.263C1242.87 181.735 1243.39 180.982 1243.62 180.006C1243.87 179.02 1243.65 178.018 1242.98 177.018C1242.32 176.017 1241.47 175.435 1240.47 175.286C1239.48 175.127 1238.59 175.312 1237.79 175.84C1237 176.369 1236.47 177.131 1236.23 178.117C1235.98 179.104 1236.19 180.105 1236.86 181.106C1237.53 182.106 1238.37 182.689 1239.38 182.838C1240.38 182.986 1241.29 182.792 1242.08 182.263ZM1246.81 168.677C1246.96 168.577 1247.07 168.507 1247.15 168.472L1247.73 169.338C1247.64 169.373 1247.53 169.428 1247.39 169.518C1245.86 170.545 1245.42 172.453 1246.38 174.405L1249.13 178.528L1248.22 179.136L1243.04 171.368L1243.95 170.76L1245.33 172.837C1245.07 172.149 1245.07 171.412 1245.31 170.63C1245.56 169.838 1246.05 169.185 1246.81 168.677ZM1246.69 164.895L1247.6 164.286L1254.65 174.847L1253.74 175.455L1246.69 164.895ZM1254.65 163.404C1255.56 162.795 1256.77 162.506 1258.01 162.689C1259.25 162.833 1260.56 163.729 1261.41 165.258L1254.59 169.814C1255.28 170.665 1256.1 171.138 1257.04 171.222C1257.98 171.306 1258.85 171.092 1259.66 170.553C1260.73 169.835 1261.35 168.949 1261.5 167.917L1262.38 168.041C1262.27 169.351 1261.54 170.463 1260.19 171.36C1259.1 172.088 1257.92 172.358 1256.63 172.204C1255.35 172.025 1254.29 171.309 1253.44 170.039C1251.67 167.38 1252.88 164.58 1254.65 163.404ZM1255.18 164.21C1253.87 165.023 1253.03 167.095 1254.09 169.067L1260.09 165.059C1259.46 164.208 1258.65 163.735 1257.69 163.636C1256.74 163.537 1255.9 163.732 1255.18 164.21ZM1265.5 158.511L1264.91 159.249C1264.08 158.746 1263.26 158.752 1262.5 159.26C1261.65 159.829 1261.39 160.735 1261.88 161.467C1262.29 162.08 1263.01 162.249 1264.02 161.984L1264.91 161.759C1266.77 161.29 1267.88 161.369 1268.65 162.519C1269.12 163.221 1269.22 163.954 1268.96 164.691C1268.68 165.413 1268.19 166.026 1267.47 166.505C1266.08 167.432 1264.5 167.388 1263.39 166.288L1264 165.58C1264.86 166.322 1266.02 166.371 1266.97 165.733C1267.93 165.095 1268.41 164.039 1267.81 163.128C1267.36 162.455 1266.53 162.291 1265.3 162.616L1264.24 162.895C1262.72 163.28 1261.65 163.002 1261.02 162.046C1260.63 161.463 1260.53 160.835 1260.72 160.173C1260.9 159.51 1261.32 158.947 1261.98 158.509C1263.16 157.721 1264.42 157.765 1265.5 158.511ZM1271.7 154.373L1271.11 155.111C1270.28 154.608 1269.46 154.614 1268.7 155.122C1267.85 155.69 1267.59 156.597 1268.08 157.329C1268.49 157.942 1269.21 158.11 1270.22 157.846L1271.11 157.621C1272.97 157.152 1274.08 157.231 1274.85 158.381C1275.32 159.083 1275.42 159.815 1275.16 160.553C1274.88 161.275 1274.39 161.888 1273.67 162.367C1272.28 163.294 1270.69 163.25 1269.59 162.15L1270.2 161.442C1271.06 162.184 1272.22 162.233 1273.17 161.595C1274.13 160.957 1274.61 159.9 1274 158.989C1273.56 158.317 1272.73 158.153 1271.5 158.478L1270.44 158.757C1268.92 159.142 1267.85 158.863 1267.22 157.907C1266.83 157.325 1266.73 156.697 1266.92 156.035C1267.1 155.372 1267.52 154.809 1268.18 154.37C1269.36 153.583 1270.62 153.627 1271.7 154.373ZM1279.58 146.762C1281.01 145.805 1282.66 145.654 1284.16 146.446L1283.45 147.522C1282.38 147.049 1281.35 147.154 1280.32 147.842C1279.6 148.321 1279.14 149.019 1278.91 149.93C1278.67 150.842 1278.87 151.748 1279.49 152.675C1280.09 153.586 1280.86 154.113 1281.79 154.247C1282.72 154.381 1283.53 154.206 1284.25 153.728C1285.28 153.04 1285.79 152.118 1285.76 150.972L1287.02 150.733C1287.17 152.446 1286.49 153.811 1284.96 154.828C1284.35 155.237 1283.65 155.511 1282.86 155.626C1282.09 155.731 1281.27 155.607 1280.42 155.269C1279.56 154.916 1278.86 154.324 1278.29 153.472C1276.49 150.769 1277.81 147.939 1279.58 146.762ZM1288.32 140.971C1288.48 140.861 1288.63 140.787 1288.71 140.752L1289.48 141.902C1289.39 141.937 1289.26 142.002 1289.1 142.111C1288.34 142.62 1287.87 143.303 1287.67 144.169C1287.47 145.036 1287.61 145.933 1288.08 146.854L1290.7 150.782L1289.47 151.6L1284.29 143.833L1285.51 143.015L1286.88 145.061C1286.62 144.349 1286.61 143.622 1286.85 142.855C1287.1 142.088 1287.59 141.46 1288.32 140.971ZM1293.51 137.464C1294.45 136.836 1295.63 136.566 1296.89 136.74C1298.13 136.884 1299.45 137.834 1300.32 139.418L1293.8 143.765C1295.06 145.259 1296.89 145.352 1298.39 144.355C1299.34 143.717 1299.93 142.915 1300.14 141.933L1301.29 142.112C1301.15 143.417 1300.41 144.513 1299.05 145.421C1298.37 145.879 1297.64 146.174 1296.83 146.299C1295.25 146.514 1293.44 145.842 1292.29 144.125C1290.49 141.421 1291.76 138.631 1293.51 137.464ZM1294.21 138.525C1293.59 138.944 1293.15 139.557 1292.92 140.364C1292.68 141.146 1292.76 141.978 1293.19 142.839L1298.61 139.22C1298.03 138.483 1297.31 138.08 1296.46 138.001C1295.6 137.921 1294.86 138.096 1294.21 138.525ZM1307.58 139.728C1306.6 140.386 1305.46 140.625 1304.18 140.447C1302.91 140.258 1301.85 139.542 1301.01 138.287C1300.17 137.032 1299.92 135.777 1300.23 134.532C1300.56 133.276 1301.21 132.32 1302.2 131.662C1303.5 130.794 1305.09 130.788 1306.11 131.405L1306.2 131.345L1305.21 129.867L1306.42 129.059L1311.61 136.826L1310.4 137.634L1309.41 136.155L1309.32 136.215C1309.5 137.39 1308.88 138.86 1307.58 139.728ZM1304.5 139.087C1305.43 139.221 1306.26 139.036 1306.99 138.548C1307.72 138.059 1308.21 137.366 1308.43 136.465C1308.65 135.563 1308.45 134.656 1307.83 133.73C1307.22 132.804 1306.45 132.277 1305.54 132.133C1304.62 131.989 1303.79 132.174 1303.06 132.662C1302.33 133.151 1301.84 133.843 1301.61 134.755C1301.39 135.657 1301.58 136.563 1302.2 137.489C1302.82 138.415 1303.58 138.943 1304.5 139.087ZM1311.62 125.589L1312.31 126.62L1310.66 127.717L1314.01 132.721C1314.33 133.214 1314.73 133.293 1315.23 132.964C1315.51 132.775 1315.77 132.516 1315.99 132.172L1316.67 133.188C1316.43 133.606 1316.09 133.965 1315.64 134.264C1314.55 134.992 1313.67 134.843 1312.98 133.812L1309.45 128.524L1308.38 129.242L1307.69 128.212L1308.77 127.494L1307.44 125.507L1308.65 124.7L1309.98 126.686L1311.62 125.589ZM1311.16 121.857L1312.39 121.04L1313.18 122.235L1311.96 123.052L1311.16 121.857ZM1313.03 124.651L1314.25 123.833L1319.44 131.6L1318.21 132.418L1313.03 124.651ZM1322.05 118.625L1323.32 117.778L1325.1 127.819L1324.07 128.507L1315.48 123.013L1316.74 122.175L1323.53 126.599L1322.05 118.625ZM1322.69 114.165L1323.91 113.348L1324.71 114.543L1323.48 115.36L1322.69 114.165ZM1324.55 116.958L1325.78 116.141L1330.96 123.908L1329.74 124.726L1324.55 116.958ZM1330.96 112.678L1331.65 113.709L1330.01 114.806L1333.35 119.81C1333.68 120.302 1334.08 120.382 1334.57 120.053C1334.85 119.863 1335.11 119.604 1335.33 119.26L1336.01 120.276C1335.77 120.695 1335.43 121.054 1334.98 121.353C1333.89 122.081 1333.02 121.932 1332.33 120.901L1328.8 115.613L1327.72 116.331L1327.03 115.3L1328.11 114.583L1326.78 112.596L1327.99 111.788L1329.32 113.775L1330.96 112.678ZM1339.94 115.645L1338.46 107.671L1339.73 106.824L1341.51 116.865L1342.12 120.56L1340.9 121.378L1340.23 117.398L1331.89 112.058L1333.15 111.221L1339.94 115.645Z" fill="black"/>
</g>
<defs>
<clipPath id="clip0_2011_2">
<rect width="1519" height="742" fill="white"/>
</clipPath>
</defs>
</svg>
