<svg width="1519" height="742" viewBox="0 0 1519 742" fill="none" xmlns="http://www.w3.org/2000/svg">
<line x1="1458.82" y1="514.857" x2="1458.82" y2="50.9999" stroke="black"/>
<path d="M1474 135.918L1485.57 132.113L1485.57 133.999L1476.74 136.844L1485.57 139.739L1485.57 141.625L1476.74 144.521L1485.57 147.366L1485.57 149.251L1474 145.446L1474 143.746L1483.21 140.699L1474 137.618L1474 135.918ZM1483.98 164.421L1483.98 157.636L1480.68 157.636L1480.68 163.764L1479.1 163.764L1479.1 157.636L1475.58 157.636L1475.58 164.421L1474 164.421L1474 155.919L1485.57 155.919L1485.57 164.421L1483.98 164.421ZM1474 171.64L1485.57 171.64L1485.57 177.129C1485.57 179.065 1484.37 180.428 1482.69 180.428C1481.47 180.428 1480.72 179.822 1480.13 178.779C1479.47 180.125 1478.43 180.9 1477.15 180.9C1475.3 180.9 1474 179.418 1474 177.348L1474 171.64ZM1480.75 173.341L1480.75 176.708C1480.75 177.869 1481.44 178.694 1482.4 178.694C1483.36 178.694 1484.07 177.869 1484.07 176.708L1484.07 173.341L1480.75 173.341ZM1475.5 173.341L1475.5 176.96C1475.5 178.257 1476.29 179.166 1477.4 179.166C1478.51 179.166 1479.3 178.257 1479.3 176.96L1479.3 173.341L1475.5 173.341ZM1473.81 192.053C1473.81 190.117 1474.49 188.517 1475.67 187.288L1476.93 188.315C1475.95 189.342 1475.31 190.554 1475.31 192.12C1475.31 193.719 1476.15 194.544 1477.08 194.544C1478.18 194.544 1478.6 193.585 1479.03 191.649C1479.59 189.292 1480.3 187.726 1482.38 187.726C1484.32 187.726 1485.78 189.41 1485.78 191.733C1485.78 193.517 1485.13 194.847 1484.15 195.958L1482.87 194.982C1483.76 194.006 1484.29 192.844 1484.29 191.665C1484.29 190.369 1483.46 189.46 1482.54 189.46C1481.46 189.46 1481.09 190.453 1480.63 192.356C1480.09 194.662 1479.32 196.261 1477.25 196.261C1475.3 196.261 1473.81 194.78 1473.81 192.053ZM1474 203.25L1485.57 203.25L1485.57 204.95L1474 204.95L1474 203.25ZM1474 215.589L1483.98 215.589L1483.98 211.801L1485.57 211.801L1485.57 221.094L1483.98 221.094L1483.98 217.289L1474 217.289L1474 215.589ZM1483.98 236.411L1483.98 229.626L1480.68 229.626L1480.68 235.754L1479.1 235.754L1479.1 229.626L1475.58 229.626L1475.58 236.411L1474 236.411L1474 227.909L1485.57 227.909L1485.57 236.411L1483.98 236.411ZM1473.81 247.57C1473.81 245.634 1474.49 244.034 1475.67 242.805L1476.93 243.832C1475.95 244.859 1475.31 246.071 1475.31 247.637C1475.31 249.236 1476.15 250.061 1477.08 250.061C1478.18 250.061 1478.6 249.102 1479.03 247.166C1479.59 244.809 1480.3 243.243 1482.38 243.243C1484.32 243.243 1485.78 244.927 1485.78 247.25C1485.78 249.034 1485.13 250.364 1484.15 251.475L1482.87 250.499C1483.76 249.523 1484.29 248.361 1484.29 247.183C1484.29 245.886 1483.46 244.977 1482.54 244.977C1481.46 244.977 1481.09 245.97 1480.63 247.873C1480.09 250.179 1479.32 251.779 1477.25 251.779C1475.3 251.779 1473.81 250.297 1473.81 247.57Z" fill="black"/>
</svg>
