<svg width="1519" height="742" viewBox="0 0 1519 742" fill="none" xmlns="http://www.w3.org/2000/svg">
<path d="M1486 135.312L1497.57 131.508L1497.57 133.393L1488.74 136.238L1497.57 139.134L1497.57 141.019L1488.74 143.915L1497.57 146.76L1497.57 148.646L1486 144.841L1486 143.141L1495.21 140.094L1486 137.013L1486 135.312ZM1495.98 163.816L1495.98 157.031L1492.68 157.031L1492.68 163.159L1491.1 163.159L1491.1 157.031L1487.58 157.031L1487.58 163.816L1486 163.816L1486 155.314L1497.57 155.314L1497.57 163.816L1495.98 163.816ZM1486 171.035L1497.57 171.035L1497.57 176.523C1497.57 178.459 1496.37 179.823 1494.69 179.823C1493.47 179.823 1492.72 179.217 1492.13 178.173C1491.47 179.52 1490.43 180.294 1489.15 180.294C1487.3 180.294 1486 178.813 1486 176.742L1486 171.035ZM1492.75 172.735L1492.75 176.102C1492.75 177.264 1493.44 178.089 1494.4 178.089C1495.36 178.089 1496.07 177.264 1496.07 176.102L1496.07 172.735L1492.75 172.735ZM1487.5 172.735L1487.5 176.355C1487.5 177.651 1488.29 178.56 1489.4 178.56C1490.51 178.56 1491.3 177.651 1491.3 176.355L1491.3 172.735L1487.5 172.735ZM1485.81 191.447C1485.81 189.511 1486.49 187.912 1487.67 186.683L1488.93 187.71C1487.95 188.737 1487.31 189.949 1487.31 191.515C1487.31 193.114 1488.15 193.939 1489.08 193.939C1490.18 193.939 1490.6 192.979 1491.03 191.043C1491.59 188.686 1492.3 187.121 1494.38 187.121C1496.32 187.121 1497.78 188.804 1497.78 191.127C1497.78 192.912 1497.13 194.242 1496.15 195.353L1494.87 194.377C1495.76 193.4 1496.29 192.238 1496.29 191.06C1496.29 189.764 1495.46 188.855 1494.54 188.855C1493.46 188.855 1493.09 189.848 1492.63 191.75C1492.09 194.057 1491.32 195.656 1489.25 195.656C1487.3 195.656 1485.81 194.175 1485.81 191.447ZM1486 202.645L1497.57 202.645L1497.57 204.345L1486 204.345L1486 202.645ZM1486 214.984L1495.98 214.984L1495.98 211.196L1497.57 211.196L1497.57 220.489L1495.98 220.489L1495.98 216.684L1486 216.684L1486 214.984ZM1495.98 235.805L1495.98 229.021L1492.68 229.021L1492.68 235.149L1491.1 235.149L1491.1 229.021L1487.58 229.021L1487.58 235.805L1486 235.805L1486 227.304L1497.57 227.304L1497.57 235.805L1495.98 235.805ZM1485.81 246.964C1485.81 245.028 1486.49 243.429 1487.67 242.2L1488.93 243.227C1487.95 244.254 1487.31 245.466 1487.31 247.032C1487.31 248.631 1488.15 249.456 1489.08 249.456C1490.18 249.456 1490.6 248.496 1491.03 246.56C1491.59 244.203 1492.3 242.638 1494.38 242.638C1496.32 242.638 1497.78 244.321 1497.78 246.644C1497.78 248.429 1497.13 249.759 1496.15 250.87L1494.87 249.894C1495.76 248.917 1496.29 247.756 1496.29 246.577C1496.29 245.281 1495.46 244.372 1494.54 244.372C1493.46 244.372 1493.09 245.365 1492.63 247.267C1492.09 249.574 1491.32 251.173 1489.25 251.173C1487.3 251.173 1485.81 249.692 1485.81 246.964Z" fill="black"/>
<line x1="1472.5" y1="513" x2="1472.5" y2="56" stroke="black"/>
</svg>
