<svg width="1519" height="742" viewBox="0 0 1519 742" fill="none" xmlns="http://www.w3.org/2000/svg">
<path d="M36.4546 97.319C31.3243 97.319 26.9649 92.9862 26.9649 87.8559C26.9649 82.7256 31.3243 78.4193 36.4546 78.4193C39.0596 78.4193 41.452 79.5092 43.1798 81.2902L41.2925 83.0977C40.0697 81.7686 38.3419 80.8914 36.4546 80.8914C32.8129 80.8914 29.7294 84.0813 29.7294 87.8559C29.7294 91.6571 32.8129 94.8469 36.4546 94.8469C38.3419 94.8469 40.0697 93.9697 41.2925 92.6406L43.1798 94.4481C41.452 96.2025 39.0596 97.319 36.4546 97.319ZM66.2414 78.7383H68.9261V97H66.2414V88.9457H56.2732V97H53.5884V78.7383H56.2732V86.447H66.2414V78.7383ZM94.9912 97L93.3963 93.2786H83.88L82.2851 97H79.308L87.1496 78.7383H90.1268L97.9684 97H94.9912ZM84.9167 90.8596H92.3596L88.6382 82.194L84.9167 90.8596ZM122.82 84.6926C122.82 87.5103 120.906 89.6634 118.141 90.3811L122.793 97H119.71L115.244 90.647H111.044V97H108.359V78.7383H116.041C119.896 78.7383 122.82 81.2104 122.82 84.6926ZM111.044 81.237V88.1483H115.669C118.301 88.1483 120.082 86.8458 120.082 84.6926C120.082 82.5395 118.301 81.237 115.669 81.237H111.044ZM147.971 97L146.376 93.2786H136.86L135.265 97H132.288L140.129 78.7383H143.107L150.948 97H147.971ZM137.896 90.8596H145.339L141.618 82.194L137.896 90.8596ZM170.111 97.319C164.981 97.319 160.621 92.9862 160.621 87.8559C160.621 82.7256 164.981 78.4193 170.111 78.4193C172.716 78.4193 175.108 79.5092 176.836 81.2902L174.949 83.0977C173.726 81.7686 171.998 80.8914 170.111 80.8914C166.469 80.8914 163.386 84.0813 163.386 87.8559C163.386 91.6571 166.469 94.8469 170.111 94.8469C171.998 94.8469 173.726 93.9697 174.949 92.6406L176.836 94.4481C175.108 96.2025 172.716 97.319 170.111 97.319ZM192.322 97V81.237H186.341V78.7383H201.014V81.237H195.007V97H192.322ZM225.199 81.237H214.486V86.447H224.162V88.9457H214.486V94.5013H225.199V97H211.775V78.7383H225.199V81.237ZM250.739 84.6926C250.739 87.5103 248.826 89.6634 246.061 90.3811L250.713 97H247.629L243.164 90.647H238.964V97H236.279V78.7383H243.961C247.815 78.7383 250.739 81.2104 250.739 84.6926ZM238.964 81.237V88.1483H243.589C246.221 88.1483 248.002 86.8458 248.002 84.6926C248.002 82.5395 246.221 81.237 243.589 81.237H238.964ZM268.049 97.2924C264.992 97.2924 262.467 96.2291 260.526 94.3684L262.148 92.3748C263.769 93.9165 265.683 94.9266 268.155 94.9266C270.681 94.9266 271.983 93.5975 271.983 92.1355C271.983 90.4077 270.468 89.7432 267.411 89.052C263.69 88.1749 261.217 87.0584 261.217 83.7623C261.217 80.7054 263.876 78.3928 267.544 78.3928C270.362 78.3928 272.462 79.4294 274.216 80.9712L272.674 82.9914C271.132 81.5826 269.298 80.7585 267.438 80.7585C265.391 80.7585 263.955 82.061 263.955 83.523C263.955 85.2243 265.524 85.8091 268.527 86.5268C272.169 87.3774 274.694 88.6002 274.694 91.8697C274.694 94.9532 272.355 97.2924 268.049 97.2924Z" fill="black"/>
</svg>
