<?xml version="1.0" encoding="UTF-8"?><svg id="a" xmlns="http://www.w3.org/2000/svg" viewBox="0 0 866 866"><defs><style>.c{fill:#997f7e;}.d{fill:#f4d3a8;}</style></defs><g id="b"><g><circle class="d" cx="433" cy="433" r="138"/><g><path class="c" d="M437.83,319.01c0,.05-.03,.07-.08,.07l-4.83-.28c-.05,0-.07-.03-.07-.08v-.23c.02-.05,.06-.07,.14-.07,.86,.01,1.47-.41,1.83-1.28l4.5-10.93s.01-.03,.01-.05l-.09-.32s.02-.05,.04-.04l1.89,.11s.03,.01,.05,.02c.02,0,.04,.03,.05,.06l3.35,11.44c.08,.18,.14,.33,.19,.48,.05,.14,.1,.27,.16,.39,.14,.27,.37,.48,.71,.64,.28,.16,.54,.25,.78,.26,.05,0,.07,.03,.07,.09v.22c-.01,.05-.04,.07-.09,.07l-5.78-.33s-.07-.03-.07-.08v-.23c.02-.05,.13-.08,.37-.07,.23,0,.43,0,.58,0,.88-.04,1.33-.31,1.36-.81,0-.04,0-.08-.01-.13l-1.19-4.11s-.02-.04-.03-.09c-.06-.22-.19-.33-.38-.34l-3.35-.19c-.19-.01-.34,.08-.46,.29-.02,.04-.03,.07-.03,.07l-1.66,4.06v.08c-.01,.16,.06,.32,.22,.46,.37,.32,.88,.5,1.52,.53h.25s.07,.04,.07,.09v.23Zm3.18-6.7c.11,0,.17-.04,.18-.13,0-.05,0-.11-.03-.17l-1.18-3.95c-.05-.17-.1-.26-.13-.26-.03,0-.09,.08-.17,.26l-1.55,3.79c-.03,.06-.05,.13-.05,.2,0,.07,.04,.11,.14,.12l2.79,.16Z"/><path class="c" d="M460.26,322.09s-.07-.05-.05-.09l.07-.22s.06-.06,.15-.03c.28,.09,.61,.15,.97,.2,1.16,.15,1.83-.06,2-.63l2.92-9.54c.18-.79-.05-1.32-.67-1.58-.19-.08-.4-.16-.63-.23l-.52-.16s-.07-.05-.05-.09l.07-.23s.05-.06,.09-.05l.4,.11,1.56,.47,3.25,.89c3.45,1.06,4.86,2.6,4.24,4.64-.26,.86-.93,1.44-2,1.74-.17,.05-.31,.08-.42,.09-.11,.01-.18,.02-.19,.02,.66,.69,1.13,1.38,1.42,2.08,.29,.69,.31,1.43,.07,2.2-.5,1.65-1.63,2.55-3.39,2.72-.91,.09-1.83,0-2.77-.29l-6.53-2Zm6.74-5.66c-.08-.02-.13,0-.15,.06l-1.52,4.96c-.13,.43-.04,.83,.29,1.22,.32,.38,.71,.64,1.18,.79,.89,.27,1.75,.19,2.57-.26,.82-.44,1.38-1.13,1.66-2.06,.29-.93,.18-1.8-.31-2.59-.49-.8-1.25-1.35-2.29-1.67l-1.44-.44Zm.09-.77c-.04,.11,.02,.19,.16,.24l2.23,.68c.58,.18,1.13,.11,1.66-.2,.53-.31,.87-.73,1.03-1.26,.29-.95,.23-1.72-.17-2.3-.41-.59-1.06-1.02-1.95-1.29-.28-.06-.47-.11-.57-.15-.11-.03-.21-.07-.33-.11-.11-.04-.23-.07-.35-.08-.12-.02-.21,0-.27,.05-.06,.05-.11,.14-.16,.28l-1.27,4.14Z"/><path class="c" d="M496.4,337.66c-.05,.03-.12,0-.22-.09-.09-.09-.21-.17-.35-.26-.14-.08-.36-.18-.65-.27s-.75-.25-1.37-.46c-.62-.21-1.16-.45-1.62-.72-1.03-.62-1.88-1.46-2.55-2.52s-1.03-2.21-1.08-3.45c-.04-1.24,.29-2.44,.99-3.62s1.63-2.06,2.78-2.67c1.68-.89,3.5-1.03,5.45-.43,.62,.19,1.2,.45,1.74,.77,.74,.44,1.54,1.1,2.41,1.96,.26,.26,.48,.5,.64,.71s.27,.33,.32,.36l.28,.08,.25,.15c.06,.04,.07,.1,.01,.2l-1.52,2.52c-.03,.05-.1,.05-.2,0-.1-.06-.15-.1-.15-.14,0-.03,0-.07,0-.12s0-.09,.01-.14,0-.1,0-.14c0-.04,0-.08,0-.09,.17-2.11-.57-3.67-2.22-4.66-1.49-.89-2.93-1.12-4.34-.68-1.41,.44-2.58,1.44-3.52,3-.94,1.56-1.28,3.18-1.03,4.85,.25,1.67,1.17,2.99,2.75,3.94,.86,.52,1.81,.74,2.83,.65s1.96-.38,2.81-.88c.03-.03,.07-.02,.13,0l.11,.06c.05,.03,.06,.08,.02,.15s-.09,.12-.16,.16l-2.6,1.79Z"/><path class="c" d="M518.6,338.49s.07-.04,.11,0l.15,.15,2.18,2.12c.27,.25,.55,.53,.85,.84l.83,.84c.77,.78,1.32,1.4,1.65,1.85,.33,.45,.64,.91,.93,1.36,.29,.46,.51,1.04,.66,1.74s.17,1.41,.08,2.11c-.19,1.5-.78,2.73-1.76,3.69-.98,.96-2.11,1.57-3.4,1.82-1.85,.37-3.64,.03-5.36-1.03-.54-.34-1.05-.74-1.51-1.21l-4.83-4.92s-.04-.07,0-.11l.19-.19s.07-.04,.11,0l.15,.15c.8,.82,1.47,.97,1.99,.46l7.4-7.27c.25-.25,.35-.53,.29-.85s-.21-.6-.45-.84l-.42-.43s-.04-.07,0-.11l.19-.19Zm2.66,3.11c-.11-.11-.23-.11-.35,.01l-8.25,8.11c-.33,.33-.2,.81,.4,1.45,.18,.19,.36,.38,.56,.59,1.41,1.44,2.92,2.17,4.53,2.2,1.61,.03,3.09-.61,4.43-1.93,1.34-1.31,2.06-2.77,2.16-4.35,.1-1.59-.46-3-1.67-4.24l-1.8-1.84Z"/><path class="c" d="M528.18,369.81l.23-.14s.08-.02,.1,.03l.11,.18c.15,.22,.3,.45,.44,.68,.14,.24,.3,.44,.47,.6,.39,.37,.85,.4,1.37,.09l8.58-5.09c.54-.32,.69-.84,.46-1.56-.07-.2-.14-.4-.23-.6l-.1-.17s-.02-.08,.03-.1l.2-.12s.08-.02,.1,.03l4.59,7.74c.06,.1,.08,.18,.07,.24,0,.06-.07,.14-.18,.22l-2.27,1.55c-.05,.03-.11,0-.15-.07s-.06-.16-.03-.22c.04-.06,.21-.22,.52-.48,.31-.25,.54-.52,.69-.79,.15-.27,.15-.59,0-.97l-2.01-3.39c-.04-.07-.1-.08-.17-.04l-4.21,2.5c-.05,.03-.07,.08-.03,.13l1.67,2.82c.43,.73,1.07,.84,1.92,.34,.04-.03,.08-.02,.1,.03l.12,.2s.02,.08-.03,.1l-3.48,2.07s-.08,.02-.1-.03l-.12-.2s-.02-.08,.03-.1c.8-.48,1.13-.98,.98-1.52-.04-.15-.11-.3-.2-.44l-1.66-2.79c-.03-.05-.08-.07-.13-.03l-3.96,2.35c-.41,.24-.53,.57-.36,.97,.05,.12,.11,.24,.18,.36l1.61,2.71c.33,.56,.83,.85,1.51,.86,.48,.01,.97-.09,1.45-.31,.16-.07,.29-.04,.37,.11,.04,.07,.02,.12-.05,.16l-2.89,1.35c-.1,.01-.16,0-.18-.05l-5.38-9.07s-.02-.08,.03-.1Z"/><path class="c" d="M549.59,398.05c.26,.8,.78,1.08,1.57,.83,.05-.02,.08,0,.1,.05l.07,.22s0,.08-.05,.1l-3.35,1.08s-.08,0-.09-.05l-.07-.22s0-.08,.05-.1c.55-.18,.88-.46,.99-.84,.06-.21,.04-.46-.06-.78l-1.15-3.55c-.05-.14-.15-.19-.31-.14l-4.63,1.49c-.41,.13-.63,.47-.67,1.03s-.04,.89,0,1.02c.04,.13,.04,.2,0,.22l-.22,.07s-.08,0-.09-.05l-1.59-4.92s0-.08,.05-.1l.22-.07s.09,.03,.12,.13c.03,.1,.13,.25,.3,.43,.17,.19,.37,.33,.61,.43s.5,.11,.77,.03l9.72-3.14c.39-.13,.6-.42,.64-.89,.02-.27,0-.53-.08-.76v-.04s-.01-.08,.04-.1l.22-.07s.08,0,.09,.05l2.74,8.49c.01,.08,.01,.14,0,.18,0,.04-.06,.08-.14,.1l-2.18,.7c-.07,.02-.12,.03-.14,.01-.03-.02-.05-.05-.06-.1l-.04-.11s.15-.11,.45-.28,.51-.36,.64-.56c.18-.33,.24-.66,.17-.98-.03-.13-.07-.29-.13-.47l-1.1-3.41c-.04-.12-.12-.16-.24-.12l-4.17,1.35c-.14,.04-.18,.14-.14,.28l1.14,3.53Z"/><path class="c" d="M553.06,430.95c0,.07-.04,.11-.14,.11s-.17-.02-.21-.09c-.08-.16-.15-.33-.22-.51-.06-.18-.14-.34-.24-.48-.21-.33-.53-.48-.95-.45l-3.07,.23c-.14,.01-.35-.31-.63-.95-.28-.65-.49-1.17-.63-1.58-.62-1.91-.71-3.65-.24-5.22,.54-1.81,1.65-3.14,3.33-4,.84-.43,1.69-.68,2.55-.74,.86-.06,1.59-.03,2.18,.09,1.82,.38,3.28,1.36,4.37,2.94,.71,1.03,1.11,2.14,1.2,3.32,.09,1.19-.05,2.46-.43,3.83-.07,.25-.1,.39-.1,.43v.11l.13,.37,.02,.24c0,.07-.03,.11-.1,.11l-3.14,.24c-.12,0-.18-.06-.19-.19v-.04c0-.12,.15-.21,.46-.28,.06-.02,.11-.03,.14-.04,1.92-.78,2.81-2.18,2.65-4.2-.12-1.62-.83-2.87-2.13-3.74s-2.79-1.25-4.49-1.12c-1.69,.13-3.15,.73-4.38,1.8-1.23,1.07-1.77,2.45-1.65,4.15,.07,.87,.25,1.58,.57,2.13,.12,.21,.27,.37,.44,.48l2.58-.19c.58-.04,1-.24,1.25-.6,.25-.35,.34-.98,.27-1.87,0-.07,.05-.11,.17-.12s.18,.02,.18,.09l.43,5.75Z"/><path class="c" d="M545.8,459.54c-.84-.15-1.38,.35-1.63,1.5,0,.05-.04,.07-.09,.06l-.22-.04s-.07-.04-.06-.09l1.08-5.92s.04-.07,.09-.06l.22,.04s.05,.17-.01,.48c-.06,.31-.05,.68,.01,1.1,.09,.64,.37,1.01,.84,1.1l4.44,.81c.06,.01,.1,0,.13,0,.02-.02,.04-.05,.05-.12l1.34-7.33c.01-.06,0-.1,0-.13-.01-.02-.05-.04-.12-.05l-4.53-.83c-.75-.14-1.22,.34-1.42,1.44,0,.05-.04,.07-.09,.06l-.22-.04s-.07-.04-.06-.08l.94-5.14s.04-.07,.09-.06l.22,.04s.06,.08,.04,.2c-.19,1.04,.16,1.64,1.05,1.8l9.93,1.82c.73,.13,1.19-.23,1.39-1.08,.03-.13,.07-.19,.12-.18l.18,.03s.07,.04,.06,.08l-.85,4.67s-.04,.07-.09,.06l-.18-.03s-.04-.07-.02-.19c.16-.89-.19-1.41-1.07-1.57l-4.3-.79c-.06-.01-.1,0-.13,0-.02,.02-.04,.05-.05,.12l-1.34,7.33c-.01,.06,0,.1,0,.13,.02,.02,.05,.04,.12,.05l4.45,.81c.06,0,.11,0,.16,0,.05,0,.12,0,.22,0,.22,0,.43-.19,.64-.57,.21-.37,.37-.81,.5-1.3,0-.05,.04-.07,.09-.06l.18,.03s.07,.04,.06,.08l-.98,5.37s-.04,.07-.09,.06l-.18-.03s-.04-.07-.02-.19c.17-.92-.19-1.46-1.06-1.62l-9.82-1.8Z"/><path class="c" d="M549.13,481.53c.7,.3,1.21,.05,1.56-.75,.05-.13,.1-.18,.15-.16l.21,.09s.06,.05,.04,.1l-1.86,4.36s-.05,.06-.1,.04l-.21-.09s-.02-.16,.09-.41c.11-.26,.13-.53,.06-.81-.07-.28-.36-.53-.86-.75l-9.28-3.96c-.7-.3-1.22-.04-1.56,.76-.05,.12-.1,.17-.15,.15l-.21-.09s-.06-.05-.04-.1l1.86-4.36s.05-.06,.1-.04l.21,.09s.01,.16-.09,.41c-.11,.25-.13,.53-.06,.81,.07,.28,.36,.53,.86,.75l9.28,3.96Z"/><path class="c" d="M537.73,504.97s0-.15,.15-.37,.21-.48,.2-.79c-.01-.31-.24-.61-.69-.91l-9.77-6.45c-1.17-.77-2.04-1.83-2.61-3.17-.4-.92-.51-1.82-.34-2.7,.09-.45,.25-.86,.5-1.24,.25-.38,.58-.69,.98-.93,.41-.25,.71-.3,.92-.16,.21,.14,.33,.34,.36,.6,.03,.26-.02,.48-.13,.66-.12,.18-.23,.31-.35,.41s-.23,.16-.34,.21c-.11,.05-.22,.09-.33,.11s-.25,.06-.42,.12c-.17,.06-.32,.19-.46,.39-.27,.4-.3,.83-.1,1.26,.2,.44,.51,.83,.94,1.19,.43,.36,.99,.77,1.7,1.23l10.66,7.04c.53,.35,1.03,.26,1.5-.29,.15-.18,.3-.38,.45-.62,.03-.04,.06-.05,.1-.02l.19,.12s.05,.06,.02,.1l-2.83,4.29s-.06,.05-.1,.02l-.19-.13Z"/><path class="c" d="M513.59,513.75s-.04-.07,0-.11l3.98-3.89s.06-.03,.1,0l.13,.13s-.04,.15-.23,.34c-.19,.19-.35,.49-.5,.9s-.08,.75,.2,1.03l7.21,7.37c.5,.51,1.23,.35,2.18-.48,.04-.04,.07-.03,.11,0l.12,.13s.04,.07,0,.1l-3.98,3.89s-.07,.04-.11,0l-.13-.13s.05-.13,.24-.32c.19-.18,.34-.44,.46-.77,.16-.44,.08-.83-.24-1.15l-2.92-2.98c-.39-.4-.62-.56-.7-.48-.19,.19-.32,.55-.38,1.09-.06,.54-.07,1.05-.05,1.54,.03,.49,.1,1.02,.22,1.61,.12,.59,.2,.99,.23,1.21,.13,.81,.31,1.33,.55,1.58s.5,.3,.78,.18c.19-.08,.41-.24,.66-.49l.07-.07s.07-.04,.11,0l.13,.13s.03,.07,0,.11l-3.91,3.83s-.07,.03-.11,0l-.12-.13c-.05-.05-.05-.11,0-.16,.56-.58,.91-1.07,1.04-1.46,.14-.39,.21-.75,.21-1.06,0-.31-.05-.72-.18-1.23-.38-1.54-.57-2.89-.57-4.03,0-.49-.02-.76-.07-.83-.07-.02-.43-.02-1.08,0-1.64,.05-3.6-.13-5.88-.56-.86-.17-1.64-.03-2.34,.41-.47,.29-.76,.48-.86,.58s-.17,.13-.21,.09l-.11-.12s-.04-.07,0-.11l4.42-4.33s.07-.04,.11,0l.13,.13s-.02,.14-.16,.3c-.46,.54-.57,.94-.33,1.19,.28,.22,1.34,.4,3.19,.54,.33,.02,.69,.06,1.07,.11,1.51,.17,2.49,.04,2.93-.39l.13-.13s.04-.1-.03-.16l-3.1-3.16c-.62-.63-1.36-.52-2.22,.32-.04,.04-.07,.04-.11,0l-.11-.11Z"/><path class="c" d="M496.2,528.05s.08-.02,.1,.03l.12,.19s.02,.08-.03,.1l-.2,.12c-.46,.28-.81,.62-1.04,1.02-.09,.17-.13,.36-.12,.59,0,.23,.08,.44,.21,.66l5.15,8.58c.2,.33,.57,.46,1.11,.38,.38-.05,.74-.18,1.08-.38l.18-.11s.08-.02,.1,.03l.12,.19s.02,.08-.03,.1l-5.49,3.3s-.08,.02-.1-.03l-.12-.19s-.02-.08,.03-.1l.35-.21c.56-.33,1-.71,1.33-1.12,.1-.12,.14-.24,.11-.36-.02-.12-.11-.3-.26-.55l-5.4-9c-.07-.09-.17-.14-.3-.17-.14-.03-.26-.01-.37,.05l-3.21,1.92c-.48,.29-.78,.86-.91,1.7-.03,.23-.07,.52-.1,.88-.03,.36-.06,.57-.08,.63-.09,.23-.18,.28-.26,.15-.02-.03-.03-.07-.03-.11l-.21-3.14c0-.13,.02-.21,.08-.25l8.19-4.91Z"/><path class="c" d="M469.68,541.46s-.06,0-.08-.06l-.06-.22s0-.08,.03-.09l4.24-1.25s.08,0,.09,.05l.06,.22s0,.08-.05,.09c-.99,.29-1.4,.88-1.24,1.76,.05,.25,.15,.68,.29,1.26,.14,.59,.43,1.85,.86,3.8,.43,1.95,.82,3.51,1.17,4.69l.1,.34c.07,.24,.27,.4,.59,.49,.32,.08,.55,.1,.68,.07,.13-.04,.2-.03,.21,.02l.06,.22s0,.08-.05,.09l-2.62,.77c-.12,.02-.23-.02-.34-.12l-7.06-8.22s-.08-.06-.1-.09c-.03-.03-.08-.03-.15,0-.07,.02-.11,.09-.12,.21l-1.46,10.55c-.06,.28-.13,.43-.24,.46l-2.64,.78s-.08,0-.09-.05l-.06-.22s0-.08,.02-.09c.18-.05,.39-.18,.62-.38,.35-.3,.47-.63,.37-.99l-3.51-9.87c-.11-.31-.34-.52-.72-.62-.37-.1-.81-.08-1.32,.07-.05,.01-.08,0-.09-.05l-.06-.22s0-.08,.05-.09l5.15-1.52s.08,0,.09,.05l.06,.22s0,.08-.05,.09c-1.08,.32-1.55,.74-1.39,1.27l3.04,8.52c.02,.06,.05,.08,.08,.08s.04-.04,.04-.1l1.62-11.1s.08-.09,.19-.12c.12-.03,.19-.03,.22,.01l7.34,8.47c.06,.07,.11,.11,.14,.1s.03-.08,0-.21c-.08-.28-.4-1.61-.95-4-.55-2.39-.91-3.88-1.08-4.46l-.11-.37c-.17-.32-.58-.45-1.22-.37-.18,.02-.37,.06-.57,.12Z"/><path class="c" d="M442.39,546.86c.05,0,.08,.02,.08,.07v.23c0,.05-.03,.08-.09,.08h-.22c-.35,0-.58,.04-.71,.11-.46,.23-.69,.86-.67,1.88l.16,9.83c0,.42,.42,.67,1.24,.74,.18,.02,.31,.02,.38,.02,.07,0,.11,.02,.11,.07v.23s-.02,.08-.07,.08l-3.46,.06-9.14-9.78s-.05-.05-.07-.07c-.01-.02-.03-.02-.06-.02-.03,0-.04,.03-.04,.09l.11,6.52c.02,1.25,.14,2.07,.35,2.45,.21,.38,.64,.57,1.27,.56h.48c.05,0,.08,.02,.08,.07v.23c0,.05-.02,.08-.07,.08l-4.92,.08c-.05,0-.08-.02-.08-.08v-.23c0-.05,.09-.08,.27-.08s.49-.12,.91-.34,.63-.49,.63-.8l-.19-11.57c0-.14,.02-.24,.05-.3,.04-.06,.13-.09,.27-.09,.14,0,.25,.02,.32,.08,.07,.06,.15,.14,.25,.24l9.93,10.65c.06,.06,.12,.09,.17,.09,.03,0,.05-.03,.05-.1l-.15-9.44c0-.57-.47-.95-1.38-1.11-.25-.05-.45-.07-.58-.07-.13,0-.2-.02-.2-.07v-.23c0-.05,.02-.08,.07-.08l4.92-.08Z"/><path class="c" d="M402.88,543.03c.68-.02,1.26,.03,1.75,.15,1,.25,1.92,.66,2.75,1.22,1.13,.77,1.96,1.69,2.5,2.77,.68,1.38,.8,2.93,.35,4.67-.32,1.25-.93,2.31-1.83,3.18-.9,.87-2,1.45-3.29,1.76-1.29,.31-2.58,.3-3.89-.03-1.3-.33-2.4-.92-3.29-1.76s-1.51-1.85-1.88-3.03c-.37-1.17-.4-2.35-.1-3.53s.9-2.23,1.79-3.14c.89-.91,1.96-1.56,3.2-1.94,.61-.19,1.26-.29,1.94-.32Zm5.34,8.61c.26-1.01,.29-2.08,.1-3.19-.19-1.11-.63-2.09-1.31-2.93s-1.57-1.4-2.67-1.68c-1.56-.4-2.94-.11-4.12,.87-1.06,.88-1.81,2.16-2.24,3.84-.43,1.68-.31,3.25,.34,4.71,.32,.71,.77,1.33,1.37,1.87,.59,.53,1.23,.89,1.93,1.06,.69,.18,1.28,.25,1.76,.21,.48-.04,.94-.15,1.37-.32,.43-.17,.83-.41,1.2-.71,.37-.3,.7-.64,.99-1.02,.6-.79,1.02-1.69,1.28-2.7Z"/><path class="c" d="M383.14,535.66s.04,.09-.02,.2l-.05,.1s-.06,.05-.12,.02c-.06-.03-.15-.06-.27-.08-.13-.03-.22-.05-.28-.07-.64-.18-1.09,0-1.37,.51l-4.75,8.79c-.28,.51-.36,.89-.25,1.13s.42,.5,.91,.77l.37,.2c.12,.06,.14,.16,.07,.29-.04,.08-.1,.11-.18,.08l-.06-.03-4.74-2.4-.84-.45c-.96-.6-1.59-1.41-1.9-2.41s-.22-1.96,.27-2.87,1.26-1.56,2.31-1.94c.46-.17,.92-.27,1.39-.28,.46-.01,.87,.07,1.22,.25l2.44,1.45,.07,.04c.08,.04,.15,.03,.19-.05l1.85-3.42c.17-.31,.2-.58,.11-.81-.09-.23-.38-.54-.87-.91-.07-.05-.17-.13-.32-.24-.15-.11-.25-.18-.3-.21-.06-.03-.07-.07-.05-.11l.11-.2s.06-.05,.1-.03l4.98,2.69Zm-9.83,9.47c.07,.03,.14,.07,.22,.11,.08,.04,.17,.09,.29,.15,.12,.06,.2,.05,.25-.04l2.9-5.37,.12-.26c.05-.13,.03-.21-.06-.27l-.82-.51c-.89-.48-1.78-.57-2.65-.27-.87,.3-1.55,.91-2.04,1.82-.49,.91-.6,1.75-.34,2.54,.26,.79,.83,1.42,1.71,1.89,.08,.04,.15,.08,.22,.11l.2,.1Z"/><path class="c" d="M356.91,517.62c.68,.74,1.18,1.54,1.52,2.42,.33,.88,.51,1.73,.53,2.56,.03,1.76-.55,3.3-1.74,4.62-1.38,1.52-3.03,2.29-4.96,2.32-1.92,.03-3.66-.66-5.21-2.07s-2.4-3.06-2.54-4.95c-.14-1.89,.46-3.58,1.83-5.08,1.62-1.78,3.89-2.45,6.8-2,.07,0,.33,.08,.78,.21,.46,.13,.69,.19,.71,.17,.02-.02-.03-.26-.14-.73s-.29-1.51-.54-3.14c-.15-.97-.36-1.64-.61-1.98-.26-.35-.36-.55-.3-.61,.11-.12,.25-.12,.42-.01,.17,.11,.41,.3,.72,.58,.53,.48,.95,1.18,1.28,2.11,.45,1.77,.7,3.01,.75,3.73,.05,.72,.2,1.24,.45,1.55,.08,.09,.16,.2,.26,.3Zm-3.24,10.03c.67-.38,1.23-.83,1.69-1.34,.83-.93,1.41-1.93,1.74-3.02s.38-2.15,.16-3.21c-.22-1.05-.76-1.96-1.61-2.74-1.04-.95-2.28-1.33-3.71-1.14-1.43,.19-2.75,.94-3.95,2.26-1.2,1.32-1.87,2.74-2.01,4.25-.15,1.67,.42,3.16,1.69,4.47,1.13,1.03,2.45,1.42,3.97,1.19,.69-.1,1.37-.35,2.04-.73Z"/><path class="c" d="M341.08,500.72s-.01,.1-.12,.17l-.09,.06s-.08,.02-.1-.02c-.02-.03-.06-.08-.11-.14-.06-.06-.11-.13-.17-.19-.06-.07-.12-.13-.17-.18s-.09-.09-.12-.12c-.47-.46-.96-.53-1.45-.2l-8.35,5.49c-.45,.3-.66,.69-.61,1.18,.03,.29,.12,.56,.28,.81l.2,.3s.02,.08-.02,.1l-.19,.12s-.08,0-.13-.05l-2.97-4.26-.52-.8c-.55-.97-.72-1.98-.52-3.01,.2-1.03,.75-1.85,1.65-2.44,.9-.59,1.84-.68,2.84-.26,.31,.13,.61,.29,.9,.48l2.34-4.97c.41-.87,.53-1.74,.35-2.63-.02-.07,0-.12,.05-.16,.13-.09,.25-.04,.37,.13,.78,1.19,.95,2.43,.51,3.72-.1,.28-.22,.58-.37,.9l-1.86,4.16,1.15,1.94,.04,.06c.05,.08,.12,.09,.19,.05l3.65-2.4c.29-.19,.45-.41,.49-.67,.03-.26-.05-.6-.26-1.04-.05-.12-.12-.26-.19-.43-.07-.17-.12-.29-.16-.34-.04-.06-.03-.1,0-.12l.19-.12s.08-.02,.1,.02l3.2,4.86Zm-13.28,3.44c.04,.06,.09,.13,.14,.2,.05,.07,.11,.16,.19,.27,.08,.11,.16,.14,.24,.08l4.79-3.15,.23-.17c.1-.09,.13-.18,.08-.26l-.48-.84c-.97-1.48-2.09-2.03-3.34-1.64-.4,.12-.81,.32-1.24,.6-.83,.55-1.32,1.24-1.46,2.07s.06,1.66,.59,2.46c.05,.07,.09,.14,.14,.2,.04,.06,.09,.12,.13,.18Z"/><path class="c" d="M312.72,474.68c-.02-.06,.03-.11,.16-.16l1.8-.94c.11-.07,.18-.11,.21-.12,.03-.01,.07,.03,.1,.12s.04,.15,.03,.19-.05,.07-.09,.12c-.05,.04-.1,.1-.16,.16-.06,.06-.12,.12-.17,.18-.23,.23-.42,.52-.59,.89-.38,.88-.42,1.73-.12,2.55,.18,.49,.52,.89,1,1.21,.48,.32,.94,.39,1.38,.23,.43-.16,.78-.38,1.04-.67,.26-.28,.47-.61,.65-.97,.17-.37,.32-.77,.44-1.21s.24-.88,.36-1.33c.3-1.19,.62-2.06,.93-2.63,.49-.89,1.17-1.53,2.05-1.92,1-.38,1.95-.29,2.84,.26,.89,.55,1.52,1.33,1.91,2.35,.25,.66,.37,1.2,.39,1.64,.01,.44,.02,.74,.01,.91,0,.17,0,.29,.03,.36,.03,.07,.04,.11,.06,.12l.25,.4c.03,.08-.02,.15-.13,.21-1.4,.72-2.15,1.1-2.24,1.13s-.16,.05-.19,.05c-.04,0-.07-.04-.09-.1-.06-.17,.12-.4,.54-.72,1.1-1.12,1.38-2.4,.84-3.84-.25-.66-.66-1.15-1.24-1.47-.58-.32-1.19-.36-1.83-.12-1.03,.38-1.75,1.36-2.18,2.92-.12,.44-.27,1.07-.47,1.89-.2,.82-.44,1.51-.74,2.07-.46,.87-1.11,1.46-1.95,1.77-.84,.32-1.66,.24-2.45-.23-.79-.47-1.35-1.14-1.67-2.01-.17-.45-.28-.97-.33-1.57-.05-.6-.09-1.01-.11-1.25l-.25-.47Z"/><path class="c" d="M320.12,451.39s-.08-.02-.09-.07l-.03-.26c-.08-.61-.28-1.09-.59-1.43-.31-.34-.64-.48-.99-.44l-10.38,1.37c-.13,.02-.2,.05-.21,.11,0,.06-.01,.12-.02,.2l.48,3.6c.2,.57,.7,.89,1.49,.97,.43,.04,.7,.07,.82,.07,.12,0,.18,.03,.19,.08l.02,.17s0,.06-.03,.06l-.31,.04-2.97,.04c-.2-.01-.3-.06-.32-.15-.01-.09,.04-.19,.15-.31s.14-.31,.11-.6l-1.33-10.11c-.04-.27-.09-.43-.16-.48-.07-.05-.14-.09-.2-.13-.07-.04-.1-.1-.11-.18s.01-.13,.07-.16c.06-.03,.12-.06,.19-.08l2.88-.73,.31-.04s.04,.01,.04,.05l.02,.17s-.04,.09-.13,.12c-.61,.18-1.09,.39-1.43,.63-.34,.24-.53,.56-.56,.98l.48,3.61c.02,.07,.04,.14,.07,.19,.02,.05,.1,.07,.23,.05l10.38-1.37c.35-.05,.63-.27,.85-.68,.21-.41,.28-.92,.2-1.53l-.04-.27c0-.05,.02-.08,.06-.08l.23-.03s.08,.02,.08,.07l.85,6.44s-.02,.08-.07,.08l-.23,.03Z"/><path class="c" d="M306.64,420.33c-.12,1.05,.23,1.63,1.07,1.73l6.73,.8c1.24,.15,2.3-.14,3.19-.87s1.4-1.73,1.55-3.02c.16-1.33-.07-2.47-.69-3.41-.62-.94-1.56-1.49-2.83-1.64l-5.98-.71c-.6-.07-1.01-.07-1.26,.01-.65,.2-1.03,.77-1.15,1.71,0,.05-.03,.07-.08,.07l-.23-.03s-.07-.03-.07-.08l.55-4.62s.03-.07,.08-.07l.23,.03c.05,0,.07,.08,.05,.22-.1,.82,.16,1.36,.78,1.62,.1,.04,.2,.07,.29,.08l6.15,.73c2.75,.33,4.39,1.59,4.93,3.79,.19,.74,.24,1.46,.15,2.16-.3,2.51-1.18,4.28-2.63,5.32-.75,.53-1.62,.74-2.62,.62l-7.52-.89c-.53-.06-.92,.22-1.17,.84-.07,.18-.12,.34-.13,.47-.02,.13-.05,.19-.1,.19l-.23-.03s-.07-.03-.07-.07l.61-5.09c0-.05,.03-.07,.08-.07l.23,.03c.05,0,.07,.07,.05,.19Z"/><path class="c" d="M317.17,380.28s.06,.05,.04,.1l-.13,.33c-.14,.8,.25,1.59,1.19,2.36,.25,.2,.48,.41,.71,.61l8,7.11c.13,.11,.19,.21,.19,.3,0,.09-.03,.2-.08,.33l-.16,.41c-.06,.14-.16,.21-.3,.2l-13.07,.26c-.54,0-1,.36-1.4,1.06-.02,.04-.04,.07-.05,.1-.01,.03-.04,.03-.09,.01l-.21-.08s-.06-.05-.04-.1l2.03-5.2s.05-.06,.1-.04l.21,.08s.06,.05,.04,.1l-.05,.13c-.03,.16-.08,.34-.13,.54-.2,.79-.05,1.28,.46,1.48,.16,.06,.35,.09,.56,.08l9.43-.17c.14-.01,.16-.08,.06-.19l-7.11-6.31c-.1-.09-.23-.16-.39-.23s-.34-.06-.55,.02c-.2,.08-.34,.18-.42,.31-.08,.13-.14,.23-.18,.31-.04,.07-.11,.19-.2,.33s-.14,.25-.16,.3c-.02,.05-.05,.07-.1,.05l-.21-.08s-.06-.05-.04-.1l1.74-4.45s.05-.06,.1-.04l.21,.08Z"/><path class="c" d="M328.42,360.79c-.46,.6-.45,1.08,0,1.43,.09,.06,.19,.12,.31,.16,.12,.04,.24,.09,.37,.14l9.14,2.38c.07,.01,.12,0,.17-.06,.04-.06,.05-.12,.02-.2l-2.66-4.64-4.67-1.22c-.29-.08-.8,.13-1.51,.64-.21,.15-.33,.25-.38,.31-.04,.06-.09,.07-.13,.04l-.18-.14s-.04-.07-.01-.11l5.23-6.91s.07-.04,.11-.01l.18,.14s.04,.07,.01,.11l-.21,.28c-.37,.48-.41,1.03-.12,1.64,.1,.21,.22,.44,.37,.69l1.56,2.72,6.11,1.59c.07,.01,.12,0,.17-.06,.04-.06,.05-.12,.02-.2l-5.09-8.87c-.1-.17-.2-.29-.31-.38-.22-.17-.55,.04-.99,.62l-.35,.47s-.07,.04-.11,.01l-.18-.14s-.05-.07-.01-.11l2.54-3.36s.07-.04,.11-.01l.18,.14s.04,.07,.01,.11l-.27,.35c-.17,.22-.22,.45-.15,.68,.07,.23,.26,.63,.58,1.19l6.17,10.77c.08,.15,.11,.26,.09,.34-.02,.08-.07,.18-.16,.3l-.27,.35c-.09,.12-.21,.16-.35,.12l-6.48-1.7,3.28,5.72c.08,.15,.11,.26,.09,.34-.02,.08-.07,.18-.16,.3l-.27,.35c-.09,.12-.21,.16-.35,.1l-12.65-3.29c-.26-.07-.62,.05-1.08,.36s-.73,.51-.81,.6-.13,.13-.17,.1l-.18-.14s-.05-.07-.01-.11l3.26-4.3s.07-.05,.11-.01l.18,.14s.05,.07,.01,.11l-.1,.14Zm4.64-5.39c-.21-.16-.49-.03-.84,.39-.31,.46-.34,.82-.11,1.1,.06,.07,.12,.14,.21,.2,.08,.06,.18,.11,.31,.15,.12,.04,.24,.09,.37,.14l1.51,.4-1.16-2.03c-.09-.17-.19-.29-.29-.36Z"/><path class="c" d="M360.89,343.39c.23,.3,.65,.2,1.28-.31,.22-.18,.37-.24,.42-.16l.14,.18s.03,.08-.02,.11l-4.11,3.09s-.08,.03-.11-.02l-.14-.18s-.03-.08,.02-.11l.29-.22c.61-.58,.92-1.54,.94-2.87,0-.35,.03-.69,.06-1.01l.02-4.93-4.54-1.24c-.29-.08-.57-.16-.85-.25-1.02-.32-1.88-.33-2.58-.03-.26,.07-.56,.23-.91,.49-.04,.03-.08,.03-.11-.02l-.14-.18s-.03-.08,.02-.11l4.99-3.74s.08-.02,.11,.02l.14,.18s-.08,.15-.33,.34-.43,.36-.56,.52c-.21,.24-.23,.47-.07,.68,.06,.09,.19,.16,.37,.23l4.2,1.21c.05,0,.09,.01,.1,.02,.01,0,.04,0,.08-.04s.07-.14,.08-.34l.08-4.15c0-.19-.04-.35-.13-.48-.25-.33-.75-.21-1.5,.36-.04,.03-.08,.03-.11-.01l-.14-.19s-.02-.07,.02-.1l4.06-3.05s.08-.03,.11,.02l.14,.18s.02,.08-.02,.11c-.81,.61-1.26,1.67-1.36,3.2l-.04,4.83s.03,.01,.07,.03c.04,.02,.22,.08,.55,.18,.33,.1,1.5,.44,3.5,1.02,2.01,.58,3.12,.88,3.34,.9,.59,.06,1.06,0,1.4-.17,.08-.02,.17-.05,.25-.1,.08-.05,.19-.12,.32-.21,.13-.09,.23-.08,.3,.02,.09,.12,.03,.25-.16,.4l-4.17,3.13s-.08,.03-.11-.02l-.14-.18c-.04-.05,.02-.13,.17-.25,.56-.4,.73-.75,.49-1.06-.06-.08-.15-.14-.29-.2l-5.31-1.52c-.08-.02-.14-.01-.19,.02s-.07,.09-.07,.17l-.02,5.4c0,.15,.05,.29,.15,.42Z"/><path class="c" d="M387.25,328.53c-.2,.08-.32,.06-.37-.05l-.04-.09c-.04-.09,.02-.19,.19-.28,.16-.09,.27-.15,.32-.18,.42-.23,.69-.47,.8-.72,.11-.25,.09-.54-.05-.89l-1.2-2.89s-.04-.08-.08-.12l-5.94-4.21c-.93-.66-1.7-.94-2.3-.85-.03,0-.09,.02-.17,.03-.08,.01-.26,.06-.54,.12-.1,.02-.17-.02-.22-.14-.05-.11-.03-.19,.06-.23l5-2.07c.1-.04,.17,0,.22,.11,.05,.12,.02,.2-.08,.24-.37,.2-.62,.35-.73,.45-.25,.23-.32,.47-.2,.74,.06,.14,.15,.25,.26,.33l4.91,3.49c.1,.07,.17,.11,.19,.13,.03,.02,.06,.02,.11,0s.09-.14,.13-.35l.69-4.99c.01-.17,.03-.35,.05-.55,.02-.2,0-.38-.07-.55-.18-.43-.57-.55-1.19-.39-.22,.06-.35,.07-.38,.05-.03-.03-.06-.07-.08-.12-.04-.1-.02-.18,.08-.22l4.08-1.69c.08-.03,.14,0,.17,.07s.04,.14,.03,.18-.04,.08-.08,.11c-.04,.03-.08,.06-.13,.1-.05,.03-.15,.1-.31,.22-.37,.27-.68,.78-.93,1.52-.03,.09-.04,.14-.04,.15l-.99,7.38,1.35,3.26c.13,.31,.32,.53,.58,.63,.25,.11,.6,.1,1.05-.02,.45-.12,.68-.14,.72-.06l.04,.1c.05,.12-.03,.22-.22,.3l-4.71,1.96Z"/><path class="c" d="M410.14,321.13c-.11,.02-.18-.08-.22-.29-.03-.21,0-.38,.08-.51l7.07-12.62s.03-.08,.02-.12-.07-.06-.2-.04l-5.68,.85c-.52,.08-.91,.32-1.18,.72-.09,.14-.16,.28-.19,.44s-.05,.43-.07,.81c-.02,.38-.04,.58-.06,.62-.02,.03-.08,.05-.17,.07-.09,.01-.15,0-.18-.03l-.29-2.89c-.03-.21,.02-.33,.17-.35l10.16-1.51c.1-.02,.16,.08,.19,.28s.01,.37-.05,.5l-6.79,12.14s-.04,.09-.08,.18c-.04,.08-.06,.15-.05,.2,.02,.17,.18,.23,.47,.19l6.6-.98c.3-.04,.58-.22,.85-.51,.27-.3,.44-.67,.51-1.11,.07-.44,.09-.97,.05-1.58,0-.1,.06-.15,.17-.17s.16,.01,.18,.09l.07,.44,.23,2.93c0,.07,.01,.14,.02,.2,.04,.24-.03,.37-.21,.39l-11.41,1.7Z"/></g></g></g></svg>