<?xml version="1.0" encoding="UTF-8"?><svg id="a" xmlns="http://www.w3.org/2000/svg" viewBox="0 0 866 866"><defs><style>.c{fill:#997f7e;}.d{fill:#ffedcb;}</style></defs><g id="b"><g><circle class="d" cx="433" cy="433" r="220"/><g><path class="c" d="M440.2,264.02c0,.07-.04,.11-.12,.11l-7.15-.42c-.07,0-.11-.04-.11-.12l.02-.34c0-.07,.07-.11,.19-.1,1.28,.02,2.19-.61,2.71-1.89l6.67-16.21s.02-.04,.02-.07l-.13-.47s.02-.07,.06-.07l2.8,.16s.04,.02,.08,.03,.06,.04,.07,.09l4.96,16.96c.12,.26,.21,.49,.28,.7s.15,.4,.24,.58c.2,.4,.55,.71,1.06,.95,.42,.24,.8,.37,1.16,.39,.07,0,.11,.05,.1,.13l-.02,.32c0,.07-.04,.11-.12,.11l-8.57-.5c-.08,0-.11-.04-.11-.12l.02-.34c0-.07,.18-.11,.53-.11,.35,0,.63,0,.86,0,1.31-.06,1.98-.47,2.02-1.2,0-.06,0-.12-.02-.2l-1.77-6.09s-.02-.06-.05-.13c-.09-.32-.28-.49-.56-.51l-4.97-.29c-.28-.02-.51,.12-.68,.42-.03,.06-.05,.1-.05,.11l-2.46,6.03v.13c-.02,.24,.09,.47,.33,.68,.54,.47,1.3,.74,2.26,.79l.36,.02c.07,0,.11,.04,.11,.12l-.02,.34Zm4.73-9.93c.17,0,.26-.06,.26-.2,0-.07,0-.16-.04-.26l-1.75-5.86c-.08-.26-.14-.39-.19-.39-.05,0-.13,.12-.25,.38l-2.29,5.61c-.04,.09-.07,.19-.07,.3,0,.11,.06,.17,.2,.17l4.13,.24Z"/><path class="c" d="M473.45,268.59c-.07-.02-.1-.07-.07-.14l.1-.32c.02-.07,.09-.09,.22-.05,.42,.13,.9,.23,1.44,.29,1.72,.22,2.71-.09,2.97-.94l4.33-14.15c.26-1.17-.07-1.95-1-2.34-.28-.12-.59-.24-.94-.35l-.76-.23c-.07-.02-.1-.07-.07-.14l.1-.34c.02-.07,.07-.1,.14-.07l.59,.17,2.31,.69,4.82,1.31c5.11,1.57,7.21,3.86,6.28,6.88-.39,1.28-1.38,2.14-2.96,2.58-.25,.07-.45,.12-.62,.13s-.26,.03-.28,.03c.98,1.02,1.68,2.05,2.1,3.08s.46,2.12,.11,3.26c-.75,2.44-2.42,3.79-5.02,4.04-1.34,.14-2.71,0-4.11-.44l-9.68-2.96Zm9.99-8.38c-.12-.04-.19,0-.22,.09l-2.25,7.35c-.19,.63-.05,1.24,.42,1.8,.48,.57,1.06,.96,1.75,1.17,1.32,.41,2.59,.28,3.81-.38,1.22-.66,2.04-1.68,2.46-3.06,.42-1.38,.27-2.66-.46-3.84-.73-1.18-1.86-2.01-3.39-2.47l-2.13-.65Zm.13-1.15c-.05,.17,.03,.29,.23,.35l3.3,1.01c.86,.26,1.68,.17,2.46-.29s1.29-1.08,1.53-1.86c.43-1.4,.34-2.54-.26-3.42-.6-.87-1.57-1.51-2.89-1.92-.41-.1-.69-.17-.85-.22s-.32-.1-.49-.16c-.17-.06-.34-.1-.52-.12-.18-.02-.31,0-.4,.07s-.17,.21-.23,.41l-1.88,6.14Z"/><path class="c" d="M526.98,291.66c-.08,.04-.18,0-.32-.14s-.31-.26-.51-.38-.53-.26-.96-.4c-.43-.15-1.11-.37-2.04-.68-.93-.31-1.72-.67-2.4-1.07-1.52-.92-2.78-2.16-3.78-3.74-1-1.58-1.53-3.28-1.6-5.12-.07-1.83,.42-3.62,1.47-5.36,1.04-1.74,2.42-3.06,4.13-3.95,2.49-1.32,5.19-1.53,8.08-.64,.92,.28,1.78,.66,2.58,1.15,1.1,.66,2.29,1.63,3.57,2.9,.39,.39,.71,.74,.95,1.05s.4,.49,.47,.53l.42,.12,.37,.22c.1,.06,.1,.15,.02,.29l-2.25,3.74c-.05,.08-.14,.08-.29,0-.14-.09-.22-.16-.22-.21,0-.05,0-.11,0-.18,0-.07,.01-.14,.02-.21,0-.07,0-.14,0-.21,0-.07,0-.11,.01-.14,.25-3.13-.85-5.44-3.29-6.91-2.2-1.32-4.35-1.66-6.43-1-2.08,.66-3.82,2.14-5.21,4.45-1.39,2.31-1.9,4.71-1.53,7.19,.37,2.48,1.73,4.43,4.08,5.84,1.28,.77,2.68,1.09,4.19,.96s2.9-.56,4.17-1.31c.04-.04,.11-.03,.19,.01l.16,.09c.08,.05,.09,.12,.03,.22-.06,.1-.14,.17-.24,.23l-3.86,2.66Z"/><path class="c" d="M559.92,292.92c.05-.05,.11-.05,.16,0l.22,.22,3.22,3.14c.39,.37,.81,.79,1.26,1.24l1.23,1.25c1.14,1.16,1.95,2.08,2.44,2.75,.49,.67,.95,1.34,1.38,2.02,.44,.68,.76,1.54,.97,2.58,.21,1.04,.25,2.09,.12,3.13-.29,2.22-1.15,4.04-2.61,5.47-1.45,1.43-3.13,2.33-5.03,2.7-2.75,.55-5.4,.04-7.95-1.53-.81-.5-1.55-1.1-2.24-1.8l-7.16-7.3c-.05-.05-.05-.11,0-.16l.28-.27c.05-.05,.11-.05,.16,0l.22,.22c1.19,1.21,2.17,1.44,2.95,.68l10.97-10.77c.37-.37,.51-.79,.42-1.26s-.31-.89-.67-1.25l-.63-.64c-.05-.05-.05-.11,0-.16l.28-.27Zm3.95,4.62c-.16-.17-.34-.16-.52,.02l-12.24,12.02c-.49,.48-.29,1.2,.6,2.15,.26,.28,.54,.57,.83,.87,2.09,2.13,4.33,3.22,6.72,3.26,2.39,.04,4.58-.91,6.56-2.86,1.98-1.95,3.05-4.1,3.2-6.45,.15-2.35-.68-4.45-2.48-6.28l-2.67-2.72Z"/><path class="c" d="M574.08,339.3l.34-.2c.06-.04,.12-.02,.15,.04l.16,.27c.22,.32,.44,.66,.66,1.01,.21,.35,.45,.65,.7,.89,.58,.54,1.26,.59,2.03,.13l12.71-7.54c.8-.47,1.02-1.24,.68-2.31-.1-.3-.21-.6-.33-.89l-.15-.25c-.04-.06-.03-.12,.04-.15l.29-.17c.06-.04,.12-.03,.15,.04l6.81,11.47c.09,.14,.12,.26,.11,.36-.01,.1-.1,.2-.27,.32l-3.37,2.29c-.08,.05-.16,.01-.23-.11s-.09-.23-.05-.33c.05-.1,.31-.33,.77-.71s.8-.77,1.02-1.17,.22-.88,0-1.44l-2.98-5.03c-.06-.1-.15-.13-.25-.06l-6.24,3.7c-.08,.05-.1,.11-.05,.19l2.48,4.17c.64,1.08,1.59,1.24,2.84,.5,.06-.04,.12-.02,.15,.04l.17,.29c.04,.06,.02,.12-.04,.15l-5.16,3.06c-.06,.04-.12,.02-.15-.04l-.17-.29c-.04-.06-.03-.12,.04-.15,1.19-.71,1.67-1.46,1.45-2.26-.07-.22-.16-.44-.29-.66l-2.46-4.14c-.05-.08-.11-.1-.19-.05l-5.88,3.48c-.6,.36-.78,.84-.53,1.44,.07,.17,.16,.35,.26,.53l2.38,4.02c.49,.83,1.24,1.25,2.24,1.28,.72,.02,1.44-.13,2.16-.46,.24-.11,.42-.06,.55,.16,.06,.1,.03,.18-.07,.24l-4.29,2.01c-.14,.02-.23,0-.27-.07l-7.97-13.44c-.04-.06-.03-.12,.04-.15Z"/><path class="c" d="M605.83,381.19c.39,1.19,1.16,1.6,2.33,1.22,.07-.02,.12,0,.14,.07l.1,.32c.02,.07,0,.12-.07,.14l-4.97,1.6c-.07,.02-.12,0-.14-.07l-.1-.32c-.02-.07,0-.12,.07-.14,.82-.26,1.31-.68,1.47-1.24,.09-.3,.06-.69-.09-1.15l-1.7-5.26c-.07-.21-.22-.28-.46-.2l-6.86,2.22c-.61,.2-.94,.7-.99,1.52-.06,.82-.05,1.32,0,1.51s.06,.3-.01,.32l-.32,.1c-.07,.02-.12,0-.14-.07l-2.35-7.29c-.02-.07,0-.12,.07-.14l.32-.1c.07-.02,.13,.04,.18,.19s.2,.36,.44,.64,.55,.49,.91,.64,.74,.17,1.14,.04l14.42-4.66c.58-.19,.89-.63,.94-1.32,.04-.4,0-.78-.11-1.13l-.02-.05c-.02-.07,0-.12,.07-.14l.32-.1c.07-.02,.12,0,.14,.07l4.07,12.59c.02,.11,.02,.2,0,.26-.01,.06-.08,.12-.21,.16l-3.23,1.04c-.11,.03-.18,.04-.21,.02-.04-.02-.07-.07-.09-.15l-.05-.16s.23-.16,.67-.42c.44-.26,.76-.53,.95-.83,.27-.49,.36-.98,.25-1.45-.04-.19-.11-.42-.19-.69l-1.63-5.06c-.06-.18-.17-.24-.35-.18l-6.18,2c-.2,.07-.27,.21-.2,.42l1.69,5.23Z"/><path class="c" d="M610.98,429.89c0,.1-.06,.16-.21,.17s-.25-.03-.31-.13c-.12-.24-.23-.5-.33-.76s-.21-.5-.35-.71c-.32-.49-.79-.71-1.42-.67l-4.55,.34c-.21,.02-.52-.46-.94-1.41-.42-.96-.73-1.74-.94-2.34-.93-2.83-1.05-5.41-.36-7.74,.8-2.68,2.45-4.65,4.94-5.93,1.25-.64,2.51-1.01,3.78-1.1,1.27-.1,2.35-.05,3.24,.13,2.71,.56,4.86,2.01,6.48,4.35,1.05,1.52,1.65,3.16,1.78,4.92,.13,1.76-.08,3.65-.64,5.68-.1,.37-.15,.58-.15,.63v.17l.2,.55,.03,.35c0,.1-.04,.16-.14,.17l-4.66,.35c-.18,.01-.27-.08-.29-.29v-.06c0-.18,.23-.32,.68-.42,.09-.03,.16-.04,.21-.06,2.85-1.15,4.16-3.23,3.93-6.23-.18-2.41-1.24-4.26-3.16-5.55-1.93-1.29-4.14-1.85-6.65-1.66-2.51,.19-4.67,1.08-6.49,2.66-1.82,1.59-2.63,3.64-2.44,6.16,.1,1.3,.38,2.35,.84,3.16,.18,.31,.4,.55,.66,.71l3.83-.29c.87-.07,1.49-.36,1.85-.89s.5-1.45,.4-2.77c0-.1,.08-.16,.25-.17,.17-.01,.26,.03,.27,.13l.65,8.53Z"/><path class="c" d="M600.23,472.28c-1.24-.23-2.05,.51-2.42,2.23-.01,.07-.06,.1-.13,.09l-.33-.06c-.07-.01-.1-.06-.09-.13l1.6-8.78c.01-.07,.06-.1,.13-.09l.33,.06c.07,.01,.07,.25-.02,.71s-.08,1,.02,1.63c.13,.96,.54,1.5,1.24,1.62l6.58,1.2c.09,.02,.15,.01,.19,0,.03-.02,.06-.08,.07-.17l1.98-10.87c.02-.09,.01-.15,0-.19-.02-.03-.08-.06-.17-.07l-6.72-1.23c-1.1-.2-1.8,.51-2.1,2.14-.01,.07-.06,.1-.13,.09l-.33-.06c-.07-.01-.1-.05-.09-.12l1.39-7.62c.01-.07,.06-.1,.13-.09l.33,.06c.07,.01,.09,.11,.06,.3-.28,1.54,.24,2.42,1.55,2.67l14.72,2.69c1.08,.2,1.76-.34,2.06-1.61,.04-.19,.1-.28,.18-.27l.26,.05c.07,.01,.1,.05,.09,.12l-1.26,6.93c-.01,.07-.06,.1-.13,.09l-.26-.05c-.06-.01-.07-.1-.04-.28,.24-1.32-.29-2.09-1.59-2.33l-6.37-1.16c-.09-.02-.15-.01-.19,0-.03,.02-.06,.08-.07,.17l-1.98,10.87c-.02,.09-.01,.15,0,.19,.02,.03,.08,.06,.17,.07l6.6,1.2c.09,0,.16,0,.23,0,.07,0,.18,.01,.33,.01,.32,0,.64-.29,.94-.84s.55-1.2,.74-1.93c.01-.07,.06-.1,.13-.09l.26,.05c.07,.01,.1,.05,.09,.12l-1.45,7.96c-.01,.07-.06,.1-.13,.09l-.26-.05c-.06-.01-.07-.1-.04-.28,.25-1.36-.28-2.16-1.57-2.4l-14.56-2.66Z"/><path class="c" d="M605.2,504.84c1.03,.44,1.8,.07,2.31-1.12,.08-.19,.16-.27,.22-.24l.31,.13c.07,.03,.09,.08,.06,.15l-2.76,6.46c-.03,.07-.08,.09-.15,.06l-.31-.13c-.07-.03-.02-.23,.14-.61,.16-.38,.19-.78,.08-1.2s-.53-.79-1.28-1.11l-13.77-5.87c-1.03-.44-1.8-.06-2.31,1.13-.08,.18-.15,.26-.22,.23l-.31-.13c-.07-.03-.09-.08-.06-.15l2.76-6.46c.03-.07,.08-.09,.15-.06l.31,.13c.07,.03,.02,.23-.14,.61-.16,.38-.19,.78-.08,1.2,.11,.42,.53,.79,1.28,1.11l13.77,5.87Z"/><path class="c" d="M588.29,539.63c-.06-.04,.01-.22,.22-.54,.21-.32,.31-.71,.29-1.17s-.36-.91-1.03-1.35l-14.48-9.56c-1.74-1.15-3.03-2.71-3.88-4.69-.59-1.36-.76-2.7-.5-4,.13-.67,.37-1.28,.74-1.84,.37-.56,.85-1.02,1.45-1.39,.6-.37,1.06-.45,1.37-.24,.31,.21,.49,.5,.53,.89,.04,.39-.02,.71-.2,.98-.18,.27-.35,.47-.51,.6s-.34,.24-.5,.32c-.17,.07-.33,.13-.49,.16-.16,.03-.37,.09-.62,.18-.25,.09-.48,.28-.68,.58-.4,.6-.45,1.23-.15,1.87,.29,.65,.76,1.24,1.39,1.77,.63,.53,1.47,1.14,2.52,1.83l15.8,10.43c.79,.52,1.53,.38,2.23-.43,.22-.26,.44-.57,.67-.92,.04-.06,.09-.07,.16-.03l.28,.19c.06,.04,.07,.09,.03,.16l-4.2,6.36c-.04,.06-.09,.07-.16,.03l-.28-.19Z"/><path class="c" d="M552.53,552.64c-.05-.05-.05-.11,0-.16l5.89-5.77s.1-.04,.15,.01l.19,.19c.05,.05-.06,.22-.34,.51-.28,.28-.52,.73-.73,1.34s-.11,1.12,.29,1.53l10.7,10.92c.74,.75,1.82,.52,3.23-.71,.05-.05,.11-.05,.16,0l.19,.19c.05,.05,.05,.1,0,.15l-5.89,5.77c-.05,.05-.11,.05-.16,0l-.19-.19s.08-.2,.36-.47,.5-.65,.68-1.14c.24-.65,.12-1.22-.36-1.71l-4.33-4.42c-.58-.59-.92-.83-1.03-.71-.29,.28-.47,.82-.56,1.62s-.11,1.55-.07,2.28c.04,.72,.15,1.52,.32,2.38,.18,.87,.29,1.46,.35,1.79,.19,1.2,.46,1.98,.81,2.33,.35,.36,.74,.45,1.16,.26,.28-.12,.61-.36,.98-.72l.1-.1c.05-.05,.11-.05,.16,0l.19,.19c.05,.05,.05,.11,0,.16l-5.79,5.67c-.05,.05-.11,.05-.16,0l-.19-.19c-.08-.08-.08-.16,0-.24,.83-.86,1.34-1.59,1.54-2.17,.2-.58,.31-1.11,.31-1.57s-.08-1.07-.26-1.82c-.56-2.29-.85-4.28-.85-5.98,0-.72-.04-1.13-.11-1.23-.1-.03-.63-.03-1.61,0-2.43,.08-5.34-.19-8.72-.82-1.28-.25-2.44-.05-3.47,.61-.7,.42-1.12,.71-1.27,.85-.15,.15-.25,.19-.3,.14l-.17-.17c-.05-.05-.05-.11,0-.16l6.55-6.42c.05-.05,.11-.05,.16,0l.19,.19c.05,.05-.03,.2-.23,.44-.69,.81-.85,1.4-.48,1.77,.41,.33,1.99,.6,4.73,.8,.49,.03,1.02,.08,1.59,.15,2.24,.25,3.69,.06,4.34-.58l.19-.19c.07-.07,.05-.14-.04-.24l-4.59-4.69c-.92-.94-2.02-.77-3.3,.48-.05,.05-.11,.05-.16,0l-.17-.17Z"/><path class="c" d="M526.77,573.85c.06-.04,.12-.03,.15,.04l.17,.29c.04,.06,.03,.12-.04,.15l-.29,.17c-.69,.41-1.2,.92-1.54,1.52-.14,.25-.2,.54-.18,.87,.02,.33,.12,.66,.3,.97l7.64,12.72c.3,.5,.85,.69,1.65,.56,.57-.08,1.1-.27,1.6-.57l.26-.16c.06-.04,.12-.03,.15,.04l.17,.29c.04,.06,.03,.12-.04,.15l-8.14,4.89c-.06,.04-.12,.03-.15-.04l-.17-.29c-.04-.06-.03-.12,.04-.15l.52-.31c.83-.5,1.49-1.05,1.98-1.66,.15-.18,.2-.35,.16-.53-.04-.18-.16-.45-.38-.81l-8.01-13.33c-.1-.13-.25-.21-.45-.25s-.38-.02-.54,.08l-4.75,2.85c-.71,.43-1.16,1.27-1.35,2.53-.05,.33-.1,.77-.15,1.31-.05,.54-.09,.85-.13,.93-.14,.35-.27,.42-.39,.22-.03-.05-.04-.1-.05-.17l-.32-4.65c-.01-.19,.03-.31,.12-.37l12.13-7.29Z"/><path class="c" d="M487.47,593.76c-.05,.02-.09-.01-.11-.08l-.1-.32c-.02-.07,0-.12,.05-.13l6.28-1.86c.07-.02,.12,0,.14,.08l.09,.32c.02,.07,0,.12-.08,.14-1.47,.44-2.08,1.3-1.83,2.6,.07,.38,.22,1,.43,1.87,.21,.87,.64,2.75,1.28,5.63,.64,2.89,1.22,5.21,1.74,6.95l.15,.5c.11,.36,.4,.6,.88,.72,.48,.12,.81,.15,1,.1,.19-.06,.29-.05,.31,.02l.1,.32c.02,.07,0,.12-.08,.14l-3.89,1.15c-.18,.02-.35-.03-.5-.17l-10.47-12.19c-.06-.05-.12-.09-.16-.13-.04-.04-.11-.04-.22,0-.11,.04-.16,.14-.17,.31l-2.15,15.65c-.08,.42-.2,.64-.35,.69l-3.91,1.16c-.07,.02-.12,0-.14-.08l-.1-.32c-.02-.07,0-.11,.04-.13,.27-.08,.57-.27,.92-.56,.52-.45,.7-.93,.55-1.46l-5.21-14.62c-.16-.46-.51-.77-1.06-.91-.55-.15-1.2-.11-1.96,.11-.07,.02-.12,0-.14-.08l-.1-.32c-.02-.07,0-.12,.08-.14l7.64-2.26c.07-.02,.12,0,.14,.08l.1,.32c.02,.07,0,.12-.08,.14-1.6,.47-2.29,1.1-2.06,1.88l4.52,12.63c.04,.09,.07,.12,.11,.11,.04-.01,.06-.06,.07-.15l2.4-16.45c.02-.07,.11-.14,.28-.19,.17-.05,.28-.04,.33,.02l10.88,12.55c.09,.11,.16,.16,.21,.14,.05-.01,.04-.12-.01-.32-.12-.41-.59-2.39-1.41-5.93-.82-3.54-1.35-5.74-1.61-6.6l-.16-.55c-.26-.48-.86-.66-1.81-.54-.27,.03-.55,.09-.84,.18Z"/><path class="c" d="M447.06,601.79c.08,0,.11,.04,.11,.11v.34c0,.07-.04,.11-.13,.11h-.32c-.51,.01-.86,.07-1.05,.16-.69,.35-1.02,1.28-.99,2.79l.24,14.57c.01,.63,.62,.99,1.84,1.09,.27,.02,.46,.04,.57,.03s.16,.03,.16,.11v.34c0,.07-.03,.11-.1,.11l-5.13,.08-13.55-14.5s-.08-.08-.1-.1c-.02-.02-.05-.03-.09-.03s-.06,.04-.06,.13l.16,9.66c.03,1.86,.2,3.07,.52,3.64s.94,.84,1.88,.83h.72c.07-.01,.11,.02,.11,.1v.34c0,.07-.03,.11-.1,.11l-7.29,.12c-.07,0-.11-.04-.11-.11v-.34c0-.08,.13-.11,.41-.12,.28,0,.73-.17,1.35-.5,.63-.33,.94-.73,.93-1.19l-.28-17.15c0-.21,.02-.35,.08-.44s.19-.14,.4-.14c.21,0,.37,.04,.47,.12,.1,.08,.23,.2,.37,.36l14.72,15.79c.09,.09,.18,.14,.25,.14,.05,0,.07-.05,.07-.14l-.23-14c-.01-.85-.7-1.4-2.05-1.65-.38-.07-.66-.1-.86-.1-.2,0-.29-.03-.3-.11v-.34c0-.08,.03-.11,.11-.11l7.29-.12Z"/><path class="c" d="M388.48,596.14c1-.04,1.87,.04,2.59,.22,1.49,.38,2.84,.98,4.07,1.8,1.68,1.14,2.91,2.51,3.7,4.11,1.01,2.04,1.18,4.35,.53,6.92-.47,1.86-1.38,3.43-2.72,4.72-1.34,1.29-2.96,2.16-4.87,2.62-1.91,.46-3.83,.45-5.76-.04-1.93-.49-3.56-1.36-4.87-2.61-1.31-1.25-2.24-2.74-2.78-4.48-.54-1.74-.59-3.49-.15-5.24,.45-1.75,1.33-3.31,2.64-4.65,1.32-1.35,2.9-2.31,4.74-2.89,.91-.28,1.87-.44,2.87-.47Zm7.93,12.76c.38-1.5,.43-3.08,.14-4.73-.29-1.65-.94-3.1-1.94-4.35-1-1.25-2.32-2.08-3.95-2.49-2.32-.59-4.35-.16-6.1,1.29-1.58,1.31-2.68,3.21-3.31,5.7-.63,2.49-.46,4.82,.51,6.99,.47,1.06,1.15,1.98,2.03,2.76,.88,.79,1.83,1.31,2.86,1.57,1.03,.26,1.9,.36,2.61,.3,.71-.06,1.39-.22,2.02-.48,.64-.26,1.23-.61,1.77-1.05s1.04-.94,1.47-1.51c.88-1.17,1.52-2.5,1.9-4Z"/><path class="c" d="M359.22,585.25c.07,.04,.05,.14-.03,.3l-.08,.15c-.04,.07-.09,.08-.18,.03-.08-.04-.22-.08-.4-.12-.19-.04-.33-.07-.42-.1-.94-.26-1.62-.01-2.03,.75l-7.02,13.04c-.41,.76-.53,1.32-.36,1.68,.17,.36,.62,.74,1.35,1.13l.56,.3c.17,.09,.21,.24,.1,.44-.06,.12-.15,.16-.27,.12l-.09-.05-7.03-3.55-1.25-.67c-1.42-.89-2.36-2.08-2.82-3.57-.46-1.49-.33-2.91,.4-4.26s1.86-2.31,3.42-2.88c.68-.26,1.37-.4,2.06-.42,.69-.02,1.29,.11,1.81,.38l3.62,2.14,.1,.05c.12,.07,.22,.04,.28-.07l2.73-5.08c.24-.45,.3-.85,.17-1.2-.13-.35-.56-.8-1.3-1.35-.1-.07-.26-.19-.48-.36-.22-.17-.37-.27-.45-.31-.08-.04-.11-.1-.07-.17l.16-.3c.04-.07,.09-.08,.15-.05l7.38,3.98Zm-14.56,14.05c.1,.05,.21,.1,.32,.16s.26,.13,.43,.22c.18,.09,.3,.07,.37-.06l4.29-7.96,.18-.38c.07-.19,.04-.32-.09-.4l-1.22-.75c-1.33-.71-2.63-.84-3.92-.39s-2.3,1.35-3.02,2.7c-.73,1.35-.89,2.6-.51,3.77,.39,1.17,1.24,2.1,2.54,2.8,.12,.06,.22,.12,.32,.17s.2,.1,.3,.15Z"/><path class="c" d="M320.32,558.55c1.01,1.09,1.76,2.29,2.25,3.59,.5,1.3,.76,2.57,.78,3.79,.05,2.61-.81,4.89-2.58,6.85-2.04,2.25-4.49,3.4-7.35,3.45s-5.43-.97-7.73-3.06c-2.3-2.09-3.56-4.53-3.77-7.33-.22-2.8,.68-5.31,2.7-7.53,2.4-2.64,5.76-3.64,10.07-2.98,.1,.02,.49,.12,1.16,.32,.67,.2,1.03,.28,1.05,.25s-.04-.39-.21-1.08c-.17-.69-.44-2.24-.81-4.65-.23-1.45-.53-2.43-.91-2.94-.38-.51-.53-.82-.45-.91,.16-.17,.37-.18,.62-.02,.26,.16,.61,.44,1.06,.85,.78,.71,1.41,1.75,1.9,3.13,.67,2.62,1.04,4.46,1.12,5.53s.3,1.84,.68,2.3c.11,.14,.24,.29,.39,.45Zm-4.79,14.88c.99-.56,1.82-1.23,2.5-1.99,1.22-1.38,2.08-2.87,2.57-4.48s.57-3.19,.23-4.75c-.33-1.56-1.13-2.91-2.39-4.06-1.54-1.4-3.38-1.96-5.5-1.69-2.12,.28-4.07,1.4-5.85,3.35s-2.77,4.06-2.97,6.3c-.22,2.48,.62,4.69,2.51,6.62,1.68,1.52,3.64,2.11,5.88,1.76,1.03-.16,2.03-.51,3.02-1.08Z"/><path class="c" d="M296.84,533.55c.04,.06-.02,.15-.17,.25l-.14,.09c-.06,.04-.11,.03-.16-.03-.03-.05-.09-.12-.17-.21-.08-.09-.17-.19-.26-.29-.09-.1-.17-.19-.25-.27-.08-.08-.14-.14-.17-.17-.7-.68-1.42-.78-2.15-.3l-12.37,8.15c-.67,.44-.97,1.03-.9,1.75,.04,.43,.18,.83,.42,1.2l.29,.45c.04,.06,.03,.11-.03,.16l-.28,.19c-.06,.04-.12,.01-.19-.08l-4.41-6.31-.78-1.18c-.82-1.44-1.08-2.93-.78-4.46s1.11-2.74,2.44-3.61c1.33-.88,2.73-1.01,4.21-.39,.45,.19,.9,.43,1.34,.71l3.46-7.37c.61-1.29,.78-2.58,.51-3.9-.03-.1,0-.18,.08-.24,.2-.13,.38-.06,.55,.19,1.16,1.76,1.41,3.59,.76,5.51-.15,.42-.33,.87-.55,1.33l-2.76,6.17,1.71,2.87,.06,.09c.08,.12,.17,.14,.28,.07l5.4-3.56c.43-.28,.67-.61,.72-1s-.08-.89-.39-1.54c-.08-.17-.17-.38-.28-.64-.11-.25-.19-.42-.24-.5s-.05-.14,.01-.18l.28-.19c.06-.04,.11-.03,.16,.03l4.75,7.2Zm-19.68,5.12c.07,.09,.14,.19,.21,.29,.07,.1,.17,.24,.28,.4,.11,.16,.23,.2,.36,.12l7.1-4.68,.34-.25c.15-.13,.19-.26,.11-.39l-.72-1.24c-1.45-2.19-3.1-3-4.96-2.43-.59,.18-1.2,.47-1.83,.89-1.23,.81-1.95,1.84-2.16,3.08-.2,1.24,.09,2.45,.87,3.65,.07,.11,.14,.21,.21,.3,.07,.09,.13,.18,.2,.27Z"/><path class="c" d="M254.76,494.99c-.03-.09,.05-.17,.24-.24l2.67-1.39c.16-.1,.27-.16,.31-.18,.05-.02,.1,.04,.15,.18,.05,.14,.07,.23,.04,.28-.02,.05-.07,.11-.14,.17-.07,.07-.15,.14-.24,.23s-.17,.18-.26,.27c-.33,.33-.62,.77-.87,1.32-.57,1.31-.62,2.57-.17,3.78,.27,.73,.77,1.32,1.48,1.79,.72,.47,1.4,.58,2.04,.34,.64-.24,1.16-.57,1.54-.99,.38-.42,.7-.9,.96-1.45,.25-.55,.47-1.14,.65-1.79,.18-.65,.35-1.3,.53-1.97,.45-1.76,.91-3.06,1.38-3.9,.72-1.32,1.73-2.27,3.04-2.85,1.49-.56,2.89-.43,4.21,.37,1.32,.81,2.26,1.97,2.83,3.48,.36,.97,.56,1.78,.58,2.43s.03,1.1,.02,1.35,.01,.43,.05,.53c.04,.1,.07,.16,.08,.19l.37,.59c.04,.11-.02,.22-.2,.31-2.08,1.07-3.18,1.63-3.32,1.68-.14,.05-.23,.07-.29,.07s-.1-.05-.14-.15c-.09-.25,.17-.6,.8-1.06,1.62-1.66,2.04-3.56,1.23-5.69-.37-.98-.98-1.71-1.84-2.18-.86-.47-1.76-.53-2.72-.17-1.52,.57-2.6,2.02-3.23,4.33-.17,.66-.41,1.59-.7,2.81-.29,1.22-.66,2.24-1.1,3.06-.68,1.28-1.64,2.16-2.89,2.63-1.25,.47-2.46,.36-3.63-.34-1.17-.69-2-1.68-2.48-2.97-.25-.67-.41-1.44-.48-2.33-.07-.89-.13-1.5-.17-1.85l-.37-.7Z"/><path class="c" d="M265.69,460.47c-.07,0-.12-.03-.13-.11l-.05-.39c-.12-.91-.41-1.61-.88-2.11-.46-.5-.95-.71-1.47-.65l-15.39,2.05c-.19,.03-.3,.08-.31,.16s-.02,.18-.02,.29l.71,5.34c.3,.84,1.04,1.32,2.21,1.43,.63,.07,1.04,.1,1.21,.11,.18,0,.27,.04,.28,.12l.03,.25c0,.06,0,.09-.04,.09l-.46,.06-4.41,.06c-.29-.02-.45-.09-.47-.22-.02-.13,.05-.28,.22-.45,.16-.17,.21-.47,.16-.88l-2-14.99c-.05-.4-.13-.63-.24-.71-.1-.07-.2-.14-.3-.2-.1-.06-.15-.15-.17-.27-.02-.12,.02-.2,.11-.24,.09-.04,.18-.08,.28-.12l4.27-1.09,.46-.06s.06,.02,.07,.08l.03,.25c.01,.07-.05,.13-.19,.18-.91,.27-1.61,.58-2.12,.93-.5,.35-.78,.84-.83,1.46l.71,5.35c.03,.11,.07,.2,.1,.28,.03,.08,.15,.1,.34,.07l15.39-2.05c.52-.07,.94-.41,1.25-1.01,.32-.6,.41-1.36,.29-2.27l-.05-.4c0-.07,.02-.12,.1-.13l.33-.04c.07,0,.12,.02,.13,.1l1.27,9.55c.01,.07-.02,.12-.1,.13l-.33,.04Z"/><path class="c" d="M245.65,414.47c-.18,1.56,.35,2.41,1.59,2.56l9.97,1.17c1.84,.22,3.41-.22,4.72-1.3,1.31-1.08,2.07-2.57,2.3-4.48,.23-1.98-.11-3.66-1.02-5.06-.91-1.39-2.31-2.2-4.2-2.42l-8.86-1.04c-.88-.1-1.5-.1-1.87,.02-.97,.29-1.53,1.14-1.7,2.54,0,.07-.05,.11-.12,.1l-.33-.04c-.07,0-.11-.05-.1-.12l.81-6.85c0-.07,.05-.11,.12-.1l.33,.04c.07,0,.1,.12,.08,.32-.14,1.22,.24,2.02,1.16,2.4,.15,.06,.3,.11,.44,.12l9.12,1.07c4.08,.48,6.52,2.35,7.32,5.61,.28,1.1,.35,2.17,.23,3.21-.44,3.72-1.74,6.35-3.89,7.89-1.11,.79-2.4,1.1-3.88,.93l-11.14-1.31c-.79-.09-1.37,.32-1.73,1.25-.11,.27-.17,.5-.19,.7-.02,.19-.07,.29-.15,.28l-.33-.04c-.07,0-.11-.05-.1-.11l.89-7.55c0-.07,.05-.11,.12-.1l.33,.04c.07,0,.1,.1,.08,.28Z"/><path class="c" d="M261.18,355.07c.07,.03,.09,.08,.06,.15l-.19,.48c-.21,1.19,.38,2.36,1.77,3.5,.36,.3,.71,.6,1.05,.9l11.88,10.53c.19,.16,.28,.31,.28,.44,0,.13-.04,.3-.12,.5l-.24,.61c-.08,.21-.23,.31-.45,.29l-19.37,.41c-.8,.01-1.49,.54-2.07,1.57-.03,.06-.06,.11-.07,.15-.02,.04-.06,.04-.13,.02l-.31-.12c-.07-.03-.09-.08-.06-.15l3-7.71c.03-.07,.08-.09,.15-.06l.31,.12c.07,.03,.09,.08,.06,.15l-.08,.2c-.05,.23-.11,.5-.19,.8-.29,1.17-.07,1.9,.68,2.19,.24,.09,.51,.13,.83,.11l13.98-.27c.21-.02,.24-.11,.09-.28l-10.55-9.33c-.15-.13-.35-.24-.59-.33-.24-.09-.51-.08-.81,.03-.3,.11-.51,.27-.62,.46s-.2,.34-.27,.45c-.06,.11-.16,.28-.29,.5-.13,.22-.21,.37-.24,.45-.03,.08-.08,.1-.15,.08l-.31-.12c-.07-.03-.09-.08-.06-.15l2.56-6.6c.03-.07,.08-.09,.15-.06l.31,.12Z"/><path class="c" d="M277.78,326.21c-.68,.9-.67,1.6,.02,2.12,.13,.1,.28,.17,.46,.23,.18,.06,.36,.13,.55,.21l13.56,3.5c.1,.02,.19-.01,.25-.09,.06-.08,.07-.18,.03-.29l-3.96-6.87-6.92-1.8c-.44-.12-1.18,.2-2.23,.95-.31,.22-.5,.38-.56,.46-.06,.09-.13,.11-.19,.06l-.27-.2c-.06-.04-.07-.1-.02-.16l7.74-10.26c.04-.06,.1-.07,.16-.02l.27,.2c.06,.04,.07,.1,.02,.16l-.31,.41c-.54,.72-.6,1.53-.18,2.43,.14,.31,.32,.65,.54,1.03l2.32,4.03,9.06,2.34c.1,.02,.19-.01,.25-.09s.07-.18,.03-.29l-7.57-13.14c-.14-.25-.29-.43-.46-.56-.33-.25-.82,.06-1.46,.92l-.52,.69c-.05,.06-.1,.07-.16,.02l-.27-.2c-.06-.05-.07-.1-.02-.16l3.76-4.98c.04-.06,.1-.07,.16-.02l.27,.2c.06,.05,.07,.1,.02,.16l-.4,.53c-.25,.33-.32,.66-.22,1,.1,.34,.39,.93,.86,1.76l9.17,15.95c.12,.22,.16,.39,.14,.51s-.1,.27-.23,.44l-.4,.53c-.14,.18-.31,.24-.52,.17l-9.6-2.5,4.87,8.47c.12,.22,.16,.39,.14,.51-.03,.12-.1,.27-.23,.44l-.4,.53c-.14,.18-.31,.23-.52,.15l-18.76-4.85c-.38-.1-.92,.08-1.6,.53-.69,.45-1.09,.75-1.2,.9s-.19,.2-.25,.15l-.27-.2c-.06-.04-.07-.1-.02-.16l4.82-6.38c.05-.06,.1-.07,.16-.02l.27,.2c.06,.05,.07,.1,.02,.16l-.15,.2Zm6.86-8c-.31-.24-.73-.05-1.24,.57-.45,.68-.51,1.22-.16,1.63,.08,.11,.18,.21,.31,.3,.12,.09,.27,.17,.45,.23s.36,.13,.54,.21l2.25,.59-1.72-3c-.14-.25-.28-.42-.42-.53Z"/><path class="c" d="M325.9,300.32c.34,.45,.97,.29,1.9-.46,.33-.27,.54-.35,.62-.24l.2,.27c.05,.06,.04,.11-.02,.16l-6.08,4.58c-.06,.05-.11,.04-.16-.02l-.2-.27c-.05-.06-.04-.11,.02-.16l.44-.33c.9-.86,1.36-2.28,1.39-4.26,.01-.53,.04-1.03,.08-1.5l.03-7.31-6.73-1.83c-.42-.11-.84-.24-1.26-.37-1.51-.48-2.78-.49-3.82-.04-.39,.11-.84,.35-1.34,.73-.06,.04-.11,.04-.16-.02l-.2-.27c-.04-.06-.04-.11,.02-.16l7.38-5.56c.06-.04,.11-.04,.16,.02l.2,.27c.04,.06-.12,.23-.48,.5-.37,.28-.64,.53-.83,.76-.3,.36-.34,.69-.1,1.01,.1,.13,.28,.24,.55,.34l6.23,1.79c.08,.01,.13,.02,.15,.03,.02,0,.06,0,.12-.06,.06-.05,.1-.21,.12-.5l.1-6.15c.01-.28-.05-.52-.2-.71-.37-.49-1.11-.31-2.23,.54-.06,.04-.11,.04-.16-.02l-.21-.28c-.04-.05-.03-.1,.03-.15l6.02-4.53c.06-.04,.11-.04,.16,.02l.2,.27c.05,.06,.04,.11-.02,.16-1.19,.9-1.86,2.48-2.01,4.75l-.05,7.15s.05,.02,.1,.04c.05,.02,.32,.11,.81,.26,.49,.15,2.22,.66,5.2,1.51,2.97,.86,4.62,1.3,4.95,1.32,.88,.09,1.57,0,2.08-.25,.12-.02,.25-.07,.37-.15,.12-.08,.28-.18,.47-.31,.19-.13,.34-.12,.45,.02,.13,.17,.05,.37-.24,.59l-6.17,4.65c-.06,.05-.11,.04-.16-.02l-.2-.27c-.06-.07,.03-.2,.25-.37,.83-.59,1.08-1.11,.73-1.57-.08-.11-.23-.21-.43-.29l-7.87-2.24c-.12-.03-.21-.02-.27,.03-.07,.05-.1,.14-.11,.26l-.02,8.01c0,.22,.08,.43,.22,.62Z"/><path class="c" d="M364.91,278.24c-.29,.12-.48,.1-.55-.08l-.05-.13c-.06-.14,.03-.27,.28-.41,.24-.14,.4-.23,.47-.27,.63-.34,1.02-.7,1.18-1.06,.16-.37,.14-.8-.08-1.31l-1.79-4.28c-.02-.06-.06-.12-.12-.18l-8.81-6.23c-1.38-.98-2.52-1.39-3.41-1.25-.05,0-.13,.02-.25,.05s-.39,.08-.8,.18c-.15,.03-.26-.04-.33-.2-.07-.17-.04-.28,.09-.33l7.4-3.09c.15-.06,.26,0,.33,.17,.07,.17,.03,.29-.11,.35-.55,.3-.91,.52-1.08,.66-.37,.34-.47,.7-.3,1.1,.09,.21,.22,.37,.39,.49l7.29,5.17c.15,.1,.25,.16,.29,.19,.04,.03,.09,.03,.17,0,.07-.03,.14-.2,.19-.52l1.02-7.4c.02-.25,.04-.52,.08-.81,.03-.29,0-.56-.1-.81-.26-.63-.85-.82-1.76-.57-.33,.09-.52,.11-.56,.07-.05-.04-.09-.1-.12-.18-.06-.16-.02-.26,.12-.33l6.04-2.52c.12-.05,.21-.02,.26,.11,.05,.12,.07,.21,.04,.27-.02,.06-.06,.11-.11,.16-.06,.05-.12,.1-.19,.14s-.23,.15-.46,.32c-.54,.4-1,1.15-1.37,2.26-.04,.13-.06,.2-.06,.22l-1.44,10.94,2.01,4.83c.19,.47,.48,.78,.85,.94,.37,.16,.89,.15,1.55-.03,.66-.18,1.02-.21,1.07-.09l.06,.14c.07,.17-.04,.32-.33,.44l-6.98,2.91Z"/><path class="c" d="M398.85,267.21c-.17,.02-.27-.12-.32-.43-.05-.31,0-.57,.11-.75l10.45-18.72c.03-.05,.04-.11,.03-.18-.01-.07-.11-.09-.29-.06l-8.42,1.27c-.77,.12-1.35,.47-1.75,1.07-.14,.2-.23,.42-.28,.66s-.08,.64-.1,1.2c-.02,.56-.05,.87-.08,.91-.03,.05-.11,.08-.25,.1-.13,.02-.22,0-.27-.04l-.43-4.29c-.05-.31,.04-.49,.25-.52l15.06-2.27c.15-.02,.24,.11,.29,.41s.02,.54-.07,.73l-10.04,18.01c-.02,.05-.06,.14-.12,.26-.06,.12-.09,.22-.08,.29,.04,.25,.27,.34,.69,.28l9.78-1.47c.44-.07,.86-.32,1.26-.76,.4-.44,.65-.99,.75-1.65,.1-.66,.13-1.44,.07-2.34,0-.14,.09-.23,.25-.25,.16-.02,.24,.02,.26,.13l.1,.65,.36,4.34c0,.1,.02,.2,.03,.29,.05,.35-.05,.55-.31,.59l-16.91,2.54Z"/></g></g></g></svg>