<svg width="1849" height="610" viewBox="0 0 1849 610" fill="none" xmlns="http://www.w3.org/2000/svg">
<path d="M351.517 324.916H392.811V534.379H351.517V442.814H271.921V534.379H230.627V324.916H271.921V401.519H351.517V324.916ZM486.803 324.916H533.783L609.788 534.379H565.95L553.382 499.668H467.203L454.636 534.379H410.798L486.803 324.916ZM482.315 458.374H538.271L510.143 381.62L482.315 458.374ZM622.225 534.379V324.916H705.411C716.782 324.916 727.056 327.808 736.232 333.594C745.509 339.279 752.84 346.959 758.226 356.634C763.712 366.21 766.455 376.833 766.455 388.503C766.455 397.679 764.859 406.207 761.667 414.087C758.475 421.867 753.987 428.7 748.202 434.585C742.417 440.47 735.684 445.058 728.004 448.349L777.826 534.379H730.248L682.52 452.09H663.519V534.379H622.225ZM663.519 410.796H700.474C704.963 410.796 709.052 409.698 712.743 407.504C716.533 405.21 719.525 402.168 721.72 398.377C724.014 394.487 725.161 390.198 725.161 385.51C725.161 380.922 724.014 376.733 721.72 372.943C719.525 369.053 716.533 365.961 712.743 363.666C709.052 361.372 704.963 360.225 700.474 360.225H663.519V410.796ZM856.777 324.916H903.756L979.761 534.379H935.924L923.356 499.668H837.177L824.609 534.379H780.771L856.777 324.916ZM852.288 458.374H908.245L880.117 381.62L852.288 458.374ZM1077.75 538.269C1063.59 538.269 1050.27 535.476 1037.81 529.89C1025.34 524.205 1014.37 516.375 1004.89 506.401C995.514 496.426 988.133 484.906 982.747 471.839C977.46 458.673 974.817 444.609 974.817 429.647C974.817 414.586 977.46 400.522 982.747 387.455C988.133 374.289 995.514 362.769 1004.89 352.894C1014.37 342.92 1025.34 335.14 1037.81 329.554C1050.27 323.868 1063.59 321.026 1077.75 321.026C1094.71 321.026 1110.32 324.966 1124.58 332.845C1138.85 340.626 1150.67 351.049 1160.04 364.115L1123.24 384.014C1117.65 377.431 1110.92 372.195 1103.04 368.305C1095.16 364.315 1086.73 362.32 1077.75 362.32C1069.27 362.32 1061.3 364.065 1053.81 367.556C1046.33 371.048 1039.75 375.885 1034.07 382.069C1028.48 388.253 1024.09 395.385 1020.9 403.464C1017.71 411.544 1016.11 420.271 1016.11 429.647C1016.11 438.924 1017.71 447.651 1020.9 455.83C1024.09 463.91 1028.48 471.041 1034.07 477.225C1039.75 483.31 1046.33 488.147 1053.81 491.738C1061.3 495.229 1069.27 496.975 1077.75 496.975C1086.83 496.975 1095.26 494.98 1103.04 490.99C1110.92 487 1117.65 481.714 1123.24 475.131L1160.04 495.179C1150.67 508.146 1138.85 518.569 1124.58 526.449C1110.32 534.329 1094.71 538.269 1077.75 538.269ZM1335.19 324.916V366.21H1273.55V534.379H1232.26V366.21H1170.62V324.916H1335.19ZM1353.11 534.379V324.916H1485.67V366.21H1394.41V401.519H1465.62V442.814H1394.41V493.085H1485.67V534.379H1353.11ZM1506.83 534.379V324.916H1590.02C1601.39 324.916 1611.66 327.808 1620.84 333.594C1630.12 339.279 1637.45 346.959 1642.83 356.634C1648.32 366.21 1651.06 376.833 1651.06 388.503C1651.06 397.679 1649.47 406.207 1646.27 414.087C1643.08 421.867 1638.59 428.7 1632.81 434.585C1627.02 440.47 1620.29 445.058 1612.61 448.349L1662.43 534.379H1614.86L1567.13 452.09H1548.13V534.379H1506.83ZM1548.13 410.796H1585.08C1589.57 410.796 1593.66 409.698 1597.35 407.504C1601.14 405.21 1604.13 402.168 1606.33 398.377C1608.62 394.487 1609.77 390.198 1609.77 385.51C1609.77 380.922 1608.62 376.733 1606.33 372.943C1604.13 369.053 1601.14 365.961 1597.35 363.666C1593.66 361.372 1589.57 360.225 1585.08 360.225H1548.13V410.796ZM1753.95 538.269C1742.18 538.269 1730.91 536.424 1720.13 532.733C1709.46 529.043 1700.09 523.706 1692.01 516.724C1684.03 509.742 1678.29 501.463 1674.8 491.888L1713.55 477.525C1714.75 480.916 1717.24 484.108 1721.03 487.1C1724.82 489.993 1729.56 492.387 1735.25 494.282C1740.93 496.077 1747.16 496.975 1753.95 496.975C1760.43 496.975 1766.52 496.027 1772.2 494.132C1777.99 492.137 1782.62 489.394 1786.11 485.903C1789.71 482.412 1791.5 478.323 1791.5 473.635C1791.5 468.947 1789.66 465.057 1785.97 461.965C1782.27 458.872 1777.54 456.429 1771.75 454.633C1765.97 452.738 1760.03 451.292 1753.95 450.294C1738.89 448.1 1725.37 444.559 1713.4 439.672C1701.53 434.684 1692.16 427.852 1685.27 419.174C1678.39 410.397 1674.95 399.275 1674.95 385.81C1674.95 372.843 1678.59 361.522 1685.87 351.847C1693.25 342.172 1702.93 334.641 1714.9 329.255C1726.97 323.868 1739.98 321.175 1753.95 321.175C1765.52 321.175 1776.69 323.021 1787.46 326.711C1798.23 330.402 1807.61 335.738 1815.59 342.72C1823.67 349.702 1829.45 358.081 1832.94 367.856L1794.19 381.92C1793 378.528 1790.5 375.386 1786.71 372.494C1782.92 369.601 1778.19 367.257 1772.5 365.462C1766.81 363.666 1760.63 362.769 1753.95 362.769C1747.56 362.669 1741.48 363.617 1735.69 365.611C1730.01 367.606 1725.32 370.349 1721.63 373.84C1718.04 377.331 1716.24 381.321 1716.24 385.81C1716.24 391.695 1717.94 396.133 1721.33 399.126C1724.82 402.118 1729.41 404.262 1735.1 405.559C1740.78 406.856 1747.07 408.003 1753.95 409C1768.11 411.095 1781.18 414.835 1793.15 420.222C1805.12 425.508 1814.69 432.59 1821.87 441.467C1829.15 450.245 1832.8 460.967 1832.8 473.635C1832.8 486.601 1829.15 497.922 1821.87 507.598C1814.59 517.273 1804.97 524.803 1793 530.19C1781.03 535.576 1768.01 538.269 1753.95 538.269Z" fill="black"/>
<g clip-path="url(#clip0_54_6522)">
<path d="M153.507 311.322C159.319 313.61 165.26 315.619 170.912 318.247C185.491 325.024 198.24 334.397 209.128 346.268C211.515 348.871 211.521 350.763 208.819 353.051C201.233 359.475 193.572 365.813 185.949 372.181C183.908 373.888 181.837 375.563 179.852 377.344C178.362 378.679 177.156 378.822 175.672 377.233C166.083 366.963 154.632 359.661 141.079 355.778C138.661 355.085 138.606 353.509 139.1 351.456C142.105 338.991 145.048 326.514 148.01 314.043C148.22 313.146 148.387 312.237 148.573 311.335C150.217 311.335 151.862 311.335 153.507 311.335V311.322Z" fill="#DA9000"/>
<path d="M23.9223 427.297C30.1857 427.297 36.449 427.353 42.7124 427.272C45.3216 427.235 46.1624 428.299 46.385 430.92C49.0313 462.175 64.2538 485.126 93.5734 496.515C123.561 508.164 150.815 501.777 173.995 479.203C177.538 475.753 177.668 475.598 181.538 478.826C190.287 486.122 199.005 493.442 207.661 500.85C211.909 504.485 211.841 505.444 207.995 509.444C198.937 518.867 188.939 527.14 177.346 533.23C162.21 541.181 146.141 545.862 128.971 547.123C109.167 548.582 90.284 545.33 72.3102 537.224C42.0508 523.572 20.9298 501.035 8.79264 470.157C3.9081 457.73 1.2618 444.795 1.13814 431.403C1.10104 427.656 1.45347 427.316 5.13851 427.297C11.4019 427.266 17.6652 427.291 23.9347 427.291C23.9347 427.291 23.9347 427.297 23.9347 427.303L23.9223 427.297Z" fill="#DA9000"/>
<path d="M60.742 387.276C41.5377 387.227 26.9398 372.295 27.014 352.775C27.082 334.121 42.292 319.06 61.1995 319.27C80.2245 319.48 95.3727 334.362 94.7606 354.562C94.2413 371.775 81.6095 386.961 60.7482 387.27L60.742 387.276Z" fill="#DA9000"/>
</g>
<path d="M95.4319 287.882C83.685 287.882 72.4359 286.041 61.6846 282.357C51.0328 278.674 41.6751 273.348 33.6116 266.38C25.6476 259.411 19.9235 251.149 16.4393 241.592L55.1143 227.257C56.3089 230.641 58.7976 233.827 62.5805 236.813C66.3634 239.7 71.092 242.09 76.7663 243.981C82.4407 245.773 88.6625 246.669 95.4319 246.669C101.903 246.669 107.975 245.723 113.649 243.832C119.423 241.841 124.052 239.103 127.537 235.619C131.12 232.135 132.912 228.053 132.912 223.374C132.912 218.695 131.071 214.813 127.387 211.727C123.704 208.641 118.975 206.202 113.201 204.41C107.428 202.519 101.504 201.075 95.4319 200.08C80.3999 197.89 66.9109 194.356 54.965 189.478C43.1186 184.5 33.7609 177.681 26.892 169.02C20.0231 160.26 16.5886 149.16 16.5886 135.721C16.5886 122.779 20.2222 111.481 27.4893 101.824C34.8559 92.168 44.5123 84.652 56.4582 79.2763C68.5037 73.9006 81.4949 71.2128 95.4319 71.2128C106.98 71.2128 118.129 73.0544 128.881 76.7378C139.632 80.4211 148.99 85.747 156.954 92.7155C165.017 99.6839 170.791 108.046 174.275 117.802L135.6 131.838C134.406 128.454 131.917 125.318 128.134 122.431C124.351 119.544 119.622 117.205 113.948 115.413C108.274 113.621 102.102 112.725 95.4319 112.725C89.0607 112.625 82.9882 113.571 77.2143 115.562C71.54 117.553 66.8611 120.291 63.1778 123.775C59.594 127.259 57.8021 131.241 57.8021 135.721C57.8021 141.594 59.4945 146.024 62.8792 149.011C66.3634 151.997 70.9427 154.138 76.617 155.432C82.2913 156.726 88.5629 157.871 95.4319 158.866C109.568 160.957 122.609 164.69 134.555 170.066C146.501 175.342 156.058 182.41 163.225 191.27C170.492 200.03 174.126 210.732 174.126 223.374C174.126 236.316 170.492 247.615 163.225 257.271C155.958 266.927 146.351 274.443 134.406 279.819C122.46 285.195 109.468 287.882 95.4319 287.882ZM350.448 74.9459V116.159H288.926V284H247.712V116.159H186.191V74.9459H350.448ZM455.836 287.882C439.111 287.882 424.378 283.801 411.636 275.638C398.993 267.475 389.088 256.524 381.92 242.786C374.852 228.949 371.318 213.618 371.318 196.795V74.9459H412.532V196.795C412.532 205.854 414.224 214.166 417.609 221.732C420.993 229.298 425.921 235.37 432.392 239.949C438.862 244.429 446.677 246.669 455.836 246.669C465.094 246.669 472.908 244.429 479.28 239.949C485.75 235.47 490.628 229.447 493.913 221.881C497.198 214.315 498.841 205.953 498.841 196.795V74.9459H540.055V196.795C540.055 209.437 538.014 221.284 533.932 232.334C529.95 243.284 524.226 252.941 516.76 261.303C509.294 269.665 500.384 276.185 490.031 280.864C479.777 285.543 468.379 287.882 455.836 287.882ZM562.721 284V74.9459H632.008C646.443 74.9459 659.932 77.6835 672.475 83.1587C685.118 88.5344 696.217 96.0504 705.774 105.707C715.431 115.263 722.947 126.363 728.322 139.006C733.797 151.549 736.535 165.038 736.535 179.473C736.535 193.908 733.797 207.446 728.322 220.089C722.947 232.632 715.431 243.732 705.774 253.389C696.217 262.945 685.118 270.461 672.475 275.936C659.932 281.312 646.443 284 632.008 284H562.721ZM603.935 242.786H632.008C640.569 242.786 648.633 241.144 656.199 237.859C663.864 234.574 670.633 230.044 676.507 224.27C682.38 218.496 686.959 211.777 690.244 204.111C693.629 196.446 695.322 188.233 695.322 179.473C695.322 170.713 693.629 162.55 690.244 154.984C686.959 147.318 682.38 140.599 676.507 134.825C670.733 128.952 664.013 124.372 656.348 121.087C648.782 117.802 640.669 116.159 632.008 116.159H603.935V242.786ZM755.397 284V74.9459H796.61V284H755.397ZM925.055 287.882C910.919 287.882 897.629 285.095 885.185 279.52C872.741 273.846 861.791 266.031 852.334 256.076C842.877 246.121 835.46 234.623 830.084 221.582C824.709 208.442 822.021 194.405 822.021 179.473C822.021 164.54 824.709 150.554 830.084 137.513C835.46 124.372 842.877 112.824 852.334 102.87C861.791 92.9146 872.741 85.1497 885.185 79.5749C897.629 73.9006 910.919 71.0634 925.055 71.0634C939.29 71.0634 952.63 73.9006 965.074 79.5749C977.517 85.1497 988.468 92.9146 997.925 102.87C1007.38 112.824 1014.75 124.372 1020.03 137.513C1025.4 150.554 1028.09 164.54 1028.09 179.473C1028.09 194.405 1025.4 208.442 1020.03 221.582C1014.75 234.623 1007.38 246.121 997.925 256.076C988.468 266.031 977.517 273.846 965.074 279.52C952.63 285.095 939.29 287.882 925.055 287.882ZM925.055 246.669C933.516 246.669 941.48 244.927 948.947 241.443C956.413 237.859 962.983 232.981 968.657 226.809C974.332 220.637 978.762 213.519 981.947 205.455C985.232 197.392 986.875 188.731 986.875 179.473C986.875 170.215 985.232 161.554 981.947 153.49C978.762 145.327 974.332 138.21 968.657 132.137C962.983 125.965 956.413 121.137 948.947 117.653C941.48 114.069 933.516 112.277 925.055 112.277C916.593 112.277 908.629 114.069 901.163 117.653C893.697 121.137 887.126 125.965 881.452 132.137C875.778 138.309 871.298 145.427 868.013 153.49C864.827 161.554 863.234 170.215 863.234 179.473C863.234 188.731 864.827 197.442 868.013 205.605C871.298 213.668 875.778 220.786 881.452 226.958C887.126 233.031 893.697 237.859 901.163 241.443C908.629 244.927 916.593 246.669 925.055 246.669Z" fill="black"/>
<line x1="1056.58" y1="176.476" x2="1825.83" y2="176.476" stroke="black" stroke-width="1.50833"/>
<defs>
<clipPath id="clip0_54_6522">
<rect width="210.882" height="236.807" fill="white" transform="translate(0 310.709)"/>
</clipPath>
</defs>
</svg>
