<svg width="1519" height="742" viewBox="0 0 1519 742" fill="none" xmlns="http://www.w3.org/2000/svg">
<path d="M117.202 516.712C117.202 519.961 114.458 522.722 111.209 522.722C107.96 522.722 105.232 519.961 105.232 516.712C105.232 515.062 105.922 513.547 107.05 512.453L108.195 513.648C107.353 514.422 106.798 515.517 106.798 516.712C106.798 519.018 108.818 520.971 111.209 520.971C113.616 520.971 115.636 519.018 115.636 516.712C115.636 515.517 115.081 514.422 114.239 513.648L115.384 512.453C116.495 513.547 117.202 515.062 117.202 516.712ZM105.434 497.847L105.434 496.147L117 496.147L117 497.847L111.899 497.847L111.899 504.16L117 504.16L117 505.861L105.434 505.861L105.434 504.16L110.316 504.16L110.316 497.847L105.434 497.847ZM117 479.639L114.643 480.649L114.643 486.676L117 487.686L117 489.572L105.434 484.605L105.434 482.72L117 477.753L117 479.639ZM113.111 486.019L113.111 481.306L107.623 483.662L113.111 486.019ZM109.205 462.014C110.99 462.014 112.354 463.226 112.808 464.977L117 462.031L117 463.984L112.976 466.812L112.976 469.472L117 469.472L117 471.172L105.434 471.172L105.434 466.307C105.434 463.866 107 462.014 109.205 462.014ZM107.017 469.472L111.394 469.472L111.394 466.543C111.394 464.876 110.569 463.748 109.205 463.748C107.842 463.748 107.017 464.876 107.017 466.543L107.017 469.472ZM117 446.085L114.643 447.095L114.643 453.122L117 454.132L117 456.018L105.434 451.051L105.434 449.166L117 444.2L117 446.085ZM113.111 452.466L113.111 447.752L107.623 450.109L113.111 452.466ZM117.202 432.063C117.202 435.312 114.458 438.073 111.209 438.073C107.96 438.073 105.232 435.312 105.232 432.063C105.232 430.413 105.922 428.898 107.05 427.804L108.195 428.999C107.353 429.773 106.798 430.868 106.798 432.063C106.798 434.369 108.818 436.322 111.209 436.322C113.616 436.322 115.636 434.369 115.636 432.063C115.636 430.868 115.081 429.773 114.239 428.999L115.384 427.804C116.495 428.898 117.202 430.413 117.202 432.063ZM117 417.996L107.017 417.996L107.017 421.784L105.434 421.784L105.434 412.491L107.017 412.491L107.017 416.296L117 416.296L117 417.996ZM107.017 397.174L107.017 403.959L110.316 403.959L110.316 397.831L111.899 397.831L111.899 403.959L115.417 403.959L115.417 397.174L117 397.174L117 405.676L105.434 405.676L105.434 397.174L107.017 397.174ZM109.205 380.998C110.99 380.998 112.354 382.21 112.808 383.961L117 381.015L117 382.968L112.976 385.796L112.976 388.456L117 388.456L117 390.157L105.434 390.157L105.434 385.291C105.434 382.85 107 380.998 109.205 380.998ZM107.017 388.456L111.394 388.456L111.394 385.527C111.394 383.86 110.569 382.732 109.205 382.732C107.842 382.732 107.017 383.86 107.017 385.527L107.017 388.456ZM117.185 370.036C117.185 371.972 116.512 373.571 115.333 374.8L114.071 373.773C115.047 372.746 115.687 371.534 115.687 369.968C115.687 368.369 114.845 367.544 113.919 367.544C112.825 367.544 112.404 368.504 111.966 370.44C111.411 372.797 110.704 374.362 108.616 374.362C106.68 374.362 105.215 372.679 105.215 370.356C105.215 368.571 105.872 367.241 106.848 366.13L108.128 367.106C107.236 368.083 106.714 369.244 106.714 370.423C106.714 371.719 107.539 372.628 108.465 372.628C109.542 372.628 109.912 371.635 110.367 369.733C110.906 367.426 111.68 365.827 113.751 365.827C115.704 365.827 117.185 367.308 117.185 370.036Z" fill="black"/>
<line x1="128.5" y1="690" x2="128.5" y2="233" stroke="black"/>
</svg>
