<svg width="1519" height="742" viewBox="0 0 1519 742" fill="none" xmlns="http://www.w3.org/2000/svg">
<g clip-path="url(#clip0_2032_2)">
<line x1="589.328" y1="463.623" x2="951.328" y2="779.012" stroke="#8C8C8C" stroke-opacity="0.54"/>
<line x1="63.5718" y1="5.69306" x2="574.328" y2="450.623" stroke="#8C8C8C" stroke-opacity="0.54"/>
<line x1="672.692" y1="391.606" x2="761.697" y2="322.112" stroke="#8C8C8C" stroke-opacity="0.54"/>
<line x1="-274.303" y1="1111.9" x2="545.697" y2="486.602" stroke="#8C8C8C" stroke-opacity="0.54"/>
<path d="M551.343 473.331C550.46 473.98 550.373 474.801 551.085 475.771L551.542 476.394L553.786 474.746L554.339 475.499L552.095 477.147L557.069 483.922L556.186 484.57L551.212 477.795L550.444 478.358L549.892 477.606L550.659 477.042L550.191 476.405C548.799 474.509 549.731 473.29 550.628 472.631C551.193 472.216 551.806 471.989 552.482 471.938L552.62 472.795C552.189 472.844 551.763 473.023 551.343 473.331ZM558.799 470.843C559.682 470.194 560.878 469.851 562.131 469.978C563.376 470.067 564.725 470.903 565.641 472.392L559.025 477.25C559.76 478.069 560.593 478.505 561.537 478.547C562.481 478.589 563.342 478.335 564.124 477.761C565.166 476.996 565.743 476.082 565.851 475.045L566.737 475.13C566.677 476.444 566.001 477.586 564.698 478.543C563.641 479.319 562.474 479.641 561.178 479.545C559.886 479.424 558.794 478.756 557.891 477.525C555.999 474.949 557.091 472.097 558.799 470.843ZM559.373 471.624C558.096 472.495 557.349 474.603 558.494 476.526L564.313 472.253C563.642 471.431 562.81 470.995 561.855 470.938C560.9 470.882 560.068 471.114 559.373 471.624ZM573.021 472.432C572.413 472.878 571.728 473.159 570.961 473.298C569.432 473.552 567.574 472.933 566.373 471.297C565.767 470.472 565.449 469.614 565.393 468.719C565.286 466.904 566.065 465.508 567.281 464.615C568.599 463.648 570.295 463.561 571.492 464.219L571.564 464.166L570.384 462.559L571.267 461.911L576.794 469.439L575.911 470.087L574.732 468.48L574.659 468.533C574.929 469.872 574.338 471.465 573.021 472.432ZM572.509 471.583C573.276 471.019 573.755 470.245 573.944 469.259C574.148 468.262 573.889 467.272 573.177 466.302C572.465 465.332 571.597 464.788 570.585 464.684C569.588 464.57 568.706 464.794 567.938 465.358C567.171 465.921 566.678 466.706 566.474 467.703C566.27 468.699 566.529 469.69 567.241 470.66C567.954 471.63 568.821 472.174 569.833 472.277C570.845 472.381 571.742 472.146 572.509 471.583ZM576.626 457.798C576.771 457.692 576.873 457.617 576.956 457.579L577.572 458.418C577.489 458.457 577.377 458.517 577.247 458.612C575.756 459.707 575.409 461.633 576.453 463.54L579.387 467.535L578.504 468.184L572.977 460.656L573.86 460.008L575.337 462.02C575.042 461.345 575.014 460.608 575.212 459.817C575.425 459.014 575.888 458.34 576.626 457.798ZM576.333 454.025L577.216 453.377L584.731 463.612L583.847 464.26L576.333 454.025ZM584.218 452.18C585.101 451.531 586.297 451.188 587.549 451.316C588.795 451.404 590.144 452.24 591.059 453.729L584.443 458.587C585.179 459.406 586.011 459.842 586.955 459.884C587.9 459.926 588.761 459.672 589.543 459.098C590.585 458.333 591.162 457.419 591.269 456.382L592.156 456.467C592.096 457.781 591.419 458.923 590.116 459.88C589.06 460.656 587.893 460.978 586.597 460.882C585.305 460.761 584.213 460.093 583.309 458.863C581.417 456.286 582.509 453.434 584.218 452.18ZM584.792 452.961C583.515 453.832 582.768 455.94 583.912 457.863L589.731 453.59C589.061 452.768 588.228 452.332 587.274 452.275C586.319 452.219 585.486 452.451 584.792 452.961ZM594.843 446.807L594.289 447.57C593.435 447.105 592.619 447.147 591.881 447.689C591.056 448.295 590.838 449.212 591.359 449.922C591.795 450.515 592.519 450.652 593.517 450.342L594.393 450.078C596.238 449.526 597.351 449.555 598.169 450.67C598.669 451.35 598.802 452.077 598.571 452.826C598.33 453.56 597.86 454.194 597.166 454.704C595.819 455.693 594.235 455.72 593.085 454.67L593.66 453.936C594.555 454.638 595.711 454.636 596.638 453.956C597.564 453.275 597.999 452.198 597.351 451.315C596.873 450.664 596.044 450.537 594.83 450.916L593.778 451.243C592.282 451.695 591.2 451.465 590.52 450.538C590.105 449.974 589.982 449.351 590.136 448.681C590.29 448.011 590.688 447.429 591.325 446.962C592.468 446.122 593.729 446.11 594.843 446.807ZM600.851 442.396L600.297 443.159C599.444 442.694 598.628 442.736 597.889 443.278C597.064 443.884 596.847 444.801 597.367 445.51C597.803 446.104 598.527 446.241 599.526 445.931L600.401 445.667C602.246 445.115 603.359 445.144 604.178 446.259C604.677 446.939 604.81 447.666 604.579 448.414C604.339 449.148 603.869 449.783 603.174 450.293C601.828 451.282 600.243 451.309 599.094 450.259L599.669 449.525C600.563 450.227 601.72 450.224 602.646 449.544C603.573 448.864 604.008 447.787 603.359 446.904C602.881 446.253 602.052 446.126 600.838 446.505L599.786 446.832C598.291 447.284 597.208 447.053 596.528 446.127C596.113 445.562 595.99 444.94 596.144 444.269C596.298 443.599 596.696 443.018 597.333 442.55C598.477 441.711 599.737 441.698 600.851 442.396ZM608.379 434.44C609.769 433.419 611.409 433.195 612.943 433.919L612.285 435.025C611.194 434.601 610.169 434.752 609.17 435.486C608.475 435.996 608.044 436.714 607.851 437.635C607.658 438.556 607.894 439.453 608.553 440.35C609.201 441.233 609.986 441.726 610.923 441.819C611.859 441.911 612.663 441.7 613.357 441.19C614.356 440.456 614.822 439.513 614.74 438.369L615.993 438.073C616.22 439.778 615.595 441.173 614.119 442.257C613.525 442.693 612.836 442.998 612.055 443.148C611.289 443.288 610.467 443.2 609.601 442.901C608.724 442.586 608 442.026 607.395 441.201C605.471 438.58 606.671 435.694 608.379 434.44ZM616.852 428.264C617.011 428.147 617.152 428.066 617.235 428.027L618.053 429.142C617.97 429.18 617.844 429.251 617.684 429.368C616.946 429.91 616.504 430.613 616.345 431.488C616.185 432.363 616.37 433.252 616.874 434.151L619.67 437.959L618.483 438.83L612.956 431.302L614.143 430.431L615.599 432.414C615.308 431.714 615.265 430.988 615.474 430.211C615.683 429.434 616.142 428.785 616.852 428.264ZM621.878 424.528C622.79 423.859 623.958 423.536 625.224 423.653C626.47 423.742 627.837 424.632 628.769 426.175L622.458 430.809C623.779 432.245 625.615 432.257 627.062 431.194C627.989 430.514 628.54 429.686 628.704 428.696L629.867 428.823C629.781 430.133 629.095 431.261 627.777 432.229C627.111 432.717 626.393 433.044 625.598 433.205C624.025 433.491 622.188 432.901 620.966 431.236C619.042 428.616 620.185 425.772 621.878 424.528ZM622.633 425.556C622.025 426.002 621.62 426.634 621.418 427.451C621.219 428.243 621.337 429.07 621.799 429.912L627.053 426.054C626.443 425.343 625.703 424.973 624.849 424.932C623.994 424.891 623.256 425.099 622.633 425.556ZM636.043 426.16C635.088 426.861 633.964 427.151 632.672 427.031C631.395 426.899 630.302 426.231 629.409 425.015C628.517 423.798 628.206 422.556 628.463 421.298C628.735 420.029 629.348 419.044 630.304 418.342C631.563 417.418 633.155 417.34 634.198 417.911L634.285 417.848L633.233 416.414L634.405 415.554L639.932 423.081L638.76 423.942L637.707 422.509L637.621 422.573C637.853 423.739 637.303 425.235 636.043 426.16ZM632.934 425.657C633.871 425.75 634.688 425.528 635.397 425.007C636.107 424.486 636.563 423.773 636.741 422.862C636.919 421.951 636.684 421.055 636.025 420.157C635.366 419.26 634.581 418.767 633.659 418.664C632.737 418.561 631.919 418.783 631.21 419.303C630.5 419.824 630.044 420.538 629.852 421.459C629.673 422.37 629.909 423.267 630.568 424.164C631.227 425.062 632.012 425.555 632.934 425.657ZM639.443 411.855L640.176 412.854L638.584 414.023L642.144 418.873C642.495 419.35 642.897 419.412 643.375 419.061C643.65 418.859 643.897 418.589 644.105 418.235L644.828 419.22C644.608 419.648 644.281 420.022 643.846 420.341C642.79 421.117 641.907 421.007 641.174 420.009L637.411 414.884L636.369 415.649L635.635 414.65L636.678 413.885L635.264 411.96L636.437 411.099L637.85 413.024L639.443 411.855ZM638.818 408.147L640.005 407.276L640.855 408.434L639.668 409.305L638.818 408.147ZM640.806 410.854L641.993 409.983L647.52 417.51L646.333 418.382L640.806 410.854ZM649.554 404.431L650.784 403.528L653.01 413.479L652.012 414.212L643.184 409.108L644.4 408.215L651.388 412.331L649.554 404.431ZM649.986 399.947L651.173 399.076L652.024 400.234L650.837 401.105L649.986 399.947ZM651.974 402.654L653.161 401.783L658.688 409.31L657.501 410.182L651.974 402.654ZM658.188 398.091L658.922 399.09L657.329 400.259L660.89 405.109C661.241 405.587 661.643 405.648 662.12 405.298C662.395 405.096 662.642 404.825 662.851 404.472L663.573 405.456C663.354 405.885 663.027 406.259 662.592 406.577C661.535 407.353 660.653 407.244 659.92 406.245L656.157 401.12L655.115 401.886L654.381 400.887L655.423 400.121L654.01 398.196L655.182 397.335L656.596 399.261L658.188 398.091ZM667.292 400.654L665.458 392.754L666.688 391.851L668.915 401.802L669.689 405.466L668.502 406.338L667.655 402.392L659.088 397.431L660.304 396.538L667.292 400.654Z" fill="black"/>
</g>
<defs>
<clipPath id="clip0_2032_2">
<rect width="1519" height="742" fill="white"/>
</clipPath>
</defs>
</svg>
