<svg width="1519" height="742" viewBox="0 0 1519 742" fill="none" xmlns="http://www.w3.org/2000/svg">
<path d="M1486 131.877L1497.57 131.877L1497.57 137.365C1497.57 139.301 1496.37 140.665 1494.69 140.665C1493.47 140.665 1492.72 140.059 1492.13 139.015C1491.47 140.362 1490.43 141.136 1489.15 141.136C1487.3 141.136 1486 139.655 1486 137.584L1486 131.877ZM1492.75 133.577L1492.75 136.944C1492.75 138.106 1493.44 138.931 1494.4 138.931C1495.36 138.931 1496.07 138.106 1496.07 136.944L1496.07 133.577L1492.75 133.577ZM1487.5 133.577L1487.5 137.197C1487.5 138.493 1488.29 139.402 1489.4 139.402C1490.51 139.402 1491.3 138.493 1491.3 137.197L1491.3 133.577L1487.5 133.577ZM1493.79 157.306C1492.01 157.306 1490.65 156.094 1490.19 154.343L1486 157.289L1486 155.336L1490.02 152.508L1490.02 149.848L1486 149.848L1486 148.148L1497.57 148.148L1497.57 153.013C1497.57 155.454 1496 157.306 1493.79 157.306ZM1495.98 149.848L1491.61 149.848L1491.61 152.777C1491.61 154.444 1492.43 155.572 1493.79 155.572C1495.16 155.572 1495.98 154.444 1495.98 152.777L1495.98 149.848ZM1486 173.235L1488.36 172.225L1488.36 166.198L1486 165.188L1486 163.302L1497.57 168.269L1497.57 170.154L1486 175.121L1486 173.235ZM1489.89 166.855L1489.89 171.568L1495.38 169.212L1489.89 166.855ZM1486 181.904L1497.57 181.904L1497.57 183.604L1488.79 190.254L1497.57 190.254L1497.57 191.954L1486 191.954L1486 190.254L1494.77 183.604L1486 183.604L1486 181.904ZM1486 199.774L1497.57 199.774L1497.57 203.764C1497.57 207.501 1495.18 210.161 1491.79 210.161C1488.41 210.161 1486 207.501 1486 203.764L1486 199.774ZM1487.55 201.474L1487.55 203.865C1487.55 206.542 1489.3 208.41 1491.79 208.41C1494.27 208.41 1496.02 206.542 1496.02 203.865L1496.02 201.474L1487.55 201.474ZM1486 226.994L1497.57 226.994L1497.57 228.694L1486 228.694L1486 226.994ZM1486 236.319L1497.57 236.319L1497.57 240.309C1497.57 244.047 1495.18 246.707 1491.79 246.707C1488.41 246.707 1486 244.047 1486 240.309L1486 236.319ZM1487.55 238.02L1487.55 240.41C1487.55 243.087 1489.3 244.956 1491.79 244.956C1494.27 244.956 1496.02 243.087 1496.02 240.41L1496.02 238.02L1487.55 238.02ZM1495.98 262.325L1495.98 255.54L1492.68 255.54L1492.68 261.668L1491.1 261.668L1491.1 255.54L1487.58 255.54L1487.58 262.325L1486 262.325L1486 253.823L1497.57 253.823L1497.57 262.325L1495.98 262.325ZM1486 269.544L1497.57 269.544L1497.57 271.245L1488.79 277.894L1497.57 277.894L1497.57 279.595L1486 279.595L1486 277.894L1494.77 271.245L1486 271.245L1486 269.544ZM1486 290.428L1495.98 290.428L1495.98 286.64L1497.57 286.64L1497.57 295.933L1495.98 295.933L1495.98 292.128L1486 292.128L1486 290.428ZM1486 302.765L1497.57 302.765L1497.57 304.465L1486 304.465L1486 302.765ZM1486 315.104L1495.98 315.104L1495.98 311.316L1497.57 311.316L1497.57 320.609L1495.98 320.609L1495.98 316.804L1486 316.804L1486 315.104ZM1486 331.01L1490.53 331.01L1497.57 326.38L1497.57 328.434L1492.14 331.885L1497.57 335.387L1497.57 337.357L1490.53 332.761L1486 332.761L1486 331.01Z" fill="black"/>
<line x1="1472.5" y1="513" x2="1472.5" y2="56" stroke="black"/>
</svg>
