<svg width="1519" height="742" viewBox="0 0 1519 742" fill="none" xmlns="http://www.w3.org/2000/svg">
<g clip-path="url(#clip0_2011_2)">
<rect width="1519" height="742" fill="white"/>
<path d="M36.4546 97.319C31.3243 97.319 26.9649 92.9862 26.9649 87.8559C26.9649 82.7256 31.3243 78.4193 36.4546 78.4193C39.0596 78.4193 41.452 79.5092 43.1798 81.2902L41.2925 83.0977C40.0697 81.7686 38.3419 80.8914 36.4546 80.8914C32.8129 80.8914 29.7294 84.0813 29.7294 87.8559C29.7294 91.6571 32.8129 94.8469 36.4546 94.8469C38.3419 94.8469 40.0697 93.9697 41.2925 92.6406L43.1798 94.4481C41.452 96.2025 39.0596 97.319 36.4546 97.319ZM66.2414 78.7383H68.9261V97H66.2414V88.9457H56.2732V97H53.5884V78.7383H56.2732V86.447H66.2414V78.7383ZM94.9912 97L93.3963 93.2786H83.88L82.2851 97H79.308L87.1496 78.7383H90.1268L97.9684 97H94.9912ZM84.9167 90.8596H92.3596L88.6382 82.194L84.9167 90.8596ZM122.82 84.6926C122.82 87.5103 120.906 89.6634 118.141 90.3811L122.793 97H119.71L115.244 90.647H111.044V97H108.359V78.7383H116.041C119.896 78.7383 122.82 81.2104 122.82 84.6926ZM111.044 81.237V88.1483H115.669C118.301 88.1483 120.082 86.8458 120.082 84.6926C120.082 82.5395 118.301 81.237 115.669 81.237H111.044ZM147.971 97L146.376 93.2786H136.86L135.265 97H132.288L140.129 78.7383H143.107L150.948 97H147.971ZM137.896 90.8596H145.339L141.618 82.194L137.896 90.8596ZM170.111 97.319C164.981 97.319 160.621 92.9862 160.621 87.8559C160.621 82.7256 164.981 78.4193 170.111 78.4193C172.716 78.4193 175.108 79.5092 176.836 81.2902L174.949 83.0977C173.726 81.7686 171.998 80.8914 170.111 80.8914C166.469 80.8914 163.386 84.0813 163.386 87.8559C163.386 91.6571 166.469 94.8469 170.111 94.8469C171.998 94.8469 173.726 93.9697 174.949 92.6406L176.836 94.4481C175.108 96.2025 172.716 97.319 170.111 97.319ZM192.322 97V81.237H186.341V78.7383H201.014V81.237H195.007V97H192.322ZM225.199 81.237H214.486V86.447H224.162V88.9457H214.486V94.5013H225.199V97H211.775V78.7383H225.199V81.237ZM250.739 84.6926C250.739 87.5103 248.826 89.6634 246.061 90.3811L250.713 97H247.629L243.164 90.647H238.964V97H236.279V78.7383H243.961C247.815 78.7383 250.739 81.2104 250.739 84.6926ZM238.964 81.237V88.1483H243.589C246.221 88.1483 248.002 86.8458 248.002 84.6926C248.002 82.5395 246.221 81.237 243.589 81.237H238.964ZM268.049 97.2924C264.992 97.2924 262.467 96.2291 260.526 94.3684L262.148 92.3748C263.769 93.9165 265.683 94.9266 268.155 94.9266C270.681 94.9266 271.983 93.5975 271.983 92.1355C271.983 90.4077 270.468 89.7432 267.411 89.052C263.69 88.1749 261.217 87.0584 261.217 83.7623C261.217 80.7054 263.876 78.3928 267.544 78.3928C270.362 78.3928 272.462 79.4294 274.216 80.9712L272.674 82.9914C271.132 81.5826 269.298 80.7585 267.438 80.7585C265.391 80.7585 263.955 82.061 263.955 83.523C263.955 85.2243 265.524 85.8091 268.527 86.5268C272.169 87.3774 274.694 88.6002 274.694 91.8697C274.694 94.9532 272.355 97.2924 268.049 97.2924Z" fill="black"/>
<path d="M117.202 516.712C117.202 519.961 114.458 522.722 111.209 522.722C107.96 522.722 105.232 519.961 105.232 516.712C105.232 515.062 105.922 513.547 107.05 512.453L108.195 513.648C107.353 514.422 106.798 515.517 106.798 516.712C106.798 519.018 108.818 520.971 111.209 520.971C113.616 520.971 115.636 519.018 115.636 516.712C115.636 515.517 115.081 514.422 114.239 513.648L115.384 512.453C116.495 513.547 117.202 515.062 117.202 516.712ZM105.434 497.847L105.434 496.147L117 496.147L117 497.847L111.899 497.847L111.899 504.16L117 504.16L117 505.861L105.434 505.861L105.434 504.16L110.316 504.16L110.316 497.847L105.434 497.847ZM117 479.639L114.643 480.649L114.643 486.676L117 487.686L117 489.572L105.434 484.605L105.434 482.72L117 477.753L117 479.639ZM113.111 486.019L113.111 481.306L107.623 483.662L113.111 486.019ZM109.205 462.014C110.99 462.014 112.354 463.226 112.808 464.977L117 462.031L117 463.984L112.976 466.812L112.976 469.472L117 469.472L117 471.172L105.434 471.172L105.434 466.307C105.434 463.866 107 462.014 109.205 462.014ZM107.017 469.472L111.394 469.472L111.394 466.543C111.394 464.876 110.569 463.748 109.205 463.748C107.842 463.748 107.017 464.876 107.017 466.543L107.017 469.472ZM117 446.085L114.643 447.095L114.643 453.122L117 454.132L117 456.018L105.434 451.051L105.434 449.166L117 444.2L117 446.085ZM113.111 452.466L113.111 447.752L107.623 450.109L113.111 452.466ZM117.202 432.063C117.202 435.312 114.458 438.073 111.209 438.073C107.96 438.073 105.232 435.312 105.232 432.063C105.232 430.413 105.922 428.898 107.05 427.804L108.195 428.999C107.353 429.773 106.798 430.868 106.798 432.063C106.798 434.369 108.818 436.322 111.209 436.322C113.616 436.322 115.636 434.369 115.636 432.063C115.636 430.868 115.081 429.773 114.239 428.999L115.384 427.804C116.495 428.898 117.202 430.413 117.202 432.063ZM117 417.996L107.017 417.996L107.017 421.784L105.434 421.784L105.434 412.491L107.017 412.491L107.017 416.296L117 416.296L117 417.996ZM107.017 397.174L107.017 403.959L110.316 403.959L110.316 397.831L111.899 397.831L111.899 403.959L115.417 403.959L115.417 397.174L117 397.174L117 405.676L105.434 405.676L105.434 397.174L107.017 397.174ZM109.205 380.998C110.99 380.998 112.354 382.21 112.808 383.961L117 381.015L117 382.968L112.976 385.796L112.976 388.456L117 388.456L117 390.157L105.434 390.157L105.434 385.291C105.434 382.85 107 380.998 109.205 380.998ZM107.017 388.456L111.394 388.456L111.394 385.527C111.394 383.86 110.569 382.732 109.205 382.732C107.842 382.732 107.017 383.86 107.017 385.527L107.017 388.456ZM117.185 370.036C117.185 371.972 116.512 373.571 115.333 374.8L114.071 373.773C115.047 372.746 115.687 371.534 115.687 369.968C115.687 368.369 114.845 367.544 113.919 367.544C112.825 367.544 112.404 368.504 111.966 370.44C111.411 372.797 110.704 374.362 108.616 374.362C106.68 374.362 105.215 372.679 105.215 370.356C105.215 368.571 105.872 367.241 106.848 366.13L108.128 367.106C107.236 368.083 106.714 369.244 106.714 370.423C106.714 371.719 107.539 372.628 108.465 372.628C109.542 372.628 109.912 371.635 110.367 369.733C110.906 367.426 111.68 365.827 113.751 365.827C115.704 365.827 117.185 367.308 117.185 370.036Z" fill="black"/>
<path d="M1486 135.312L1497.57 131.508L1497.57 133.393L1488.74 136.238L1497.57 139.134L1497.57 141.019L1488.74 143.915L1497.57 146.76L1497.57 148.646L1486 144.841L1486 143.141L1495.21 140.094L1486 137.013L1486 135.312ZM1495.98 163.816L1495.98 157.031L1492.68 157.031L1492.68 163.159L1491.1 163.159L1491.1 157.031L1487.58 157.031L1487.58 163.816L1486 163.816L1486 155.314L1497.57 155.314L1497.57 163.816L1495.98 163.816ZM1486 171.035L1497.57 171.035L1497.57 176.523C1497.57 178.459 1496.37 179.823 1494.69 179.823C1493.47 179.823 1492.72 179.217 1492.13 178.173C1491.47 179.52 1490.43 180.294 1489.15 180.294C1487.3 180.294 1486 178.813 1486 176.742L1486 171.035ZM1492.75 172.735L1492.75 176.102C1492.75 177.264 1493.44 178.089 1494.4 178.089C1495.36 178.089 1496.07 177.264 1496.07 176.102L1496.07 172.735L1492.75 172.735ZM1487.5 172.735L1487.5 176.355C1487.5 177.651 1488.29 178.56 1489.4 178.56C1490.51 178.56 1491.3 177.651 1491.3 176.355L1491.3 172.735L1487.5 172.735ZM1485.81 191.447C1485.81 189.511 1486.49 187.912 1487.67 186.683L1488.93 187.71C1487.95 188.737 1487.31 189.949 1487.31 191.515C1487.31 193.114 1488.15 193.939 1489.08 193.939C1490.18 193.939 1490.6 192.979 1491.03 191.043C1491.59 188.686 1492.3 187.121 1494.38 187.121C1496.32 187.121 1497.78 188.804 1497.78 191.127C1497.78 192.912 1497.13 194.242 1496.15 195.353L1494.87 194.377C1495.76 193.4 1496.29 192.238 1496.29 191.06C1496.29 189.764 1495.46 188.855 1494.54 188.855C1493.46 188.855 1493.09 189.848 1492.63 191.75C1492.09 194.057 1491.32 195.656 1489.25 195.656C1487.3 195.656 1485.81 194.175 1485.81 191.447ZM1486 202.645L1497.57 202.645L1497.57 204.345L1486 204.345L1486 202.645ZM1486 214.984L1495.98 214.984L1495.98 211.196L1497.57 211.196L1497.57 220.489L1495.98 220.489L1495.98 216.684L1486 216.684L1486 214.984ZM1495.98 235.805L1495.98 229.021L1492.68 229.021L1492.68 235.149L1491.1 235.149L1491.1 229.021L1487.58 229.021L1487.58 235.805L1486 235.805L1486 227.304L1497.57 227.304L1497.57 235.805L1495.98 235.805ZM1485.81 246.964C1485.81 245.028 1486.49 243.429 1487.67 242.2L1488.93 243.227C1487.95 244.254 1487.31 245.466 1487.31 247.032C1487.31 248.631 1488.15 249.456 1489.08 249.456C1490.18 249.456 1490.6 248.496 1491.03 246.56C1491.59 244.203 1492.3 242.638 1494.38 242.638C1496.32 242.638 1497.78 244.321 1497.78 246.644C1497.78 248.429 1497.13 249.759 1496.15 250.87L1494.87 249.894C1495.76 248.917 1496.29 247.756 1496.29 246.577C1496.29 245.281 1495.46 244.372 1494.54 244.372C1493.46 244.372 1493.09 245.365 1492.63 247.267C1492.09 249.574 1491.32 251.173 1489.25 251.173C1487.3 251.173 1485.81 249.692 1485.81 246.964Z" fill="black"/>
<line x1="128.5" y1="690" x2="128.5" y2="233" stroke="black"/>
<line x1="1472.5" y1="513" x2="1472.5" y2="56" stroke="black"/>
<line x1="219.459" y1="851.946" x2="1553.24" y2="-29.8473" stroke="#8C8C8C"/>
<line x1="554.648" y1="-20.377" x2="1381.61" y2="699.987" stroke="#8C8C8C"/>
<rect x="1207" y="184.614" width="127.19" height="21.9753" transform="rotate(-33.7232 1207 184.614)" fill="white"/>
<path d="M1219.47 183.989C1218.56 184.598 1218.44 185.415 1219.1 186.415L1219.53 187.058L1221.85 185.512L1222.37 186.289L1220.05 187.834L1224.72 194.825L1223.81 195.433L1219.14 188.443L1218.35 188.971L1217.83 188.194L1218.62 187.666L1218.18 187.009C1216.88 185.052 1217.86 183.876 1218.79 183.258C1219.37 182.869 1219.99 182.669 1220.67 182.649L1220.77 183.511C1220.34 183.541 1219.9 183.7 1219.47 183.989ZM1227.03 181.837C1227.94 181.228 1229.15 180.939 1230.4 181.122C1231.64 181.266 1232.95 182.162 1233.8 183.691L1226.97 188.247C1227.67 189.099 1228.48 189.571 1229.42 189.656C1230.36 189.74 1231.23 189.525 1232.04 188.987C1233.12 188.269 1233.73 187.382 1233.89 186.351L1234.77 186.475C1234.65 187.785 1233.92 188.896 1232.58 189.793C1231.49 190.521 1230.31 190.791 1229.02 190.637C1227.73 190.458 1226.67 189.742 1225.82 188.472C1224.05 185.813 1225.27 183.013 1227.03 181.837ZM1227.57 182.643C1226.26 183.456 1225.41 185.529 1226.47 187.5L1232.48 183.492C1231.84 182.641 1231.03 182.168 1230.08 182.069C1229.13 181.97 1228.29 182.165 1227.57 182.643ZM1241.17 184.061C1240.54 184.479 1239.84 184.729 1239.07 184.834C1237.53 185.019 1235.7 184.318 1234.58 182.63C1234.01 181.779 1233.73 180.907 1233.71 180.01C1233.69 178.192 1234.53 176.832 1235.78 175.994C1237.14 175.087 1238.84 175.076 1240.01 175.788L1240.08 175.738L1238.98 174.08L1239.89 173.472L1245.07 181.239L1244.16 181.847L1243.05 180.189L1242.98 180.239C1243.19 181.589 1242.53 183.153 1241.17 184.061ZM1240.69 183.189C1241.49 182.661 1242 181.908 1242.23 180.932C1242.48 179.946 1242.27 178.944 1241.6 177.944C1240.93 176.943 1240.09 176.361 1239.08 176.212C1238.09 176.053 1237.2 176.238 1236.41 176.766C1235.62 177.295 1235.09 178.057 1234.84 179.043C1234.59 180.03 1234.81 181.031 1235.47 182.032C1236.14 183.032 1236.98 183.615 1237.99 183.764C1239 183.912 1239.9 183.718 1240.69 183.189ZM1245.42 169.603C1245.57 169.503 1245.68 169.433 1245.76 169.398L1246.34 170.264C1246.26 170.299 1246.14 170.354 1246.01 170.444C1244.47 171.471 1244.04 173.379 1244.99 175.331L1247.75 179.454L1246.83 180.062L1241.65 172.294L1242.56 171.686L1243.95 173.763C1243.68 173.075 1243.69 172.338 1243.92 171.556C1244.17 170.764 1244.66 170.111 1245.42 169.603ZM1245.3 165.821L1246.21 165.212L1253.26 175.773L1252.35 176.381L1245.3 165.821ZM1253.26 164.33C1254.17 163.721 1255.38 163.432 1256.63 163.615C1257.87 163.759 1259.18 164.655 1260.02 166.184L1253.2 170.74C1253.9 171.592 1254.71 172.064 1255.65 172.148C1256.59 172.233 1257.46 172.018 1258.27 171.479C1259.34 170.762 1259.96 169.875 1260.12 168.843L1261 168.967C1260.88 170.277 1260.15 171.389 1258.81 172.286C1257.72 173.014 1256.54 173.284 1255.25 173.13C1253.96 172.951 1252.9 172.235 1252.05 170.965C1250.28 168.306 1251.5 165.506 1253.26 164.33ZM1253.8 165.136C1252.48 165.949 1251.64 168.021 1252.7 169.993L1258.7 165.985C1258.07 165.134 1257.26 164.661 1256.31 164.562C1255.36 164.463 1254.51 164.658 1253.8 165.136ZM1264.11 159.437L1263.53 160.175C1262.69 159.672 1261.88 159.678 1261.12 160.186C1260.26 160.755 1260.01 161.661 1260.49 162.393C1260.9 163.006 1261.62 163.175 1262.63 162.91L1263.52 162.685C1265.39 162.216 1266.5 162.295 1267.26 163.445C1267.73 164.147 1267.83 164.88 1267.57 165.617C1267.3 166.339 1266.8 166.952 1266.08 167.431C1264.69 168.358 1263.11 168.314 1262.01 167.214L1262.61 166.506C1263.48 167.248 1264.63 167.297 1265.59 166.659C1266.54 166.021 1267.03 164.965 1266.42 164.054C1265.97 163.381 1265.15 163.217 1263.92 163.542L1262.85 163.822C1261.34 164.206 1260.27 163.928 1259.63 162.972C1259.24 162.389 1259.14 161.762 1259.33 161.099C1259.51 160.436 1259.94 159.873 1260.59 159.435C1261.77 158.647 1263.03 158.691 1264.11 159.437ZM1270.31 155.299L1269.73 156.037C1268.89 155.534 1268.08 155.54 1267.32 156.048C1266.46 156.616 1266.21 157.523 1266.69 158.255C1267.1 158.868 1267.82 159.036 1268.83 158.772L1269.72 158.547C1271.59 158.078 1272.7 158.157 1273.46 159.307C1273.93 160.009 1274.03 160.741 1273.77 161.479C1273.5 162.201 1273 162.814 1272.28 163.293C1270.89 164.22 1269.31 164.176 1268.21 163.076L1268.81 162.368C1269.68 163.11 1270.83 163.159 1271.79 162.521C1272.74 161.883 1273.23 160.827 1272.62 159.915C1272.17 159.243 1271.35 159.079 1270.12 159.404L1269.05 159.683C1267.54 160.068 1266.47 159.789 1265.83 158.833C1265.44 158.251 1265.34 157.623 1265.53 156.961C1265.71 156.298 1266.13 155.735 1266.79 155.296C1267.97 154.509 1269.23 154.553 1270.31 155.299ZM1278.19 147.688C1279.62 146.731 1281.27 146.58 1282.77 147.372L1282.07 148.448C1280.99 147.975 1279.96 148.081 1278.93 148.768C1278.22 149.247 1277.75 149.945 1277.52 150.856C1277.29 151.768 1277.48 152.674 1278.1 153.601C1278.71 154.512 1279.47 155.039 1280.4 155.173C1281.33 155.307 1282.14 155.132 1282.86 154.654C1283.89 153.966 1284.4 153.044 1284.37 151.898L1285.63 151.659C1285.78 153.372 1285.1 154.737 1283.57 155.754C1282.96 156.163 1282.26 156.437 1281.47 156.552C1280.7 156.657 1279.88 156.533 1279.03 156.195C1278.17 155.842 1277.47 155.25 1276.9 154.398C1275.1 151.695 1276.43 148.865 1278.19 147.688ZM1286.93 141.897C1287.09 141.788 1287.24 141.713 1287.32 141.678L1288.09 142.828C1288.01 142.863 1287.88 142.928 1287.71 143.037C1286.95 143.546 1286.48 144.229 1286.28 145.095C1286.08 145.962 1286.23 146.859 1286.69 147.78L1289.31 151.708L1288.09 152.526L1282.9 144.759L1284.13 143.941L1285.49 145.987C1285.23 145.275 1285.22 144.548 1285.47 143.781C1285.71 143.014 1286.2 142.386 1286.93 141.897ZM1292.12 138.39C1293.06 137.762 1294.24 137.493 1295.5 137.666C1296.74 137.81 1298.07 138.76 1298.93 140.344L1292.42 144.691C1293.67 146.185 1295.51 146.278 1297 145.281C1297.96 144.643 1298.54 143.841 1298.75 142.859L1299.91 143.038C1299.76 144.343 1299.03 145.439 1297.67 146.347C1296.98 146.805 1296.25 147.1 1295.45 147.225C1293.86 147.44 1292.05 146.768 1290.91 145.051C1289.1 142.347 1290.37 139.557 1292.12 138.39ZM1292.83 139.451C1292.2 139.87 1291.77 140.483 1291.53 141.29C1291.29 142.072 1291.37 142.904 1291.8 143.765L1297.22 140.146C1296.64 139.409 1295.92 139.006 1295.07 138.927C1294.22 138.847 1293.47 139.022 1292.83 139.451ZM1306.2 140.654C1305.21 141.312 1304.08 141.552 1302.79 141.373C1301.52 141.184 1300.46 140.468 1299.62 139.213C1298.78 137.958 1298.53 136.703 1298.84 135.458C1299.17 134.202 1299.83 133.246 1300.81 132.588C1302.11 131.72 1303.71 131.714 1304.72 132.331L1304.81 132.271L1303.82 130.793L1305.03 129.985L1310.22 137.752L1309.01 138.56L1308.02 137.081L1307.93 137.141C1308.11 138.316 1307.5 139.786 1306.2 140.654ZM1303.11 140.013C1304.04 140.147 1304.87 139.962 1305.6 139.474C1306.34 138.985 1306.82 138.292 1307.04 137.391C1307.26 136.489 1307.07 135.582 1306.45 134.656C1305.83 133.73 1305.07 133.203 1304.15 133.059C1303.23 132.915 1302.41 133.1 1301.67 133.588C1300.94 134.077 1300.46 134.769 1300.22 135.681C1300 136.583 1300.2 137.489 1300.82 138.415C1301.43 139.341 1302.2 139.869 1303.11 140.013ZM1310.23 126.515L1310.92 127.546L1309.28 128.643L1312.62 133.647C1312.95 134.14 1313.35 134.219 1313.84 133.89C1314.12 133.701 1314.38 133.442 1314.6 133.098L1315.28 134.114C1315.04 134.532 1314.7 134.891 1314.25 135.19C1313.16 135.918 1312.29 135.769 1311.6 134.738L1308.07 129.451L1306.99 130.168L1306.3 129.138L1307.38 128.42L1306.05 126.433L1307.26 125.626L1308.59 127.612L1310.23 126.515ZM1309.77 122.783L1311 121.966L1311.8 123.161L1310.57 123.978L1309.77 122.783ZM1311.64 125.577L1312.86 124.759L1318.05 132.527L1316.82 133.344L1311.64 125.577ZM1320.67 119.551L1321.94 118.704L1323.71 128.745L1322.68 129.433L1314.09 123.939L1315.35 123.101L1322.14 127.525L1320.67 119.551ZM1321.3 115.091L1322.52 114.274L1323.32 115.469L1322.1 116.286L1321.3 115.091ZM1323.16 117.884L1324.39 117.067L1329.57 124.834L1328.35 125.652L1323.16 117.884ZM1329.58 113.604L1330.26 114.635L1328.62 115.732L1331.96 120.736C1332.29 121.229 1332.69 121.308 1333.18 120.979C1333.46 120.79 1333.72 120.53 1333.95 120.187L1334.63 121.202C1334.39 121.621 1334.04 121.98 1333.6 122.279C1332.5 123.007 1331.63 122.858 1330.94 121.827L1327.41 116.539L1326.33 117.257L1325.65 116.226L1326.72 115.509L1325.4 113.522L1326.61 112.714L1327.93 114.701L1329.58 113.604ZM1338.56 116.571L1337.08 108.597L1338.35 107.75L1340.12 117.791L1340.73 121.486L1339.51 122.304L1338.84 118.324L1330.5 112.984L1331.76 112.147L1338.56 116.571Z" fill="black"/>
</g>
<defs>
<clipPath id="clip0_2011_2">
<rect width="1519" height="742" fill="white"/>
</clipPath>
</defs>
</svg>
