<svg width="1519" height="742" viewBox="0 0 1519 742" fill="none" xmlns="http://www.w3.org/2000/svg">
<line x1="121.725" y1="674.857" x2="121.725" y2="211" stroke="black"/>
<path d="M110.202 418.441C110.202 421.69 107.458 424.451 104.209 424.451C100.96 424.451 98.2323 421.69 98.2322 418.441C98.2322 416.791 98.9225 415.276 100.05 414.181L101.195 415.377C100.353 416.151 99.7979 417.245 99.7979 418.441C99.7979 420.747 101.818 422.7 104.209 422.7C106.616 422.7 108.636 420.747 108.636 418.441C108.636 417.245 108.081 416.151 107.239 415.377L108.384 414.181C109.495 415.275 110.202 416.791 110.202 418.441ZM98.4343 399.576L98.4343 397.875L110 397.875L110 399.576L104.899 399.576L104.899 405.889L110 405.889L110 407.589L98.4343 407.589L98.4343 405.889L103.316 405.889L103.316 399.576L98.4343 399.576ZM110 381.367L107.643 382.377L107.643 388.404L110 389.415L110 391.3L98.4343 386.334L98.4343 384.448L110 379.482L110 381.367ZM106.111 387.748L106.111 383.034L100.623 385.391L106.111 387.748ZM102.205 363.743C103.99 363.743 105.354 364.955 105.808 366.706L110 363.759L110 365.712L105.976 368.541L105.976 371.2L110 371.2L110 372.901L98.4343 372.901L98.4343 368.035C98.4343 365.594 99.9999 363.743 102.205 363.743ZM100.017 371.2L104.394 371.2L104.394 368.271C104.394 366.605 103.569 365.477 102.205 365.477C100.842 365.477 100.017 366.605 100.017 368.271L100.017 371.2ZM110 347.813L107.643 348.824L107.643 354.851L110 355.861L110 357.746L98.4343 352.78L98.4343 350.894L110 345.928L110 347.813ZM106.111 354.194L106.111 349.48L100.623 351.837L106.111 354.194ZM110.202 333.791C110.202 337.041 107.458 339.802 104.209 339.802C100.96 339.802 98.2322 337.041 98.2322 333.791C98.2322 332.142 98.9225 330.626 100.05 329.532L101.195 330.727C100.353 331.502 99.7979 332.596 99.7979 333.791C99.7979 336.098 101.818 338.051 104.209 338.051C106.616 338.051 108.636 336.098 108.636 333.791C108.636 332.596 108.081 331.502 107.239 330.727L108.384 329.532C109.495 330.626 110.202 332.142 110.202 333.791ZM110 319.724L100.017 319.724L100.017 323.512L98.4343 323.512L98.4343 314.219L100.017 314.219L100.017 318.024L110 318.024L110 319.724ZM100.017 298.903L100.017 305.687L103.316 305.687L103.316 299.559L104.899 299.559L104.899 305.687L108.417 305.687L108.417 298.903L110 298.903L110 307.404L98.4343 307.404L98.4343 298.903L100.017 298.903ZM102.205 282.727C103.99 282.727 105.354 283.939 105.808 285.69L110 282.744L110 284.697L105.976 287.525L105.976 290.185L110 290.185L110 291.885L98.4343 291.885L98.4343 287.02C98.4343 284.579 99.9999 282.727 102.205 282.727ZM100.017 290.185L104.394 290.185L104.394 287.255C104.394 285.589 103.569 284.461 102.205 284.461C100.842 284.461 100.017 285.589 100.017 287.255L100.017 290.185ZM110.185 271.764C110.185 273.7 109.512 275.299 108.333 276.528L107.071 275.502C108.047 274.475 108.687 273.262 108.687 271.697C108.687 270.097 107.845 269.273 106.919 269.273C105.825 269.273 105.404 270.232 104.966 272.168C104.411 274.525 103.704 276.091 101.616 276.091C99.6801 276.091 98.2154 274.407 98.2154 272.084C98.2154 270.299 98.872 268.969 99.8484 267.858L101.128 268.835C100.236 269.811 99.7137 270.973 99.7137 272.151C99.7137 273.448 100.539 274.357 101.465 274.357C102.542 274.357 102.912 273.363 103.367 271.461C103.906 269.155 104.68 267.555 106.751 267.555C108.704 267.555 110.185 269.037 110.185 271.764Z" fill="black"/>
</svg>
