<svg width="1519" height="742" viewBox="0 0 1519 742" fill="none" xmlns="http://www.w3.org/2000/svg">
<line x1="1458.82" y1="514.857" x2="1458.82" y2="50.9999" stroke="black"/>
<path d="M1474 168.877L1485.57 168.877L1485.57 174.365C1485.57 176.301 1484.37 177.665 1482.69 177.665C1481.47 177.665 1480.72 177.059 1480.13 176.015C1479.47 177.362 1478.43 178.136 1477.15 178.136C1475.3 178.136 1474 176.655 1474 174.584L1474 168.877ZM1480.75 170.577L1480.75 173.944C1480.75 175.106 1481.44 175.931 1482.4 175.931C1483.36 175.931 1484.07 175.106 1484.07 173.944L1484.07 170.577L1480.75 170.577ZM1475.5 170.577L1475.5 174.197C1475.5 175.493 1476.29 176.402 1477.4 176.402C1478.51 176.402 1479.3 175.493 1479.3 174.197L1479.3 170.577L1475.5 170.577ZM1481.79 194.306C1480.01 194.306 1478.65 193.094 1478.19 191.343L1474 194.289L1474 192.336L1478.02 189.508L1478.02 186.848L1474 186.848L1474 185.148L1485.57 185.148L1485.57 190.013C1485.57 192.454 1484 194.306 1481.79 194.306ZM1483.98 186.848L1479.61 186.848L1479.61 189.777C1479.61 191.444 1480.43 192.572 1481.79 192.572C1483.16 192.572 1483.98 191.444 1483.98 189.777L1483.98 186.848ZM1474 210.235L1476.36 209.225L1476.36 203.198L1474 202.188L1474 200.302L1485.57 205.269L1485.57 207.154L1474 212.121L1474 210.235ZM1477.89 203.855L1477.89 208.568L1483.38 206.212L1477.89 203.855ZM1474 218.904L1485.57 218.904L1485.57 220.604L1476.79 227.254L1485.57 227.254L1485.57 228.954L1474 228.954L1474 227.254L1482.77 220.604L1474 220.604L1474 218.904ZM1474 236.774L1485.57 236.774L1485.57 240.764C1485.57 244.501 1483.18 247.161 1479.79 247.161C1476.41 247.161 1474 244.501 1474 240.764L1474 236.774ZM1475.55 238.474L1475.55 240.865C1475.55 243.542 1477.3 245.41 1479.79 245.41C1482.27 245.41 1484.02 243.542 1484.02 240.865L1484.02 238.474L1475.55 238.474ZM1474 263.994L1485.57 263.994L1485.57 265.694L1474 265.694L1474 263.994ZM1474 273.319L1485.57 273.319L1485.57 277.309C1485.57 281.047 1483.18 283.707 1479.79 283.707C1476.41 283.707 1474 281.047 1474 277.309L1474 273.319ZM1475.55 275.02L1475.55 277.41C1475.55 280.087 1477.3 281.956 1479.79 281.956C1482.27 281.956 1484.02 280.087 1484.02 277.41L1484.02 275.02L1475.55 275.02ZM1483.98 299.325L1483.98 292.54L1480.68 292.54L1480.68 298.668L1479.1 298.668L1479.1 292.54L1475.58 292.54L1475.58 299.325L1474 299.325L1474 290.823L1485.57 290.823L1485.57 299.325L1483.98 299.325ZM1474 306.544L1485.57 306.544L1485.57 308.245L1476.79 314.894L1485.57 314.894L1485.57 316.595L1474 316.595L1474 314.894L1482.77 308.245L1474 308.245L1474 306.544ZM1474 327.428L1483.98 327.428L1483.98 323.64L1485.57 323.64L1485.57 332.933L1483.98 332.933L1483.98 329.128L1474 329.128L1474 327.428ZM1474 339.765L1485.57 339.765L1485.57 341.465L1474 341.465L1474 339.765ZM1474 352.104L1483.98 352.104L1483.98 348.316L1485.57 348.316L1485.57 357.609L1483.98 357.609L1483.98 353.804L1474 353.804L1474 352.104ZM1474 368.01L1478.53 368.01L1485.57 363.38L1485.57 365.434L1480.14 368.885L1485.57 372.387L1485.57 374.357L1478.53 369.761L1474 369.761L1474 368.01Z" fill="black"/>
</svg>
