<svg width="164" height="164" viewBox="0 0 164 164" fill="none" xmlns="http://www.w3.org/2000/svg">
<path d="M68.38 156.428C68.2972 156.838 68.1672 157.153 67.99 157.373C67.8019 157.601 67.5829 157.746 67.3332 157.809C67.0743 157.871 66.8037 157.873 66.5213 157.816C66.239 157.759 65.995 157.653 65.7894 157.497C65.5838 157.342 65.4384 157.123 65.3533 156.841C65.2664 156.567 65.2643 156.225 65.3471 155.816C65.428 155.415 65.5626 155.101 65.7507 154.873C65.937 154.655 66.1559 154.51 66.4075 154.437C66.6573 154.374 66.9234 154.371 67.2057 154.428C67.488 154.485 67.7366 154.592 67.9513 154.749C68.1551 154.913 68.3004 155.132 68.3874 155.406C68.4634 155.687 68.4609 156.027 68.38 156.428Z" fill="black"/>
<path d="M48.6948 144.112C51.0436 145.335 51.997 148.393 50.7546 150.778C49.5123 153.164 46.4668 154.124 44.1181 152.901C42.9437 152.289 42.1133 151.229 41.7406 150.013L42.7433 149.687C43.0203 150.664 43.6544 151.528 44.5815 152.011C46.4111 152.964 48.7932 152.161 49.778 150.27C50.7694 148.366 50.0609 145.954 48.2314 145.002C47.3042 144.519 46.2324 144.495 45.2731 144.828L44.9655 143.82C46.1687 143.441 47.5205 143.5 48.6948 144.112Z" fill="black"/>
<path d="M37.3101 136.559C39.3604 138.235 39.6708 141.423 37.9684 143.506C36.266 145.588 33.0888 145.908 31.0385 144.232C28.9774 142.547 28.6798 139.387 30.3822 137.305C32.0846 135.222 35.249 134.874 37.3101 136.559ZM36.675 137.336C35.0779 136.031 32.5931 136.34 31.2347 138.002C29.8851 139.653 30.0765 142.149 31.6736 143.455C33.2707 144.76 35.7663 144.46 37.1159 142.809C38.4743 141.147 38.2721 138.642 36.675 137.336Z" fill="black"/>
<path d="M29.1881 129.233L21.7125 135.216L21.0332 134.367L23.406 124.863L17.3232 129.732L16.6439 128.883L24.1196 122.9L24.7989 123.749L22.4261 133.252L28.5089 128.384L29.1881 129.233Z" fill="black"/>
<path d="M19.4961 115.248L11.9202 119.197L13.4085 122.052L12.4939 122.529L9.01472 115.855L9.92927 115.378L11.4176 118.233L18.9936 114.284L19.4961 115.248Z" fill="black"/>
<path d="M13.0192 98.4971L11.2048 100.033L12.7117 105.154L15.069 105.463L15.4034 106.6L5.02565 105.251L4.69123 104.115L12.6848 97.3605L13.0192 98.4971ZM11.5964 105.018L10.3413 100.752L6.14006 104.299L11.5964 105.018Z" fill="black"/>
<path d="M11.5026 87.37C11.7311 90.0083 9.66258 92.4537 6.98267 92.6858C4.30277 92.9179 1.85849 90.8633 1.63 88.2251C1.51575 86.9059 1.96534 85.6359 2.79093 84.6691L3.60449 85.3401C2.92869 86.0981 2.53956 87.0971 2.62975 88.1385C2.80774 90.1935 4.76318 91.7729 6.88767 91.5889C9.02604 91.4037 10.6808 89.5116 10.5028 87.4566C10.4126 86.4152 9.85756 85.498 9.0615 84.8674L9.74758 84.0666C10.7132 84.8783 11.3884 86.0509 11.5026 87.37Z" fill="black"/>
<path d="M11.4104 75.4443L2.91163 74.5693L2.58191 77.7719L1.55596 77.6663L2.32673 70.1796L3.35269 70.2852L3.02296 73.4879L11.5217 74.3629L11.4104 75.4443Z" fill="black"/>
<path d="M17.1987 53.6248C16.253 55.7668 14.0148 56.5917 11.7963 55.6122L6.67077 53.3492L7.10985 52.3547L12.2354 54.6177C13.9184 55.3608 15.6067 54.7806 16.2934 53.2251C16.9802 51.6696 16.2714 50.0312 14.5884 49.2881L9.46288 47.0252L9.90196 46.0307L15.0275 48.2936C17.246 49.2731 18.1444 51.4828 17.1987 53.6248Z" fill="black"/>
<path d="M23.8583 41.6803C22.9559 42.971 21.7768 43.6602 20.449 43.9053L20.1436 42.8585C21.2693 42.6591 22.3046 42.1756 23.0713 41.079C23.9178 39.8682 23.6865 38.7882 22.9783 38.293C22.1445 37.7101 21.2941 38.2209 20.016 39.368C18.5484 40.6888 17.3624 41.3392 16.0031 40.3888C14.7466 39.5104 14.5469 37.7041 15.6011 36.1964C16.4156 35.0313 17.4795 34.4826 18.6451 34.2261L18.9586 35.2616C17.8751 35.4734 16.9551 35.9866 16.3801 36.8091C15.7013 37.78 15.8458 38.9354 16.5655 39.4385C17.3765 40.0055 18.2051 39.4285 19.4593 38.3156C20.8596 37.0668 22.1471 36.3684 23.5293 37.3347C24.7743 38.2052 25.1361 39.8526 23.8583 41.6803Z" fill="black"/>
<path d="M39.7368 18.8573C39.5124 18.5045 39.3877 18.1873 39.3629 17.9058C39.3408 17.6115 39.3979 17.3549 39.5341 17.1362C39.6781 16.9125 39.8716 16.7233 40.1147 16.5687C40.3577 16.4141 40.6072 16.3216 40.863 16.291C41.1189 16.2604 41.3754 16.3175 41.6326 16.4622C41.8849 16.5991 42.1232 16.844 42.3476 17.1968C42.567 17.5417 42.6877 17.8614 42.7097 18.1557C42.7267 18.4422 42.6697 18.6987 42.5385 18.9253C42.4023 19.1441 42.2127 19.3307 41.9697 19.4853C41.7266 19.6399 41.4732 19.735 41.2096 19.7705C40.9487 19.7933 40.6922 19.7362 40.4399 19.5993C40.1906 19.4496 39.9562 19.2022 39.7368 18.8573Z" fill="black"/>
<path d="M62.4647 14.0917C59.9239 14.838 57.1173 13.2946 56.3592 10.7137C55.6011 8.13282 57.1312 5.33014 59.6719 4.58382C60.9423 4.21066 62.2762 4.3999 63.3874 5.01773L62.8908 5.94803C62.0139 5.43568 60.9577 5.25204 59.9548 5.54664C57.9756 6.12799 56.8147 8.35741 57.4157 10.4034C58.0206 12.4628 60.2028 13.7102 62.1819 13.1289C63.1849 12.8343 63.974 12.1086 64.4345 11.2034L65.3553 11.7174C64.7509 12.8246 63.7351 13.7185 62.4647 14.0917Z" fill="black"/>
<path d="M151.487 89.8268C151.432 87.492 153.387 85.4533 155.759 85.3967C158.131 85.34 160.169 87.2831 160.225 89.618C160.253 90.7854 159.787 91.8786 159.007 92.6841L158.328 92.0487C158.964 91.4187 159.362 90.5608 159.34 89.6391C159.296 87.8204 157.662 86.3225 155.782 86.3675C153.89 86.4127 152.329 87.987 152.372 89.8057C152.394 90.7273 152.832 91.5653 153.498 92.1641L152.85 92.8313C152.045 92.0636 151.515 90.9943 151.487 89.8268Z" fill="black"/>
<path d="M75.9053 11.6433C73.2658 11.8563 70.8325 9.77348 70.6162 7.09225C70.3998 4.41103 72.4688 1.97887 75.1083 1.76589C77.7618 1.55178 80.1661 3.62299 80.3825 6.30421C80.5988 8.98543 78.5588 11.4292 75.9053 11.6433ZM75.8246 10.6431C77.8807 10.4772 79.4576 8.53219 79.285 6.39277C79.1135 4.26724 77.2451 2.60023 75.189 2.76614C73.133 2.93204 71.5421 4.87817 71.7137 7.0037C71.8863 9.14312 73.7686 10.809 75.8246 10.6431Z" fill="black"/>
<path d="M150.511 101.775C150.932 99.478 153.262 97.8805 155.596 98.3083C157.929 98.736 159.529 101.054 159.108 103.351C158.684 105.66 156.371 107.236 154.038 106.808C151.704 106.38 150.088 104.085 150.511 101.775ZM151.382 101.935C151.054 103.724 152.351 105.512 154.213 105.853C156.063 106.192 157.909 104.981 158.237 103.191C158.565 101.402 157.27 99.6025 155.421 99.2634C153.559 98.9221 151.71 100.145 151.382 101.935Z" fill="black"/>
<path d="M86.8369 11.295L88.0788 1.80084L89.1568 1.94184L94.0335 10.4372L95.044 2.71193L96.122 2.85293L94.8801 12.3471L93.8021 12.2061L88.9254 3.71077L87.9149 11.436L86.8369 11.295Z" fill="black"/>
<path d="M148.331 111.108L156.136 114.333L155.77 115.219L147.419 117.434L153.77 120.058L153.403 120.945L145.599 117.719L145.965 116.833L154.315 114.618L147.965 111.994L148.331 111.108Z" fill="black"/>
<path d="M103.517 14.6597L106.24 6.56181L103.189 5.53545L103.517 4.55789L110.651 6.95718L110.322 7.93474L107.271 6.90838L104.547 15.0063L103.517 14.6597Z" fill="black"/>
<path d="M141.681 124.495L147.957 128.664L149.528 126.299L150.286 126.802L146.614 132.331L145.856 131.828L147.427 129.463L141.15 125.294L141.681 124.495Z" fill="black"/>
<path d="M119.796 22.2457L120.039 19.8807L115.403 17.2337L113.49 18.6449L112.461 18.0575L120.876 11.8366L121.905 12.4241L120.824 22.8331L119.796 22.2457ZM116.302 16.5592L120.163 18.7639L120.733 13.2957L116.302 16.5592Z" fill="black"/>
<path d="M131.542 136.589L133.501 137.335L136.814 133.991L136.049 132.039L136.784 131.296L140.162 139.885L139.427 140.628L130.806 137.331L131.542 136.589ZM137.183 134.91L134.424 137.696L138.952 139.43L137.183 134.91Z" fill="black"/>
<path d="M128.601 29.2138C126.607 27.4704 126.403 24.2739 128.174 22.2492C129.945 20.2244 133.131 20.0113 135.125 21.7547C136.121 22.6264 136.677 23.8535 136.752 25.1227L135.701 25.2029C135.663 24.1881 135.251 23.1982 134.464 22.5101C132.911 21.1521 130.407 21.3689 129.003 22.974C127.59 24.5896 127.709 27.1004 129.261 28.4584C130.048 29.1466 131.084 29.423 132.095 29.3258L132.155 30.3786C130.897 30.4628 129.597 30.0855 128.601 29.2138Z" fill="black"/>
<path d="M123.643 142.459C125.583 141.159 128.352 141.715 129.673 143.686C130.994 145.657 130.448 148.42 128.508 149.72C127.538 150.37 126.365 150.564 125.267 150.338L125.439 149.424C126.312 149.623 127.249 149.498 128.015 148.985C129.526 147.972 129.913 145.789 128.866 144.227C127.813 142.654 125.647 142.182 124.135 143.195C123.369 143.708 122.898 144.527 122.75 145.411L121.839 145.222C122.055 144.13 122.673 143.109 123.643 142.459Z" fill="black"/>
<path d="M136.935 37.7463L143.668 32.4865L141.686 29.9494L142.498 29.3144L147.132 35.2453L146.319 35.8803L144.337 33.3432L137.604 38.603L136.935 37.7463Z" fill="black"/>
<path d="M114.519 147.584L117.463 154.52L120.076 153.411L120.432 154.248L114.322 156.842L113.966 156.004L116.58 154.895L113.636 147.959L114.519 147.584Z" fill="black"/>
<path d="M147.885 57.4883C147.082 55.2887 148.124 53.1429 150.402 52.3113L155.665 50.39L156.038 51.4112L150.774 53.3325C149.046 53.9634 148.231 55.5517 148.814 57.1489C149.398 58.7462 151.044 59.436 152.772 58.8051L158.035 56.8838L158.408 57.905L153.145 59.8263C150.867 60.6579 148.688 59.6878 147.885 57.4883Z" fill="black"/>
<path d="M95.2937 152.385C97.3508 152.203 98.9411 153.58 99.1295 155.711L99.5648 160.633L98.6098 160.717L98.1744 155.795C98.0315 154.179 96.8644 153.122 95.3706 153.254C93.8768 153.386 92.9133 154.631 93.0563 156.248L93.4916 161.17L92.5366 161.254L92.1012 156.332C91.9128 154.202 93.2367 152.567 95.2937 152.385Z" fill="black"/>
<path d="M151.364 70.7122C151.12 69.1563 151.492 67.8423 152.28 66.7453L153.225 67.2882C152.552 68.2121 152.141 69.2783 152.348 70.6001C152.577 72.0596 153.493 72.6779 154.346 72.5439C155.351 72.3862 155.61 71.4286 155.737 69.7158C155.879 67.7465 156.283 66.4557 157.922 66.1986C159.436 65.961 160.832 67.1246 161.117 68.9421C161.338 70.3465 160.951 71.4794 160.289 72.4721L159.345 71.943C159.979 71.0394 160.287 70.0318 160.131 69.0404C159.947 67.87 159.042 67.1373 158.175 67.2734C157.197 67.4268 157 68.4171 156.867 70.0886C156.723 71.9593 156.279 73.3551 154.613 73.6165C153.112 73.852 151.71 72.9152 151.364 70.7122Z" fill="black"/>
<path d="M83.2899 152.329C84.671 152.476 85.7055 153.093 86.4603 154.014L85.7819 154.696C85.1485 153.911 84.3341 153.318 83.1607 153.193C81.8651 153.055 81.1295 153.693 81.0487 154.451C80.9536 155.343 81.7103 155.783 83.1406 156.281C84.7857 156.852 85.7931 157.491 85.6381 158.945C85.4948 160.29 84.1849 161.213 82.5715 161.042C81.3248 160.909 80.4479 160.321 79.7534 159.53L80.4196 158.847C81.0447 159.593 81.8328 160.085 82.7129 160.179C83.7518 160.29 84.5826 159.686 84.6647 158.916C84.7571 158.048 83.9586 157.654 82.5649 157.159C81.0041 156.61 79.9164 155.913 80.074 154.434C80.216 153.101 81.3342 152.12 83.2899 152.329Z" fill="black"/>
</svg>
