<svg width="430" height="932" viewBox="0 0 430 932" fill="none" xmlns="http://www.w3.org/2000/svg">
<g clip-path="url(#clip0_2041_4)">
<line x1="-336.747" y1="-289.253" x2="121.253" y2="168.747" stroke="#8C8C8C" stroke-opacity="0.54" stroke-width="0.716655"/>
<line x1="-607.202" y1="602.499" x2="188.62" y2="-4.19076" stroke="#8C8C8C" stroke-opacity="0.54" stroke-width="0.66596"/>
<rect x="16.3376" y="113.425" width="104.885" height="18.1215" transform="rotate(-36.287 16.3376 113.425)" fill="white"/>
<path d="M25.7877 112.448C25.1996 112.879 25.1414 113.427 25.6157 114.073L25.9201 114.487L27.4144 113.39L27.7824 113.891L26.2881 114.988L29.6008 119.5L29.0128 119.932L25.7001 115.42L25.1891 115.795L24.821 115.294L25.332 114.919L25.0205 114.495C24.0933 113.232 24.7139 112.42 25.3116 111.981C25.6876 111.705 26.0958 111.554 26.5459 111.52L26.6382 112.09C26.3508 112.123 26.0673 112.242 25.7877 112.448ZM30.7531 110.79C31.3412 110.358 32.1377 110.13 32.9717 110.215C33.8012 110.273 34.6997 110.83 35.3092 111.822L30.9034 115.057C31.3931 115.603 31.9475 115.893 32.5763 115.921C33.2052 115.949 33.7786 115.78 34.2992 115.398C34.9934 114.888 35.3775 114.28 35.4491 113.589L36.0394 113.645C35.9994 114.52 35.5491 115.281 34.6815 115.918C33.9777 116.435 33.2005 116.65 32.3375 116.586C31.4772 116.505 30.7497 116.06 30.148 115.241C28.8881 113.525 29.6155 111.625 30.7531 110.79ZM31.1353 111.311C30.285 111.891 29.7875 113.295 30.5495 114.575L34.4251 111.729C33.9785 111.182 33.4241 110.892 32.7882 110.854C32.1522 110.816 31.5981 110.971 31.1353 111.311ZM40.2243 111.849C39.8194 112.146 39.3629 112.333 38.8525 112.426C37.8341 112.595 36.5967 112.183 35.7969 111.093C35.3934 110.544 35.1815 109.972 35.1445 109.376C35.0731 108.167 35.5921 107.237 36.4019 106.643C37.2792 105.999 38.4089 105.941 39.2058 106.379L39.254 106.344L38.4683 105.274L39.0564 104.842L42.7372 109.855L42.1491 110.287L41.3634 109.217L41.3152 109.252C41.4951 110.144 41.1016 111.205 40.2243 111.849ZM39.8832 111.283C40.3941 110.908 40.7127 110.392 40.839 109.735C40.9749 109.072 40.8022 108.412 40.328 107.766C39.8537 107.12 39.2761 106.758 38.6022 106.689C37.938 106.613 37.3504 106.762 36.8394 107.138C36.3285 107.513 36.0002 108.036 35.8643 108.699C35.7284 109.363 35.9011 110.023 36.3753 110.668C36.8496 111.314 37.4272 111.677 38.1011 111.746C38.775 111.815 39.3722 111.658 39.8832 111.283ZM42.6253 102.103C42.7218 102.032 42.7892 101.983 42.8445 101.957L43.2551 102.516C43.1998 102.542 43.1252 102.582 43.0385 102.645C42.0455 103.374 41.8147 104.657 42.5099 105.927L44.4635 108.588L43.8755 109.019L40.1947 104.006L40.7828 103.575L41.7667 104.915C41.5703 104.465 41.5514 103.975 41.6835 103.447C41.8253 102.913 42.1337 102.464 42.6253 102.103ZM42.4298 99.5906L43.0179 99.1588L48.0223 105.975L47.4342 106.407L42.4298 99.5906ZM47.6808 98.3615C48.2688 97.9297 49.0654 97.701 49.8994 97.786C50.7289 97.8447 51.6274 98.4016 52.2369 99.3934L47.8311 102.628C48.3207 103.174 48.8752 103.464 49.504 103.492C50.1329 103.52 50.7063 103.351 51.2269 102.969C51.9211 102.459 52.3052 101.851 52.3768 101.16L52.9671 101.216C52.9271 102.092 52.4768 102.853 51.6092 103.49C50.9054 104.006 50.1281 104.221 49.2652 104.157C48.4049 104.077 47.6774 103.631 47.0757 102.812C45.8158 101.096 46.5432 99.1967 47.6808 98.3615ZM48.063 98.8821C47.2127 99.4619 46.7152 100.866 47.4772 102.146L51.3528 99.3007C50.9062 98.7531 50.3518 98.4628 49.7158 98.4252C49.0799 98.3877 48.5257 98.5423 48.063 98.8821ZM54.7567 94.7835L54.3879 95.2916C53.8194 94.982 53.276 95.01 52.7844 95.371C52.2349 95.7745 52.0899 96.3854 52.4367 96.8578C52.727 97.2531 53.2092 97.3441 53.874 97.1379L54.4571 96.9621C55.6856 96.5942 56.427 96.6137 56.972 97.3561C57.3047 97.8092 57.3931 98.2933 57.2397 98.7917C57.0792 99.2804 56.7663 99.7031 56.3036 100.043C55.407 100.701 54.3519 100.719 53.5863 100.02L53.9692 99.5311C54.5649 99.9988 55.3352 99.9971 55.9522 99.5441C56.5692 99.0911 56.8588 98.374 56.427 97.7859C56.1085 97.3521 55.5567 97.2675 54.748 97.52L54.0473 97.7378C53.0515 98.0386 52.3306 97.8853 51.8776 97.2683C51.6015 96.8924 51.5196 96.4777 51.6222 96.0314C51.7249 95.5851 51.9895 95.1979 52.4137 94.8864C53.1753 94.3272 54.0151 94.319 54.7567 94.7835ZM58.758 91.8456L58.3892 92.3538C57.8206 92.0442 57.2773 92.0722 56.7856 92.4332C56.2361 92.8367 56.0912 93.4476 56.438 93.92C56.7282 94.3152 57.2105 94.4063 57.8752 94.2001L58.4583 94.0242C59.6869 93.6564 60.4282 93.6759 60.9733 94.4182C61.306 94.8713 61.3943 95.3555 61.2409 95.8539C61.0805 96.3426 60.7676 96.7652 60.3048 97.105C59.4082 97.7633 58.3531 97.7813 57.5876 97.0821L57.9705 96.5933C58.5662 97.061 59.3365 97.0593 59.9535 96.6063C60.5705 96.1532 60.86 95.4361 60.4283 94.8481C60.1097 94.4142 59.558 94.3297 58.7493 94.5822L58.0485 94.7999C57.0527 95.1008 56.3319 94.9475 55.8788 94.3305C55.6028 93.9545 55.5209 93.5399 55.6235 93.0936C55.7261 92.6473 55.9908 92.26 56.415 91.9486C57.1766 91.3894 58.0163 91.3812 58.758 91.8456ZM63.7714 86.5473C64.6969 85.8678 65.7893 85.7186 66.8106 86.2003L66.3725 86.9374C65.6458 86.6549 64.963 86.7556 64.2978 87.244C63.8351 87.5838 63.5479 88.0617 63.4197 88.6752C63.2914 89.2886 63.448 89.8859 63.8869 90.4836C64.3187 91.0717 64.8416 91.3999 65.4653 91.4613C66.0891 91.5227 66.624 91.3822 67.0867 91.0424C67.7519 90.554 68.0621 89.9256 68.0077 89.1644L68.8421 88.9671C68.9933 90.1026 68.5771 91.0313 67.5938 91.7533C67.1985 92.0435 66.7395 92.2469 66.2194 92.3469C65.709 92.4398 65.1617 92.3816 64.5849 92.182C64.0009 91.9727 63.5191 91.5994 63.1156 91.0499C61.8344 89.3049 62.6338 87.3826 63.7714 86.5473ZM69.4136 82.4343C69.5197 82.3565 69.6135 82.3024 69.6688 82.2767L70.2139 83.019C70.1586 83.0447 70.0744 83.0917 69.9683 83.1696C69.4767 83.5306 69.1824 83.9989 69.076 84.5815C68.9696 85.1641 69.0928 85.7562 69.4288 86.3553L71.2904 88.8908L70.4999 89.4712L66.8191 84.458L67.6096 83.8776L68.5794 85.1984C68.3856 84.7323 68.357 84.2488 68.4962 83.7311C68.6354 83.2134 68.9413 82.7812 69.4136 82.4343ZM72.7614 79.9467C73.3687 79.5007 74.146 79.2862 74.9896 79.3641C75.8191 79.4228 76.7293 80.0157 77.3504 81.0435L73.147 84.1297C74.0272 85.086 75.2495 85.0936 76.2136 84.3858C76.8306 83.9328 77.1974 83.3815 77.307 82.7224L78.0812 82.8068C78.0245 83.6794 77.5671 84.4306 76.6898 85.0748C76.2463 85.4004 75.7681 85.618 75.2383 85.725C74.191 85.9153 72.9678 85.5225 72.1538 84.4138C70.8726 82.6689 71.6334 80.7748 72.7614 79.9467ZM73.2639 80.6312C72.859 80.9285 72.5892 81.3491 72.4545 81.8932C72.3224 82.4205 72.4005 82.9715 72.7082 83.532L76.2077 80.9625C75.8011 80.4895 75.3084 80.2429 74.7394 80.2156C74.1703 80.1883 73.6785 80.3268 73.2639 80.6312ZM82.1945 81.0331C81.5582 81.5003 80.8098 81.6936 79.9495 81.6131C79.0988 81.5255 78.3713 81.0803 77.7767 80.2705C77.1821 79.4607 76.9752 78.6333 77.1464 77.7954C77.3273 76.9504 77.7358 76.2943 78.3721 75.8271C79.2108 75.2113 80.2711 75.1599 80.9657 75.5402L81.0236 75.4977L80.3228 74.5433L81.1037 73.9699L84.7845 78.9831L84.0036 79.5564L83.3028 78.602L83.245 78.6445C83.3998 79.4211 83.0332 80.4173 82.1945 81.0331ZM80.1238 80.6987C80.7476 80.76 81.2921 80.6125 81.7645 80.2656C82.2369 79.9188 82.5407 79.4434 82.6593 78.837C82.7779 78.2306 82.6214 77.6334 82.1825 77.0357C81.7436 76.438 81.2207 76.1097 80.6066 76.0412C79.9925 75.9728 79.448 76.1204 78.9756 76.4672C78.5032 76.814 78.1993 77.2894 78.0711 77.9029C77.9525 78.5093 78.1091 79.1065 78.548 79.7042C78.9868 80.302 79.5098 80.6302 80.1238 80.6987ZM84.4585 71.5068L84.9469 72.172L83.8864 72.9506L86.2577 76.1802C86.4912 76.4984 86.7588 76.5394 87.0769 76.3058C87.2601 76.1713 87.4246 75.9912 87.5633 75.7558L88.0447 76.4113C87.8982 76.6969 87.6804 76.9459 87.3912 77.1582C86.6874 77.6749 86.0997 77.602 85.6113 76.9368L83.1055 73.524L82.4114 74.0336L81.923 73.3684L82.6171 72.8588L81.6756 71.5765L82.4565 71.0032L83.398 72.2854L84.4585 71.5068ZM84.0424 69.0375L84.833 68.4571L85.3992 69.2284L84.6087 69.8088L84.0424 69.0375ZM85.3661 70.8404L86.1566 70.2599L89.8374 75.2731L89.0469 75.8535L85.3661 70.8404ZM91.1919 66.5629L92.0113 65.9613L93.494 72.5883L92.8288 73.0767L86.95 69.6774L87.7598 69.0829L92.4134 71.8238L91.1919 66.5629ZM91.4801 63.5766L92.2706 62.9962L92.8369 63.7675L92.0464 64.3479L91.4801 63.5766ZM92.8037 65.3795L93.5943 64.799L97.2751 69.8122L96.4845 70.3926L92.8037 65.3795ZM96.9424 62.3408L97.4308 63.006L96.3703 63.7846L98.7416 67.0142C98.9752 67.3324 99.2427 67.3734 99.5608 67.1398C99.744 67.0053 99.9085 66.8252 100.047 66.5897L100.529 67.2453C100.382 67.5309 100.164 67.7798 99.8751 67.9922C99.1713 68.5089 98.5836 68.436 98.0952 67.7707L95.5894 64.3579L94.8953 64.8676L94.4069 64.2024L95.101 63.6927L94.1596 62.4105L94.9405 61.8372L95.8819 63.1194L96.9424 62.3408ZM103.005 64.0472L101.783 58.7863L102.603 58.1847L104.086 64.8117L104.601 67.2522L103.811 67.8326L103.247 65.2051L97.5415 61.9008L98.3514 61.3063L103.005 64.0472Z" fill="black"/>
</g>
<defs>
<clipPath id="clip0_2041_4">
<rect width="430" height="932" fill="white"/>
</clipPath>
</defs>
</svg>
