<svg width="430" height="932" viewBox="0 0 430 932" fill="none" xmlns="http://www.w3.org/2000/svg">
<line x1="408.629" y1="79.482" x2="72.9995" y2="79.482" stroke="black" stroke-width="0.592985"/>
<path d="M338.806 70L336.55 63.1417H337.668L339.355 68.3728L341.072 63.1417H342.19L343.907 68.3728L345.594 63.1417H346.713L344.456 70H343.448L341.641 64.5393L339.814 70H338.806ZM355.708 64.0801H351.685V66.0368H355.319V66.9752H351.685V69.0616H355.708V70H350.667V63.1417H355.708V64.0801ZM359.989 70V63.1417H363.243C364.391 63.1417 365.2 63.8505 365.2 64.8488C365.2 65.5676 364.841 66.0168 364.222 66.3662C365.02 66.7555 365.48 67.3745 365.48 68.1332C365.48 69.2313 364.601 70 363.373 70H359.989ZM360.997 65.9968H362.994C363.683 65.9968 364.172 65.5875 364.172 65.0185C364.172 64.4495 363.683 64.0302 362.994 64.0302H360.997V65.9968ZM360.997 69.1115H363.144C363.912 69.1115 364.451 68.6423 364.451 67.9834C364.451 67.3246 363.912 66.8554 363.144 66.8554H360.997V69.1115ZM372.093 70.1098C370.945 70.1098 369.997 69.7105 369.268 69.0117L369.877 68.263C370.486 68.842 371.205 69.2213 372.133 69.2213C373.081 69.2213 373.571 68.7222 373.571 68.1731C373.571 67.5242 373.002 67.2746 371.854 67.0151C370.456 66.6857 369.527 66.2664 369.527 65.0285C369.527 63.8804 370.526 63.0119 371.903 63.0119C372.962 63.0119 373.75 63.4013 374.409 63.9803L373.83 64.739C373.251 64.2099 372.562 63.9004 371.864 63.9004C371.095 63.9004 370.556 64.3896 370.556 64.9386C370.556 65.5775 371.145 65.7972 372.273 66.0667C373.64 66.3862 374.589 66.8454 374.589 68.0733C374.589 69.2313 373.71 70.1098 372.093 70.1098ZM378.733 70V63.1417L379.741 63.1417V70H378.733ZM386.05 70V64.0801H383.804V63.1417H389.314V64.0801H387.058V70H386.05ZM398.397 64.0801H394.374V66.0368H398.008V66.9752H394.374V69.0616H398.397V70H393.355V63.1417H398.397V64.0801ZM405.014 70.1098C403.866 70.1098 402.917 69.7105 402.189 69.0117L402.798 68.263C403.407 68.842 404.125 69.2213 405.054 69.2213C406.002 69.2213 406.491 68.7222 406.491 68.1731C406.491 67.5242 405.922 67.2746 404.774 67.0151C403.377 66.6857 402.448 66.2664 402.448 65.0285C402.448 63.8804 403.447 63.0119 404.824 63.0119C405.882 63.0119 406.671 63.4013 407.33 63.9803L406.751 64.739C406.172 64.2099 405.483 63.9004 404.784 63.9004C404.016 63.9004 403.477 64.3896 403.477 64.9386C403.477 65.5775 404.066 65.7972 405.194 66.0667C406.561 66.3862 407.51 66.8454 407.51 68.0733C407.51 69.2313 406.631 70.1098 405.014 70.1098Z" fill="black"/>
</svg>
