<svg width="220" height="221" viewBox="0 0 220 221" fill="none" xmlns="http://www.w3.org/2000/svg">
<g filter="url(#filter0_d_2013_13)">
<circle cx="110.089" cy="105.128" r="63.2487" fill="#FFAA9C"/>
</g>
<path d="M134.629 107.162C135.538 106.253 135.538 104.779 134.629 103.87L119.813 89.0534C118.903 88.1442 117.429 88.1442 116.52 89.0534C115.611 89.9626 115.611 91.4367 116.52 92.3459L129.69 105.516L116.52 118.686C115.611 119.595 115.611 121.07 116.52 121.979C117.429 122.888 118.903 122.888 119.813 121.979L134.629 107.162ZM87.1953 107.844H132.983V103.188H87.1953V107.844Z" fill="black"/>
<path d="M97.38 180.428C97.2972 180.838 97.1672 181.153 96.99 181.373C96.8019 181.601 96.5829 181.746 96.3332 181.809C96.0743 181.871 95.8037 181.873 95.5213 181.816C95.239 181.759 94.995 181.653 94.7894 181.497C94.5838 181.342 94.4384 181.123 94.3533 180.841C94.2664 180.567 94.2643 180.225 94.3471 179.816C94.428 179.415 94.5626 179.101 94.7507 178.873C94.937 178.655 95.1559 178.51 95.4075 178.437C95.6573 178.374 95.9234 178.371 96.2057 178.428C96.488 178.485 96.7366 178.592 96.9513 178.749C97.1551 178.913 97.3004 179.132 97.3874 179.406C97.4634 179.687 97.4609 180.027 97.38 180.428Z" fill="black"/>
<path d="M77.6948 168.112C80.0436 169.335 80.997 172.393 79.7546 174.778C78.5123 177.164 75.4668 178.124 73.1181 176.901C71.9437 176.289 71.1133 175.229 70.7406 174.013L71.7433 173.687C72.0203 174.664 72.6544 175.528 73.5815 176.011C75.4111 176.964 77.7932 176.161 78.778 174.27C79.7694 172.366 79.0609 169.954 77.2314 169.002C76.3042 168.519 75.2324 168.495 74.2731 168.828L73.9655 167.82C75.1687 167.441 76.5205 167.5 77.6948 168.112Z" fill="black"/>
<path d="M66.3101 160.559C68.3604 162.235 68.6708 165.423 66.9684 167.506C65.266 169.588 62.0888 169.908 60.0385 168.232C57.9774 166.547 57.6798 163.387 59.3822 161.305C61.0846 159.222 64.249 158.874 66.3101 160.559ZM65.675 161.336C64.0779 160.031 61.5931 160.34 60.2347 162.002C58.8851 163.653 59.0765 166.149 60.6736 167.455C62.2707 168.76 64.7663 168.46 66.1159 166.809C67.4743 165.147 67.2721 162.642 65.675 161.336Z" fill="black"/>
<path d="M58.1881 153.233L50.7125 159.216L50.0332 158.367L52.406 148.863L46.3232 153.732L45.6439 152.883L53.1196 146.9L53.7989 147.749L51.4261 157.252L57.5089 152.384L58.1881 153.233Z" fill="black"/>
<path d="M48.4961 139.248L40.9202 143.197L42.4085 146.052L41.4939 146.529L38.0147 139.855L38.9293 139.378L40.4176 142.233L47.9936 138.284L48.4961 139.248Z" fill="black"/>
<path d="M42.0192 122.497L40.2048 124.033L41.7117 129.154L44.069 129.463L44.4034 130.6L34.0257 129.251L33.6912 128.115L41.6848 121.361L42.0192 122.497ZM40.5964 129.018L39.3413 124.752L35.1401 128.299L40.5964 129.018Z" fill="black"/>
<path d="M40.5026 111.37C40.7311 114.008 38.6626 116.454 35.9827 116.686C33.3028 116.918 30.8585 114.863 30.63 112.225C30.5157 110.906 30.9653 109.636 31.7909 108.669L32.6045 109.34C31.9287 110.098 31.5396 111.097 31.6298 112.138C31.8077 114.194 33.7632 115.773 35.8877 115.589C38.026 115.404 39.6808 113.512 39.5028 111.457C39.4126 110.415 38.8576 109.498 38.0615 108.867L38.7476 108.067C39.7132 108.878 40.3884 110.051 40.5026 111.37Z" fill="black"/>
<path d="M40.4104 99.4443L31.9116 98.5693L31.5819 101.772L30.556 101.666L31.3267 94.1796L32.3527 94.2852L32.023 97.4879L40.5217 98.3629L40.4104 99.4443Z" fill="black"/>
<path d="M46.1987 77.6248C45.253 79.7668 43.0148 80.5917 40.7963 79.6122L35.6708 77.3492L36.1099 76.3547L41.2354 78.6177C42.9184 79.3608 44.6067 78.7806 45.2934 77.2251C45.9802 75.6696 45.2714 74.0312 43.5884 73.2881L38.4629 71.0252L38.902 70.0307L44.0275 72.2936C46.246 73.2731 47.1444 75.4828 46.1987 77.6248Z" fill="black"/>
<path d="M52.8583 65.6803C51.9559 66.971 50.7768 67.6602 49.449 67.9053L49.1436 66.8585C50.2693 66.6591 51.3046 66.1756 52.0713 65.079C52.9178 63.8682 52.6865 62.7882 51.9783 62.293C51.1445 61.7101 50.2941 62.2209 49.016 63.368C47.5484 64.6888 46.3624 65.3392 45.0031 64.3888C43.7466 63.5104 43.5469 61.7041 44.6011 60.1964C45.4156 59.0313 46.4795 58.4826 47.6451 58.2261L47.9586 59.2616C46.8751 59.4734 45.9551 59.9866 45.3801 60.8091C44.7013 61.78 44.8458 62.9354 45.5655 63.4385C46.3765 64.0055 47.2051 63.4285 48.4593 62.3156C49.8596 61.0668 51.1471 60.3684 52.5293 61.3347C53.7743 62.2052 54.1361 63.8526 52.8583 65.6803Z" fill="black"/>
<path d="M68.7368 42.8573C68.5124 42.5045 68.3877 42.1873 68.3629 41.9058C68.3408 41.6115 68.3979 41.3549 68.5341 41.1362C68.6781 40.9125 68.8716 40.7233 69.1147 40.5687C69.3577 40.4141 69.6072 40.3216 69.863 40.291C70.1189 40.2604 70.3754 40.3175 70.6326 40.4622C70.8849 40.5991 71.1232 40.844 71.3476 41.1968C71.567 41.5417 71.6877 41.8614 71.7097 42.1557C71.7267 42.4422 71.6697 42.6987 71.5385 42.9253C71.4023 43.1441 71.2127 43.3307 70.9697 43.4853C70.7266 43.6399 70.4732 43.735 70.2096 43.7705C69.9487 43.7933 69.6922 43.7362 69.4399 43.5993C69.1906 43.4496 68.9562 43.2022 68.7368 42.8573Z" fill="black"/>
<path d="M91.4647 38.0917C88.9239 38.838 86.1173 37.2946 85.3592 34.7137C84.6011 32.1328 86.1312 29.3301 88.6719 28.5838C89.9423 28.2107 91.2762 28.3999 92.3874 29.0177L91.8908 29.948C91.0139 29.4357 89.9577 29.252 88.9548 29.5466C86.9756 30.128 85.8147 32.3574 86.4157 34.4034C87.0206 36.4628 89.2028 37.7102 91.1819 37.1289C92.1849 36.8343 92.974 36.1086 93.4345 35.2034L94.3553 35.7174C93.7509 36.8246 92.7351 37.7185 91.4647 38.0917Z" fill="black"/>
<path d="M180.487 113.827C180.432 111.492 182.387 109.453 184.759 109.397C187.131 109.34 189.169 111.283 189.225 113.618C189.253 114.785 188.787 115.879 188.007 116.684L187.328 116.049C187.964 115.419 188.362 114.561 188.34 113.639C188.296 111.82 186.662 110.323 184.782 110.367C182.89 110.413 181.329 111.987 181.372 113.806C181.394 114.727 181.832 115.565 182.498 116.164L181.85 116.831C181.045 116.064 180.515 114.994 180.487 113.827Z" fill="black"/>
<path d="M104.905 35.6433C102.266 35.8563 99.8325 33.7735 99.6162 31.0923C99.3998 28.411 101.469 25.9789 104.108 25.7659C106.762 25.5518 109.166 27.623 109.382 30.3042C109.599 32.9854 107.559 35.4292 104.905 35.6433ZM104.825 34.6431C106.881 34.4772 108.458 32.5322 108.285 30.3928C108.113 28.2672 106.245 26.6002 104.189 26.7661C102.133 26.932 100.542 28.8782 100.714 31.0037C100.886 33.1431 102.769 34.809 104.825 34.6431Z" fill="black"/>
<path d="M179.511 125.775C179.932 123.478 182.262 121.881 184.596 122.308C186.929 122.736 188.529 125.054 188.108 127.351C187.684 129.66 185.371 131.236 183.038 130.808C180.704 130.38 179.088 128.085 179.511 125.775ZM180.382 125.935C180.054 127.724 181.351 129.512 183.213 129.853C185.063 130.192 186.909 128.981 187.237 127.191C187.565 125.402 186.27 123.602 184.421 123.263C182.559 122.922 180.71 124.145 180.382 125.935Z" fill="black"/>
<path d="M115.837 35.295L117.079 25.8008L118.157 25.9418L123.033 34.4372L124.044 26.7119L125.122 26.8529L123.88 36.3471L122.802 36.2061L117.925 27.7108L116.915 35.436L115.837 35.295Z" fill="black"/>
<path d="M177.331 135.108L185.136 138.333L184.77 139.219L176.419 141.434L182.77 144.058L182.403 144.945L174.599 141.719L174.965 140.833L183.315 138.618L176.965 135.994L177.331 135.108Z" fill="black"/>
<path d="M132.517 38.6597L135.24 30.5618L132.189 29.5355L132.517 28.5579L139.651 30.9572L139.322 31.9347L136.271 30.9084L133.547 39.0063L132.517 38.6597Z" fill="black"/>
<path d="M170.681 148.495L176.957 152.664L178.528 150.299L179.286 150.802L175.614 156.331L174.856 155.828L176.427 153.463L170.15 149.294L170.681 148.495Z" fill="black"/>
<path d="M148.796 46.2457L149.039 43.8807L144.403 41.2337L142.49 42.6449L141.461 42.0575L149.876 35.8366L150.905 36.4241L149.824 46.8331L148.796 46.2457ZM145.302 40.5592L149.163 42.7639L149.733 37.2957L145.302 40.5592Z" fill="black"/>
<path d="M160.542 160.589L162.501 161.335L165.814 157.991L165.049 156.039L165.784 155.296L169.162 163.885L168.427 164.628L159.806 161.331L160.542 160.589ZM166.183 158.91L163.424 161.696L167.952 163.43L166.183 158.91Z" fill="black"/>
<path d="M157.601 53.2138C155.607 51.4704 155.403 48.2739 157.174 46.2492C158.945 44.2244 162.131 44.0113 164.125 45.7547C165.121 46.6264 165.677 47.8535 165.752 49.1227L164.701 49.2029C164.663 48.1881 164.251 47.1982 163.464 46.5101C161.911 45.1521 159.407 45.3689 158.003 46.974C156.59 48.5896 156.709 51.1004 158.261 52.4584C159.048 53.1466 160.084 53.423 161.095 53.3258L161.155 54.3786C159.897 54.4628 158.597 54.0855 157.601 53.2138Z" fill="black"/>
<path d="M152.643 166.459C154.583 165.159 157.352 165.715 158.673 167.686C159.994 169.657 159.448 172.42 157.508 173.72C156.538 174.37 155.365 174.564 154.267 174.338L154.439 173.424C155.312 173.623 156.249 173.498 157.015 172.985C158.526 171.972 158.913 169.789 157.866 168.227C156.813 166.654 154.647 166.182 153.135 167.195C152.369 167.708 151.898 168.527 151.75 169.411L150.839 169.222C151.055 168.13 151.673 167.109 152.643 166.459Z" fill="black"/>
<path d="M165.935 61.7463L172.668 56.4865L170.686 53.9494L171.498 53.3144L176.132 59.2453L175.319 59.8803L173.337 57.3432L166.604 62.603L165.935 61.7463Z" fill="black"/>
<path d="M143.519 171.584L146.463 178.52L149.076 177.411L149.432 178.248L143.322 180.842L142.966 180.004L145.58 178.895L142.636 171.959L143.519 171.584Z" fill="black"/>
<path d="M176.885 81.4883C176.082 79.2887 177.124 77.1429 179.402 76.3113L184.665 74.39L185.038 75.4112L179.774 77.3325C178.046 77.9634 177.231 79.5517 177.814 81.1489C178.398 82.7462 180.044 83.436 181.772 82.8051L187.035 80.8838L187.408 81.905L182.145 83.8263C179.867 84.6579 177.688 83.6878 176.885 81.4883Z" fill="black"/>
<path d="M124.294 176.385C126.351 176.203 127.941 177.58 128.129 179.711L128.565 184.633L127.61 184.717L127.174 179.795C127.031 178.179 125.864 177.122 124.371 177.254C122.877 177.386 121.913 178.631 122.056 180.248L122.492 185.17L121.537 185.254L121.101 180.332C120.913 178.202 122.237 176.567 124.294 176.385Z" fill="black"/>
<path d="M180.364 94.7122C180.12 93.1563 180.492 91.8423 181.28 90.7453L182.225 91.2882C181.552 92.2121 181.141 93.2783 181.348 94.6001C181.577 96.0596 182.493 96.6779 183.346 96.5439C184.351 96.3862 184.61 95.4286 184.737 93.7158C184.879 91.7465 185.283 90.4557 186.922 90.1986C188.436 89.961 189.832 91.1246 190.117 92.9421C190.338 94.3465 189.951 95.4794 189.289 96.4721L188.345 95.943C188.979 95.0394 189.287 94.0318 189.131 93.0404C188.947 91.87 188.042 91.1373 187.175 91.2734C186.197 91.4268 186 92.4171 185.867 94.0886C185.723 95.9593 185.279 97.3551 183.613 97.6165C182.112 97.852 180.71 96.9152 180.364 94.7122Z" fill="black"/>
<path d="M112.29 176.329C113.671 176.476 114.705 177.093 115.46 178.014L114.782 178.696C114.149 177.911 113.334 177.318 112.161 177.193C110.865 177.055 110.129 177.693 110.049 178.451C109.954 179.343 110.71 179.783 112.141 180.281C113.786 180.852 114.793 181.491 114.638 182.945C114.495 184.29 113.185 185.213 111.572 185.042C110.325 184.909 109.448 184.321 108.753 183.53L109.42 182.847C110.045 183.593 110.833 184.085 111.713 184.179C112.752 184.29 113.583 183.686 113.665 182.916C113.757 182.048 112.959 181.654 111.565 181.159C110.004 180.61 108.916 179.913 109.074 178.434C109.216 177.101 110.334 176.12 112.29 176.329Z" fill="black"/>
<defs>
<filter id="filter0_d_2013_13" x="0.307308" y="0.821214" width="219.562" height="219.562" filterUnits="userSpaceOnUse" color-interpolation-filters="sRGB">
<feFlood flood-opacity="0" result="BackgroundImageFix"/>
<feColorMatrix in="SourceAlpha" type="matrix" values="0 0 0 0 0 0 0 0 0 0 0 0 0 0 0 0 0 0 127 0" result="hardAlpha"/>
<feOffset dy="5.47442"/>
<feGaussianBlur stdDeviation="23.2663"/>
<feComposite in2="hardAlpha" operator="out"/>
<feColorMatrix type="matrix" values="0 0 0 0 1 0 0 0 0 0.666667 0 0 0 0 0.611765 0 0 0 1 0"/>
<feBlend mode="normal" in2="BackgroundImageFix" result="effect1_dropShadow_2013_13"/>
<feBlend mode="normal" in="SourceGraphic" in2="effect1_dropShadow_2013_13" result="shape"/>
</filter>
</defs>
</svg>
