<?xml version="1.0" encoding="UTF-8"?><svg id="a" xmlns="http://www.w3.org/2000/svg" viewBox="0 0 866 866"><defs><style>.c{fill:#997f7e;}.d{fill:#ffedcb;}</style></defs><g id="b"><g><circle class="d" cx="433" cy="433" r="433"/><g><path class="c" d="M448,80.03c0,.16-.09,.23-.25,.22l-14.95-.87c-.16,0-.23-.09-.22-.25l.04-.7c0-.16,.14-.23,.39-.21,2.68,.04,4.56-1.28,5.66-3.96l13.93-33.85s.04-.09,.04-.14l-.27-.98c0-.1,.05-.14,.13-.14l5.85,.34s.09,.04,.16,.07c.07,.02,.12,.08,.15,.18l10.36,35.43c.24,.54,.43,1.03,.58,1.47,.14,.44,.31,.84,.5,1.2,.42,.83,1.16,1.49,2.2,1.98,.87,.5,1.68,.77,2.42,.81,.16,0,.23,.1,.22,.28l-.04,.67c0,.16-.09,.23-.25,.22l-17.9-1.04c-.16,0-.23-.09-.22-.25l.04-.7c0-.16,.38-.23,1.1-.23,.72,0,1.32,0,1.79-.01,2.73-.14,4.13-.97,4.22-2.51,0-.12,0-.25-.04-.41l-3.7-12.72s-.05-.13-.1-.27c-.2-.68-.59-1.03-1.17-1.07l-10.38-.6c-.58-.03-1.06,.26-1.43,.89-.07,.13-.1,.21-.1,.23l-5.13,12.59-.02,.26c-.03,.51,.21,.98,.71,1.42,1.13,.99,2.71,1.54,4.72,1.65l.76,.04c.16,0,.23,.09,.22,.25l-.04,.7Zm9.89-20.73c.35,.02,.54-.12,.55-.41,0-.16-.02-.33-.09-.53l-3.66-12.24c-.16-.54-.29-.81-.39-.82-.1,0-.27,.26-.52,.79l-4.79,11.73c-.09,.19-.14,.4-.15,.62-.01,.22,.13,.34,.42,.36l8.63,.5Z"/><path class="c" d="M517.45,89.59c-.15-.05-.2-.14-.16-.29l.21-.67c.05-.15,.2-.18,.46-.1,.88,.27,1.88,.47,3,.61,3.59,.47,5.66-.19,6.21-1.96l9.04-29.56c.54-2.45-.15-4.08-2.09-4.9-.58-.26-1.23-.5-1.96-.72l-1.6-.49c-.15-.05-.2-.14-.16-.29l.21-.7c.05-.15,.14-.2,.29-.16l1.24,.35,4.83,1.45,10.07,2.74c10.68,3.27,15.06,8.06,13.13,14.37-.82,2.67-2.88,4.47-6.19,5.4-.52,.15-.95,.24-1.29,.28-.35,.04-.54,.06-.59,.07,2.04,2.14,3.5,4.28,4.39,6.43,.88,2.15,.96,4.42,.23,6.81-1.56,5.1-5.06,7.91-10.49,8.43-2.8,.29-5.66-.02-8.58-.91l-20.23-6.19Zm20.86-17.51c-.24-.07-.4,0-.46,.2l-4.7,15.35c-.41,1.33-.11,2.58,.89,3.76,1,1.18,2.21,1.99,3.65,2.44,2.76,.85,5.42,.58,7.96-.79,2.54-1.38,4.26-3.51,5.14-6.39,.88-2.89,.56-5.56-.96-8.03-1.52-2.47-3.88-4.19-7.07-5.17l-4.45-1.36Zm.27-2.4c-.11,.35,.05,.6,.48,.73l6.89,2.11c1.79,.55,3.5,.35,5.13-.6,1.63-.95,2.69-2.25,3.2-3.89,.9-2.93,.72-5.31-.54-7.14-1.26-1.83-3.27-3.16-6.04-4.01-.86-.2-1.45-.35-1.78-.45-.33-.1-.67-.21-1.02-.33-.35-.12-.71-.2-1.09-.26-.37-.05-.65,0-.84,.14-.19,.15-.35,.44-.48,.86l-3.93,12.83Z"/><path class="c" d="M629.25,137.74c-.17,.08-.39-.01-.67-.28s-.64-.54-1.08-.8c-.44-.26-1.1-.54-2-.85s-2.32-.78-4.25-1.43-3.6-1.4-5.01-2.24c-3.18-1.91-5.81-4.51-7.9-7.81-2.09-3.29-3.2-6.86-3.34-10.69-.14-3.83,.89-7.56,3.07-11.19,2.18-3.63,5.05-6.38,8.62-8.25,5.21-2.75,10.83-3.2,16.87-1.35,1.92,.59,3.72,1.38,5.4,2.39,2.29,1.38,4.78,3.4,7.47,6.06,.81,.81,1.48,1.54,1.99,2.18,.51,.65,.84,1.02,.99,1.11l.87,.25,.78,.47c.2,.12,.22,.32,.04,.61l-4.69,7.81c-.1,.17-.3,.16-.6-.02-.3-.18-.46-.32-.46-.43s0-.23,.02-.37c.02-.14,.03-.28,.04-.44,.01-.15,.02-.3,.02-.43s0-.23,.02-.29c.52-6.55-1.78-11.36-6.88-14.42-4.6-2.77-9.08-3.46-13.44-2.09-4.36,1.37-7.98,4.47-10.89,9.3-2.9,4.83-3.97,9.83-3.2,15.02,.77,5.18,3.61,9.24,8.52,12.19,2.68,1.61,5.6,2.28,8.75,2.01,3.16-.27,6.06-1.18,8.7-2.73,.09-.08,.22-.07,.39,.03l.33,.2c.17,.1,.19,.25,.07,.45-.12,.2-.29,.36-.5,.49l-8.05,5.55Z"/><path class="c" d="M697.97,140.28c.11-.11,.22-.11,.33,0l.45,.46,6.74,6.56c.82,.78,1.7,1.64,2.63,2.59l2.57,2.61c2.38,2.42,4.08,4.33,5.1,5.73,1.02,1.4,1.98,2.8,2.89,4.22s1.59,3.21,2.04,5.39,.53,4.36,.26,6.54c-.59,4.64-2.41,8.45-5.44,11.43-3.04,2.98-6.54,4.87-10.51,5.65-5.74,1.15-11.28,.09-16.61-3.19-1.69-1.05-3.25-2.3-4.67-3.75l-14.97-15.23c-.11-.11-.11-.22,0-.33l.59-.57c.11-.11,.22-.11,.33,0l.45,.46c2.49,2.54,4.54,3.01,6.16,1.42l22.9-22.51c.78-.77,1.07-1.65,.88-2.63-.19-.99-.66-1.86-1.4-2.61l-1.31-1.34c-.11-.11-.11-.22,0-.33l.58-.58Zm8.24,9.64c-.34-.35-.7-.34-1.08,.03l-25.55,25.12c-1.03,1.01-.62,2.51,1.25,4.49,.55,.58,1.13,1.19,1.75,1.82,4.37,4.44,9.05,6.71,14.04,6.8,4.99,.09,9.56-1.9,13.7-5.97,4.14-4.07,6.37-8.57,6.67-13.48,.3-4.91-1.43-9.29-5.19-13.12l-5.59-5.68Z"/><path class="c" d="M727.58,237.15l.71-.42c.13-.08,.24-.05,.32,.08l.33,.55c.47,.68,.93,1.38,1.37,2.11s.93,1.35,1.46,1.86c1.22,1.14,2.64,1.23,4.25,.27l26.55-15.77c1.66-.99,2.14-2.6,1.42-4.83-.21-.62-.45-1.25-.7-1.87l-.31-.53c-.08-.13-.05-.24,.08-.32l.6-.36c.13-.08,.24-.05,.32,.08l14.23,23.96c.18,.3,.25,.55,.23,.75s-.22,.43-.57,.68l-7.04,4.79c-.17,.1-.33,.02-.48-.23s-.18-.48-.1-.69c.11-.2,.64-.69,1.61-1.48,.96-.79,1.67-1.6,2.13-2.44,.46-.84,.46-1.84,.02-3.01l-6.24-10.5c-.13-.22-.3-.26-.52-.13l-13.02,7.73c-.17,.1-.2,.23-.1,.4l5.18,8.72c1.34,2.25,3.31,2.6,5.93,1.04,.13-.08,.24-.05,.32,.08l.36,.6c.08,.13,.05,.24-.08,.32l-10.78,6.4c-.13,.08-.24,.05-.32-.08l-.36-.6c-.08-.13-.05-.24,.08-.32,2.48-1.48,3.49-3.05,3.02-4.72-.14-.46-.34-.92-.61-1.37l-5.13-8.64c-.1-.17-.23-.2-.4-.1l-12.27,7.29c-1.26,.75-1.63,1.75-1.11,3.01,.15,.37,.33,.73,.55,1.1l4.98,8.39c1.03,1.73,2.59,2.62,4.69,2.67,1.5,.04,3-.28,4.5-.97,.5-.23,.89-.12,1.15,.34,.12,.2,.07,.37-.15,.5l-8.96,4.19c-.29,.04-.48,0-.56-.14l-16.67-28.06c-.08-.13-.05-.24,.08-.32Z"/><path class="c" d="M793.94,324.54c.81,2.49,2.43,3.34,4.86,2.55,.15-.05,.25,0,.29,.15l.22,.67c.05,.15,0,.25-.15,.29l-10.37,3.36c-.15,.05-.25,0-.3-.15l-.22-.67c-.05-.15,0-.25,.15-.3,1.71-.55,2.73-1.42,3.07-2.6,.18-.63,.12-1.44-.19-2.4l-3.56-10.98c-.14-.45-.47-.59-.97-.43l-14.33,4.64c-1.26,.41-1.95,1.47-2.07,3.18-.11,1.71-.11,2.76,.02,3.16,.13,.4,.12,.62-.03,.67l-.67,.22c-.15,.05-.25,0-.29-.15l-4.93-15.22c-.05-.15,0-.25,.15-.3l.67-.22c.15-.05,.27,.09,.38,.4,.1,.32,.41,.76,.92,1.33,.51,.57,1.15,1.02,1.9,1.34,.75,.32,1.54,.35,2.38,.08l30.1-9.74c1.21-.39,1.86-1.31,1.97-2.76,.08-.85,0-1.63-.24-2.35l-.04-.11c-.05-.15,0-.25,.15-.29l.67-.22c.15-.05,.25,0,.3,.15l8.51,26.28c.04,.23,.04,.42,0,.55-.03,.13-.17,.24-.43,.33l-6.75,2.18c-.22,.07-.37,.08-.45,.04-.08-.05-.14-.15-.2-.32l-.11-.33s.47-.33,1.4-.87c.92-.54,1.58-1.11,1.98-1.73,.57-1.03,.75-2.04,.53-3.03-.09-.4-.22-.88-.4-1.44l-3.42-10.56c-.12-.37-.37-.5-.74-.38l-12.9,4.18c-.43,.14-.57,.43-.42,.88l3.54,10.93Z"/><path class="c" d="M804.75,426.26c.02,.21-.13,.33-.43,.36-.3,.02-.52-.07-.65-.27-.25-.51-.48-1.04-.68-1.58-.2-.54-.44-1.04-.73-1.49-.67-1.03-1.65-1.49-2.96-1.39l-9.49,.72c-.43,.03-1.08-.95-1.96-2.95-.88-2-1.53-3.63-1.96-4.89-1.94-5.9-2.19-11.29-.76-16.16,1.67-5.59,5.1-9.72,10.31-12.39,2.6-1.33,5.23-2.1,7.89-2.31,2.66-.2,4.91-.11,6.76,.28,5.65,1.17,10.16,4.2,13.53,9.07,2.2,3.18,3.44,6.61,3.72,10.28s-.16,7.63-1.33,11.87c-.21,.78-.32,1.22-.31,1.32l.03,.35,.38,1.15,.06,.73c.02,.21-.08,.33-.3,.35l-9.73,.74c-.37,.03-.57-.17-.6-.6v-.12c0-.37,.48-.66,1.42-.87,.19-.05,.33-.09,.43-.12,5.95-2.41,8.68-6.75,8.2-13.03-.38-5.02-2.59-8.89-6.61-11.59-4.03-2.7-8.66-3.85-13.9-3.45-5.24,.4-9.75,2.26-13.55,5.57s-5.49,7.6-5.08,12.86c.21,2.71,.79,4.91,1.77,6.59,.38,.66,.84,1.15,1.38,1.48l8-.61c1.81-.14,3.1-.76,3.87-1.85,.77-1.1,1.05-3.03,.84-5.79-.02-.21,.16-.33,.52-.36,.36-.03,.55,.07,.56,.28l1.36,17.82Z"/><path class="c" d="M782.37,514.78c-2.59-.47-4.28,1.08-5.04,4.65-.03,.15-.12,.22-.27,.19l-.69-.12c-.15-.03-.22-.12-.19-.27l3.33-18.33c.03-.15,.12-.22,.27-.19l.69,.12c.15,.03,.14,.52-.03,1.48-.17,.96-.16,2.09,.04,3.4,.27,2,1.14,3.12,2.6,3.39l13.75,2.5c.19,.03,.32,.03,.39-.02s.12-.17,.15-.36l4.13-22.71c.04-.19,.03-.32-.02-.39s-.17-.12-.36-.15l-14.04-2.55c-2.31-.42-3.77,1.07-4.39,4.47-.03,.15-.12,.22-.27,.19l-.69-.13c-.15-.03-.22-.11-.19-.24l2.89-15.91c.03-.15,.12-.22,.27-.19l.69,.13c.15,.03,.2,.23,.13,.62-.58,3.21,.5,5.06,3.25,5.56l30.76,5.59c2.25,.41,3.68-.71,4.3-3.36,.09-.4,.22-.59,.37-.56l.55,.1c.15,.03,.22,.11,.19,.24l-2.63,14.47c-.03,.15-.12,.22-.27,.19l-.55-.1c-.12-.02-.14-.21-.07-.58,.5-2.75-.61-4.37-3.32-4.86l-13.32-2.42c-.19-.04-.32-.03-.39,.02-.07,.05-.12,.17-.15,.36l-4.13,22.71c-.03,.19-.03,.32,.02,.39,.05,.07,.17,.12,.36,.16l13.78,2.5c.18,0,.34,0,.49,.01,.15,.02,.38,.02,.7,.02,.68-.02,1.33-.6,1.97-1.76,.64-1.16,1.15-2.5,1.55-4.04,.03-.15,.12-.22,.27-.19l.55,.1c.15,.03,.22,.11,.19,.24l-3.02,16.63c-.03,.15-.12,.22-.27,.19l-.55-.1c-.12-.02-.14-.21-.07-.58,.52-2.84-.58-4.51-3.29-5l-30.41-5.52Z"/><path class="c" d="M792.8,582.76c2.16,.92,3.76,.14,4.82-2.34,.17-.4,.32-.56,.47-.5l.65,.28c.14,.06,.19,.16,.12,.31l-5.75,13.51c-.06,.14-.16,.18-.31,.12l-.65-.28c-.14-.06-.05-.49,.29-1.28,.34-.79,.39-1.63,.17-2.5-.22-.88-1.11-1.65-2.68-2.32l-28.77-12.24c-2.16-.92-3.77-.13-4.83,2.37-.16,.38-.31,.54-.46,.47l-.65-.28c-.14-.06-.18-.16-.12-.31l5.74-13.51c.06-.14,.16-.18,.31-.12l.65,.27c.14,.06,.05,.49-.29,1.28-.34,.79-.39,1.63-.17,2.5,.22,.88,1.11,1.65,2.68,2.32l28.77,12.23Z"/><path class="c" d="M757.62,655.36c-.13-.09,.02-.46,.46-1.13s.64-1.48,.61-2.44c-.04-.96-.75-1.9-2.16-2.82l-30.27-19.93c-3.64-2.4-6.34-5.66-8.11-9.79-1.24-2.85-1.59-5.63-1.06-8.35,.26-1.39,.78-2.67,1.55-3.84,.77-1.17,1.78-2.13,3.03-2.9s2.21-.93,2.86-.5,1.02,1.05,1.11,1.85c.09,.81-.05,1.49-.42,2.04s-.72,.97-1.07,1.26c-.35,.28-.7,.5-1.05,.66s-.69,.27-1.03,.34c-.34,.07-.77,.19-1.3,.37-.53,.18-1,.59-1.42,1.22-.83,1.26-.93,2.56-.31,3.92s1.58,2.58,2.91,3.68c1.32,1.1,3.07,2.37,5.26,3.81l33.03,21.75c1.65,1.08,3.2,.79,4.66-.9,.45-.54,.92-1.18,1.4-1.92,.09-.13,.19-.15,.33-.07l.59,.39c.13,.09,.15,.19,.07,.32l-8.75,13.29c-.09,.13-.19,.15-.33,.07l-.59-.39Z"/><path class="c" d="M682.98,682.59c-.11-.11-.11-.22,0-.33l12.29-12.07c.1-.1,.2-.09,.31,.02l.39,.4c.11,.11-.12,.46-.7,1.06-.58,.59-1.09,1.53-1.53,2.79s-.24,2.33,.61,3.2l22.38,22.78c1.55,1.57,3.79,1.08,6.75-1.49,.11-.11,.22-.11,.33,0l.39,.4c.11,.11,.12,.21,.02,.31l-12.29,12.07c-.11,.11-.22,.11-.33,0l-.39-.4c-.08-.08,.17-.41,.74-.98,.58-.57,1.05-1.36,1.42-2.38,.5-1.36,.24-2.55-.75-3.57l-9.05-9.22c-1.21-1.23-1.92-1.72-2.16-1.49-.6,.59-.99,1.71-1.16,3.38-.17,1.66-.22,3.25-.14,4.75s.31,3.17,.68,4.98c.37,1.81,.61,3.06,.73,3.74,.41,2.5,.97,4.13,1.71,4.87,.73,.75,1.54,.93,2.43,.55,.58-.24,1.26-.75,2.04-1.51l.21-.21c.11-.11,.22-.11,.33,0l.39,.4c.11,.11,.11,.22,0,.33l-12.08,11.87c-.11,.11-.22,.11-.33,0l-.39-.4c-.16-.17-.16-.33,0-.5,1.73-1.81,2.8-3.32,3.22-4.54,.42-1.22,.64-2.31,.65-3.29s-.17-2.24-.56-3.81c-1.19-4.78-1.78-8.94-1.79-12.49,0-1.51-.08-2.36-.23-2.57-.21-.07-1.33-.07-3.36,.01-5.08,.17-11.16-.39-18.21-1.7-2.67-.52-5.09-.09-7.24,1.28-1.46,.88-2.34,1.48-2.66,1.79-.31,.31-.53,.41-.63,.29l-.35-.36c-.11-.11-.11-.22,0-.33l13.67-13.42c.11-.11,.22-.11,.33,0l.39,.4c.11,.11-.05,.42-.49,.93-1.44,1.69-1.77,2.92-1.01,3.7,.86,.68,4.16,1.24,9.89,1.66,1.02,.06,2.12,.17,3.31,.32,4.68,.53,7.7,.12,9.06-1.22l.4-.39c.14-.14,.11-.3-.08-.5l-9.61-9.78c-1.92-1.95-4.21-1.61-6.89,1.01-.11,.11-.22,.11-.33,0l-.35-.35Z"/><path class="c" d="M629.22,726.96c.13-.08,.24-.05,.32,.08l.36,.6c.08,.13,.05,.24-.08,.32l-.6,.36c-1.44,.87-2.51,1.92-3.22,3.17-.28,.51-.41,1.12-.38,1.82,.03,.7,.25,1.37,.64,2.03l15.99,26.55c.62,1.04,1.77,1.43,3.44,1.17,1.18-.16,2.29-.56,3.35-1.2l.55-.33c.13-.08,.24-.05,.32,.08l.36,.6c.08,.13,.05,.24-.08,.32l-16.99,10.23c-.13,.08-.24,.05-.32-.08l-.36-.6c-.08-.13-.05-.24,.08-.32l1.08-.65c1.72-1.04,3.1-2.2,4.13-3.48,.3-.37,.42-.74,.34-1.11-.08-.38-.34-.94-.8-1.69l-16.76-27.83c-.21-.26-.52-.44-.94-.53s-.79-.03-1.13,.17l-9.91,5.97c-1.49,.9-2.42,2.66-2.8,5.28-.1,.7-.2,1.61-.3,2.73-.1,1.12-.19,1.77-.26,1.95-.29,.72-.57,.88-.82,.46-.06-.1-.1-.22-.11-.35l-.68-9.71c-.03-.39,.05-.65,.25-.77l25.32-15.25Z"/><path class="c" d="M547.26,768.61c-.11,.03-.19-.03-.24-.17l-.2-.67c-.04-.15-.01-.24,.1-.27l13.11-3.91c.15-.04,.25,0,.29,.16l.2,.67c.04,.15,0,.25-.16,.29-3.07,.91-4.34,2.73-3.82,5.45,.15,.79,.46,2.09,.9,3.9,.45,1.81,1.35,5.73,2.69,11.76,1.35,6.03,2.56,10.87,3.65,14.52l.31,1.04c.22,.75,.84,1.25,1.84,1.5,1,.25,1.7,.32,2.09,.2,.39-.12,.61-.1,.66,.05l.2,.67c.04,.15,0,.25-.16,.29l-8.11,2.42c-.37,.05-.72-.07-1.05-.36l-21.91-25.42c-.13-.1-.24-.19-.33-.27s-.24-.08-.46,0c-.22,.08-.34,.29-.36,.64l-4.45,32.69c-.17,.87-.41,1.35-.73,1.44l-8.17,2.43c-.15,.04-.25,0-.29-.16l-.2-.67c-.04-.15-.02-.24,.07-.27,.56-.17,1.2-.56,1.91-1.18,1.09-.94,1.47-1.96,1.14-3.06l-10.92-30.52c-.33-.96-1.07-1.6-2.22-1.91-1.15-.31-2.51-.23-4.09,.24-.15,.04-.25,0-.29-.16l-.2-.67c-.04-.15,0-.25,.16-.29l15.95-4.75c.15-.04,.25,0,.29,.16l.2,.67c.04,.15,0,.25-.16,.29-3.35,1-4.78,2.31-4.3,3.94l9.47,26.37c.08,.18,.15,.26,.24,.23,.08-.02,.13-.13,.14-.32l4.96-34.37c.04-.15,.23-.28,.59-.39,.36-.11,.58-.09,.68,.04l22.77,26.17c.19,.23,.34,.33,.44,.3,.1-.03,.09-.25-.03-.66-.26-.86-1.24-4.99-2.96-12.39-1.71-7.4-2.84-11.99-3.37-13.79l-.34-1.15c-.54-1-1.81-1.38-3.79-1.13-.57,.07-1.16,.19-1.75,.37Z"/><path class="c" d="M462.9,785.53c.16,0,.24,.07,.24,.23v.7c.02,.16-.08,.24-.28,.24h-.67c-1.07,.03-1.8,.14-2.19,.34-1.43,.73-2.12,2.67-2.07,5.84l.53,30.43c.02,1.31,1.31,2.07,3.85,2.28,.57,.05,.96,.07,1.19,.07s.34,.07,.34,.23v.7c.02,.16-.06,.24-.22,.24l-10.72,.19-28.34-30.24c-.1-.1-.17-.17-.21-.22-.04-.05-.1-.07-.19-.07s-.13,.09-.13,.27l.35,20.18c.07,3.89,.43,6.42,1.1,7.6,.67,1.18,1.97,1.75,3.93,1.72l1.49-.03c.16,0,.24,.07,.24,.23v.7c.02,.16-.06,.24-.22,.24l-15.23,.27c-.16,0-.24-.07-.24-.23v-.7c-.02-.16,.27-.24,.85-.25,.58-.01,1.52-.36,2.82-1.05,1.31-.69,1.95-1.52,1.93-2.5l-.63-35.83c0-.43,.05-.74,.16-.93,.11-.19,.39-.29,.83-.29,.44,0,.77,.08,.99,.25,.22,.17,.48,.42,.77,.75l30.79,32.95c.2,.19,.38,.29,.53,.28,.1,0,.14-.1,.14-.3l-.51-29.23c-.03-1.78-1.46-2.92-4.28-3.44-.78-.14-1.38-.21-1.79-.2s-.62-.07-.62-.22v-.7c-.02-.16,.06-.24,.22-.24l15.23-.27Z"/><path class="c" d="M340.56,773.92c2.09-.08,3.9,.08,5.41,.46,3.11,.78,5.94,2.03,8.51,3.75,3.51,2.38,6.09,5.23,7.75,8.57,2.11,4.26,2.49,9.08,1.13,14.45-.98,3.88-2.86,7.17-5.66,9.86-2.79,2.69-6.18,4.52-10.16,5.49s-7.99,.95-12.04-.07c-4.04-1.02-7.44-2.83-10.19-5.44-2.75-2.61-4.69-5.72-5.83-9.35-1.14-3.63-1.25-7.28-.32-10.94s2.76-6.91,5.5-9.73c2.75-2.82,6.04-4.84,9.89-6.04,1.9-.59,3.9-.92,5.99-1Zm16.61,26.63c.79-3.14,.88-6.44,.27-9.89-.61-3.45-1.97-6.47-4.07-9.08-2.1-2.6-4.86-4.34-8.27-5.2-4.85-1.22-9.09-.32-12.74,2.71-3.29,2.74-5.59,6.71-6.9,11.92-1.31,5.21-.95,10.07,1.1,14.6,1,2.2,2.41,4.13,4.24,5.77,1.83,1.64,3.82,2.73,5.97,3.27,2.15,.54,3.97,.75,5.46,.62,1.49-.13,2.9-.46,4.23-1,1.33-.54,2.56-1.27,3.7-2.2,1.14-.92,2.16-1.97,3.06-3.16,1.84-2.44,3.16-5.23,3.95-8.37Z"/><path class="c" d="M279.46,751.3c.14,.07,.11,.28-.07,.63l-.17,.31c-.07,.14-.2,.16-.37,.07-.17-.09-.45-.18-.84-.25-.39-.08-.68-.14-.87-.2-1.97-.55-3.38-.02-4.24,1.58l-14.62,27.26c-.85,1.58-1.1,2.75-.75,3.5,.35,.75,1.29,1.54,2.82,2.36l1.16,.62c.36,.19,.43,.5,.21,.91-.13,.24-.32,.33-.57,.26l-.18-.1-14.69-7.38-2.61-1.4c-2.97-1.86-4.94-4.34-5.91-7.46s-.7-6.08,.81-8.89c1.51-2.81,3.88-4.83,7.13-6.04,1.42-.54,2.85-.84,4.29-.87,1.44-.04,2.7,.22,3.77,.78l7.58,4.46,.21,.11c.26,.14,.45,.09,.58-.15l5.69-10.61c.51-.95,.62-1.78,.35-2.51-.28-.73-1.18-1.66-2.71-2.82-.21-.15-.54-.4-.99-.75-.46-.35-.77-.56-.94-.66-.17-.09-.22-.21-.15-.35l.33-.62c.07-.14,.18-.17,.32-.1l15.44,8.28Zm-30.37,29.41c.21,.1,.44,.21,.67,.33,.24,.12,.54,.27,.9,.45,.37,.19,.62,.14,.77-.13l8.93-16.65,.36-.8c.14-.39,.08-.67-.19-.83l-2.55-1.57c-2.77-1.49-5.5-1.75-8.2-.8-2.69,.95-4.79,2.83-6.3,5.65-1.51,2.81-1.86,5.44-1.04,7.87s2.59,4.38,5.32,5.85c.24,.13,.47,.25,.68,.35,.21,.1,.42,.2,.63,.31Z"/><path class="c" d="M198.15,695.69c2.1,2.27,3.68,4.77,4.72,7.49,1.04,2.72,1.59,5.36,1.65,7.91,.12,5.46-1.67,10.23-5.36,14.31-4.26,4.71-9.37,7.12-15.33,7.23-5.96,.11-11.35-2.01-16.15-6.36s-7.45-9.45-7.91-15.3c-.46-5.85,1.4-11.09,5.61-15.74,5.01-5.53,12.02-7.62,21.03-6.26,.21,.03,1.02,.25,2.43,.66,1.41,.41,2.14,.58,2.2,.51,.06-.06-.09-.81-.43-2.25-.35-1.43-.92-4.67-1.71-9.71-.48-3.02-1.12-5.06-1.91-6.14-.79-1.07-1.1-1.7-.93-1.89,.33-.36,.76-.38,1.3-.04,.54,.33,1.28,.92,2.23,1.78,1.64,1.48,2.96,3.66,3.98,6.52,1.41,5.46,2.19,9.31,2.36,11.54,.17,2.23,.64,3.83,1.42,4.8,.24,.29,.51,.6,.81,.93Zm-9.94,31.09c2.06-1.18,3.79-2.57,5.21-4.16,2.55-2.88,4.34-6,5.35-9.36,1.01-3.36,1.17-6.67,.47-9.93-.7-3.26-2.37-6.08-5.01-8.46-3.23-2.92-7.06-4.09-11.49-3.5s-8.5,2.93-12.21,7.03c-3.71,4.1-5.77,8.49-6.19,13.17-.45,5.18,1.31,9.79,5.28,13.82,3.5,3.17,7.6,4.39,12.3,3.66,2.14-.33,4.24-1.08,6.3-2.26Z"/><path class="c" d="M148.99,643.56c.09,.13-.03,.3-.36,.52l-.29,.19c-.13,.09-.24,.06-.32-.07-.06-.1-.18-.24-.36-.43-.17-.19-.35-.39-.53-.6-.18-.21-.36-.39-.53-.56-.17-.17-.29-.29-.36-.36-1.47-1.41-2.97-1.62-4.48-.62l-25.8,17.07c-1.4,.93-2.02,2.15-1.87,3.66,.08,.9,.38,1.74,.88,2.51l.61,.93c.09,.13,.06,.24-.07,.33l-.59,.39c-.13,.09-.26,.03-.39-.16l-9.24-13.17-1.63-2.47c-1.71-3.01-2.26-6.12-1.65-9.32,.61-3.2,2.3-5.72,5.08-7.56,2.78-1.84,5.71-2.11,8.78-.82,.95,.4,1.88,.9,2.81,1.48l7.2-15.4c1.27-2.69,1.61-5.4,1.04-8.14-.07-.21-.01-.38,.16-.5,.41-.27,.79-.14,1.14,.4,2.42,3.67,2.96,7.5,1.61,11.51-.31,.88-.69,1.81-1.14,2.79l-5.73,12.89,3.58,5.99,.13,.2c.16,.24,.36,.29,.58,.14l11.26-7.45c.9-.59,1.4-1.29,1.5-2.08s-.17-1.87-.83-3.21c-.17-.36-.36-.8-.58-1.33-.22-.53-.39-.88-.5-1.05-.11-.17-.1-.3,.03-.39l.59-.39c.13-.09,.24-.06,.32,.07l9.94,15.03Zm-41.09,10.77c.14,.19,.28,.39,.44,.61,.15,.21,.35,.49,.58,.83,.23,.34,.48,.42,.74,.25l14.81-9.79,.7-.53c.31-.28,.39-.55,.23-.82l-1.5-2.59c-3.03-4.58-6.48-6.26-10.37-5.05-1.23,.37-2.51,.99-3.83,1.86-2.57,1.7-4.07,3.85-4.49,6.43-.42,2.58,.19,5.12,1.84,7.62,.15,.23,.3,.44,.43,.63,.14,.19,.27,.38,.41,.57Z"/><path class="c" d="M60.96,563.23c-.07-.18,.1-.35,.5-.5l5.57-2.92c.34-.21,.56-.34,.66-.37,.1-.04,.2,.08,.31,.37,.11,.28,.14,.48,.09,.58-.05,.1-.14,.22-.29,.36s-.31,.3-.49,.48-.36,.37-.54,.56c-.7,.7-1.3,1.62-1.81,2.75-1.18,2.74-1.29,5.37-.34,7.89,.57,1.52,1.61,2.76,3.11,3.74,1.5,.98,2.92,1.21,4.26,.71s2.41-1.2,3.21-2.07c.8-.88,1.46-1.88,1.99-3.02,.53-1.14,.98-2.38,1.34-3.73,.37-1.35,.74-2.72,1.11-4.11,.93-3.67,1.88-6.39,2.87-8.16,1.5-2.76,3.61-4.75,6.33-5.96,3.11-1.17,6.04-.92,8.79,.76,2.76,1.68,4.73,4.11,5.93,7.27,.77,2.03,1.17,3.72,1.21,5.07,.04,1.35,.06,2.29,.05,2.82,0,.53,.02,.89,.1,1.1,.08,.21,.14,.34,.18,.39l.78,1.24c.09,.24-.05,.46-.41,.66-4.33,2.24-6.64,3.42-6.92,3.52-.28,.11-.48,.16-.6,.15-.12,0-.21-.11-.29-.31-.19-.51,.36-1.25,1.66-2.23,3.39-3.47,4.24-7.44,2.55-11.9-.77-2.05-2.06-3.56-3.85-4.54-1.79-.98-3.68-1.1-5.67-.34-3.18,1.2-5.42,4.22-6.72,9.06-.36,1.37-.84,3.33-1.44,5.87s-1.36,4.68-2.28,6.4c-1.41,2.68-3.41,4.52-6.02,5.5-2.6,.98-5.13,.75-7.57-.69-2.45-1.44-4.18-3.51-5.19-6.2-.52-1.39-.87-3.01-1.02-4.86-.16-1.85-.28-3.14-.36-3.86l-.77-1.46Z"/><path class="c" d="M83.66,491.13c-.15,.02-.24-.06-.27-.23l-.11-.81c-.26-1.9-.87-3.37-1.84-4.41-.97-1.04-1.99-1.49-3.08-1.34l-32.14,4.35c-.41,.05-.62,.17-.65,.34-.03,.17-.04,.38-.05,.61l1.51,11.15c.63,1.75,2.17,2.74,4.63,2.98,1.32,.14,2.16,.21,2.53,.22,.37,0,.56,.09,.58,.25l.07,.52c.02,.12-.02,.18-.09,.19l-.96,.13-9.2,.15c-.62-.04-.94-.19-.98-.46-.04-.27,.11-.59,.45-.95,.34-.36,.44-.98,.33-1.85l-4.24-31.3c-.11-.83-.28-1.32-.49-1.47-.22-.15-.43-.29-.63-.42-.2-.13-.32-.32-.36-.56-.03-.24,.04-.41,.23-.5,.18-.09,.38-.17,.59-.24l8.91-2.3,.96-.13c.08-.01,.12,.04,.14,.16l.07,.52c.02,.16-.11,.28-.39,.38-1.89,.57-3.37,1.22-4.42,1.96-1.05,.73-1.63,1.75-1.73,3.04l1.51,11.18c.07,.23,.14,.42,.21,.58,.07,.16,.31,.21,.72,.16l32.14-4.35c1.08-.15,1.95-.85,2.61-2.11,.66-1.26,.86-2.84,.6-4.74l-.11-.84c-.02-.15,.05-.24,.2-.26l.7-.09c.16-.02,.24,.05,.26,.2l2.7,19.95c.02,.16-.05,.24-.2,.26l-.7,.09Z"/><path class="c" d="M41.59,395.18c-.38,3.26,.74,5.04,3.34,5.34l20.84,2.4c3.84,.44,7.13-.47,9.85-2.73,2.73-2.26,4.32-5.38,4.78-9.36,.48-4.13-.24-7.65-2.16-10.56-1.92-2.9-4.84-4.58-8.78-5.04l-18.51-2.13c-1.84-.21-3.14-.19-3.9,.05-2.02,.61-3.19,2.38-3.53,5.31-.02,.16-.1,.22-.26,.21l-.7-.08c-.15-.02-.22-.1-.21-.26l1.65-14.32c.02-.16,.1-.22,.26-.21l.7,.08c.16,.02,.21,.24,.16,.67-.29,2.54,.52,4.21,2.43,5,.32,.14,.62,.22,.91,.25l19.06,2.2c8.52,.98,13.62,4.87,15.32,11.67,.58,2.29,.75,4.52,.5,6.69-.9,7.78-3.59,13.28-8.09,16.5-2.31,1.66-5.01,2.31-8.1,1.96l-23.28-2.68c-1.65-.19-2.85,.68-3.6,2.62-.22,.56-.36,1.05-.4,1.46-.05,.41-.15,.6-.3,.58l-.7-.08c-.15-.02-.23-.09-.21-.23l1.82-15.77c.02-.16,.1-.22,.26-.21l.7,.08c.16,.02,.21,.21,.17,.58Z"/><path class="c" d="M73.71,271.12c.15,.06,.19,.16,.13,.3l-.39,1.01c-.44,2.49,.8,4.92,3.72,7.3,.76,.63,1.49,1.26,2.19,1.88l24.86,21.92c.39,.34,.59,.65,.59,.92,0,.27-.08,.62-.24,1.04l-.5,1.28c-.17,.44-.48,.64-.93,.62l-40.46,.95c-1.66,.03-3.1,1.13-4.32,3.3-.07,.12-.12,.22-.15,.3s-.12,.1-.27,.04l-.66-.25c-.15-.06-.19-.16-.13-.3l6.22-16.13c.06-.15,.16-.19,.3-.13l.66,.25c.15,.06,.19,.16,.13,.3l-.16,.41c-.1,.48-.23,1.04-.39,1.67-.61,2.45-.13,3.97,1.44,4.57,.49,.19,1.07,.27,1.73,.23l29.2-.65c.43-.04,.5-.24,.19-.58l-22.08-19.44c-.32-.27-.72-.5-1.22-.69-.5-.19-1.06-.17-1.69,.07-.63,.24-1.06,.56-1.3,.96-.24,.4-.42,.72-.55,.95s-.33,.58-.6,1.04-.44,.77-.5,.94c-.06,.16-.17,.22-.31,.16l-.66-.25c-.15-.06-.19-.16-.13-.3l5.32-13.8c.06-.15,.16-.19,.3-.13l.66,.25Z"/><path class="c" d="M108.24,210.73c-1.41,1.87-1.39,3.35,.04,4.43,.27,.2,.58,.36,.96,.48,.37,.12,.75,.27,1.14,.43l28.34,7.24c.21,.04,.39-.03,.52-.2s.15-.38,.06-.62l-8.3-14.32-14.46-3.72c-.91-.25-2.46,.42-4.65,2-.64,.47-1.03,.79-1.17,.97s-.26,.22-.39,.13l-.56-.42c-.12-.09-.14-.2-.05-.33l16.11-21.46c.09-.12,.2-.14,.33-.05l.56,.42c.13,.09,.14,.2,.05,.33l-.65,.87c-1.13,1.5-1.25,3.19-.37,5.07,.3,.64,.68,1.35,1.14,2.14l4.86,8.41,18.94,4.84c.21,.04,.39-.03,.52-.2s.15-.38,.06-.62l-15.87-27.41c-.3-.52-.62-.9-.96-1.16-.69-.52-1.71,.12-3.05,1.92l-1.09,1.45c-.09,.12-.2,.14-.33,.05l-.56-.42c-.12-.09-.14-.2-.05-.33l7.83-10.43c.09-.12,.2-.14,.33-.05l.56,.42c.12,.09,.14,.2,.05,.33l-.83,1.1c-.52,.69-.67,1.39-.46,2.09,.21,.71,.81,1.94,1.8,3.68l19.24,33.27c.25,.45,.34,.81,.29,1.06s-.22,.56-.49,.92l-.83,1.1c-.28,.37-.64,.5-1.08,.36l-20.07-5.18,10.22,17.67c.25,.45,.34,.81,.29,1.06-.06,.25-.22,.56-.49,.92l-.83,1.1c-.28,.37-.64,.48-1.08,.32l-39.22-10.03c-.8-.21-1.91,.16-3.35,1.11-1.43,.95-2.27,1.58-2.49,1.88-.23,.3-.41,.41-.53,.32l-.56-.42c-.12-.09-.14-.2-.05-.33l10.03-13.35c.09-.12,.2-.14,.33-.05l.56,.42c.13,.09,.14,.2,.05,.33l-.32,.42Zm14.29-16.74c-.66-.49-1.52-.09-2.59,1.21-.94,1.42-1.05,2.56-.33,3.42,.17,.23,.39,.44,.64,.63,.26,.19,.57,.35,.95,.47,.37,.12,.75,.27,1.14,.43l4.69,1.21-3.61-6.27c-.3-.52-.59-.89-.89-1.11Z"/><path class="c" d="M208.52,156.5c.71,.93,2.03,.61,3.96-.98,.69-.57,1.13-.74,1.3-.51l.42,.56c.09,.12,.08,.23-.05,.33l-12.68,9.61c-.12,.09-.23,.08-.33-.05l-.42-.56c-.09-.12-.08-.23,.05-.33l.91-.69c1.87-1.81,2.83-4.78,2.88-8.91,.03-1.1,.08-2.14,.16-3.14v-15.26l-14.06-3.78c-.89-.23-1.77-.49-2.63-.76-3.15-.99-5.81-1.01-7.98-.05-.81,.22-1.75,.74-2.8,1.54-.12,.09-.23,.08-.33-.04l-.42-.56c-.09-.12-.08-.23,.05-.33l15.39-11.66c.12-.09,.23-.08,.33,.05l.42,.56c.09,.12-.24,.48-1,1.05s-1.34,1.11-1.73,1.6c-.63,.75-.7,1.45-.21,2.1,.2,.26,.59,.5,1.16,.7l13.02,3.7c.16,.02,.27,.04,.31,.06,.04,.02,.12-.02,.26-.12,.13-.1,.22-.45,.26-1.04l.18-12.86c.02-.58-.12-1.08-.42-1.48-.77-1.01-2.32-.63-4.65,1.14-.12,.09-.23,.08-.33-.04l-.44-.58c-.08-.11-.06-.21,.06-.3l12.54-9.5c.12-.09,.23-.08,.33,.05l.42,.56c.09,.12,.08,.23-.04,.33-2.49,1.89-3.88,5.2-4.17,9.92l-.07,14.94s.1,.03,.21,.08c.11,.05,.68,.23,1.7,.55,1.02,.32,4.64,1.36,10.86,3.13,6.22,1.77,9.66,2.68,10.34,2.73,1.83,.18,3.28,0,4.34-.53,.26-.05,.51-.16,.77-.32,.25-.17,.58-.38,.98-.65,.4-.27,.71-.25,.94,.05,.27,.36,.1,.77-.5,1.23l-12.87,9.75c-.12,.09-.23,.08-.33-.04l-.42-.56c-.12-.16,.06-.41,.52-.76,1.73-1.24,2.24-2.33,1.52-3.28-.18-.23-.48-.43-.9-.6l-16.45-4.63c-.24-.06-.43-.04-.57,.07-.14,.11-.21,.28-.22,.53v16.73c0,.46,.16,.89,.46,1.3Z"/><path class="c" d="M289.89,110.14c-.61,.26-.99,.21-1.15-.15l-.11-.27c-.12-.29,.07-.57,.58-.86,.5-.29,.83-.47,.99-.56,1.31-.72,2.13-1.46,2.46-2.23,.33-.77,.28-1.68-.17-2.74l-3.76-8.94c-.05-.13-.14-.25-.25-.37l-18.45-12.97c-2.89-2.03-5.26-2.89-7.13-2.6-.1,.02-.28,.05-.53,.1-.26,.04-.82,.17-1.68,.39-.31,.07-.54-.08-.69-.43s-.09-.58,.18-.7l15.45-6.49c.31-.13,.53-.01,.69,.35,.15,.36,.07,.6-.23,.73-1.15,.63-1.9,1.1-2.24,1.39-.76,.7-.97,1.47-.62,2.3,.18,.43,.45,.77,.81,1.02l15.26,10.75c.32,.21,.52,.34,.6,.4,.08,.06,.19,.06,.35,0,.15-.06,.28-.43,.39-1.08l2.08-15.46c.03-.52,.09-1.09,.16-1.7,.07-.61,0-1.18-.22-1.7-.55-1.31-1.78-1.71-3.68-1.19-.69,.18-1.08,.23-1.18,.15s-.18-.21-.25-.37c-.14-.32-.05-.55,.25-.68l12.61-5.3c.25-.11,.43-.03,.54,.22,.11,.25,.14,.44,.09,.56-.04,.12-.12,.24-.24,.34-.12,.1-.25,.2-.4,.3-.15,.1-.47,.32-.96,.67-1.13,.84-2.08,2.41-2.85,4.72-.08,.27-.12,.42-.12,.46l-2.95,22.85,4.23,10.07c.41,.97,1,1.62,1.79,1.95s1.86,.3,3.24-.08c1.38-.38,2.12-.44,2.23-.19l.12,.3c.15,.36-.08,.67-.69,.93l-14.56,6.12Z"/><path class="c" d="M360.63,86.92c-.35,.05-.57-.25-.67-.9s-.02-1.18,.23-1.58l21.7-39.16c.06-.11,.08-.24,.06-.38-.02-.15-.23-.19-.61-.13l-17.58,2.7c-1.6,.25-2.82,1-3.66,2.25-.29,.42-.48,.88-.57,1.38-.09,.5-.16,1.33-.21,2.51-.05,1.17-.1,1.81-.17,1.91-.06,.1-.24,.17-.52,.21-.28,.04-.47,.01-.56-.09l-.93-8.96c-.1-.66,.07-1.02,.51-1.09l31.45-4.83c.31-.05,.51,.24,.61,.86,.1,.62,.04,1.13-.15,1.53l-20.87,37.67c-.04,.11-.13,.29-.26,.54s-.18,.46-.16,.62c.08,.52,.56,.71,1.45,.58l20.42-3.13c.93-.14,1.8-.68,2.63-1.6,.83-.93,1.35-2.08,1.56-3.46,.21-1.38,.26-3,.13-4.88,.01-.3,.18-.47,.51-.52,.33-.05,.51,.04,.55,.27l.21,1.36,.77,9.07c.01,.22,.03,.42,.06,.61,.11,.73-.1,1.14-.64,1.23l-35.3,5.42Z"/></g></g></g></svg>