<?xml version="1.0" encoding="UTF-8"?><svg id="a" xmlns="http://www.w3.org/2000/svg" viewBox="0 0 866 866"><defs><style>.c{fill:#997f7e;}.d{fill:#f4d3a8;}</style></defs><g id="b"><g><circle class="d" cx="433" cy="433" r="322"/><g><path class="c" d="M443.67,182.02c0,.11-.07,.16-.18,.16l-10.63-.62c-.11,0-.16-.06-.16-.18l.03-.5c0-.11,.1-.16,.28-.15,1.9,.03,3.25-.91,4.02-2.81l9.91-24.07s.02-.06,.03-.1l-.19-.7c0-.07,.03-.1,.09-.1l4.16,.24s.06,.03,.11,.05,.08,.06,.11,.13l7.37,25.2c.17,.39,.31,.73,.41,1.05,.1,.31,.22,.6,.36,.86,.3,.59,.82,1.06,1.57,1.41,.62,.36,1.19,.55,1.72,.58,.11,0,.16,.07,.16,.2l-.03,.48c0,.11-.06,.16-.18,.16l-12.73-.74c-.11,0-.16-.06-.16-.18l.03-.5c0-.11,.27-.17,.78-.16s.94,0,1.27,0c1.94-.1,2.94-.69,3-1.79,0-.08,0-.18-.02-.29l-2.63-9.04s-.04-.09-.07-.19c-.14-.48-.42-.73-.83-.76l-7.38-.43c-.42-.02-.76,.19-1.02,.63-.05,.09-.07,.15-.07,.16l-3.65,8.95v.19c-.03,.36,.14,.7,.49,1.01,.81,.7,1.93,1.09,3.35,1.17l.54,.03c.11,0,.16,.07,.16,.18l-.03,.5Zm7.03-14.74c.25,.01,.38-.08,.39-.29,0-.11-.01-.24-.06-.38l-2.6-8.71c-.12-.38-.21-.58-.28-.58-.07,0-.19,.18-.37,.56l-3.4,8.34c-.06,.14-.1,.28-.11,.44,0,.16,.09,.25,.3,.26l6.13,.36Z"/><path class="c" d="M493.05,188.82c-.11-.03-.14-.1-.11-.21l.15-.48c.03-.11,.14-.13,.33-.07,.62,.19,1.33,.34,2.13,.43,2.56,.33,4.03-.13,4.41-1.39l6.43-21.02c.39-1.74-.11-2.9-1.48-3.48-.41-.18-.87-.35-1.39-.51l-1.13-.35c-.11-.03-.14-.1-.11-.21l.15-.5c.03-.11,.1-.14,.21-.11l.88,.25,3.43,1.03,7.16,1.95c7.6,2.32,10.71,5.73,9.33,10.22-.58,1.9-2.05,3.18-4.4,3.84-.37,.11-.67,.17-.92,.2-.25,.03-.39,.04-.42,.05,1.45,1.52,2.49,3.04,3.12,4.57,.63,1.53,.68,3.14,.16,4.84-1.11,3.62-3.59,5.62-7.46,6-1.99,.2-4.03-.01-6.1-.65l-14.38-4.4Zm14.83-12.45c-.17-.05-.28,0-.33,.14l-3.34,10.92c-.29,.94-.08,1.83,.63,2.68,.71,.84,1.57,1.42,2.6,1.73,1.97,.6,3.85,.41,5.66-.57,1.81-.98,3.03-2.49,3.66-4.54s.4-3.95-.68-5.71c-1.08-1.75-2.76-2.98-5.03-3.67l-3.17-.97Zm.19-1.71c-.08,.25,.04,.43,.34,.52l4.9,1.5c1.27,.39,2.49,.25,3.65-.43s1.92-1.6,2.27-2.77c.64-2.08,.51-3.78-.39-5.07s-2.33-2.25-4.29-2.85c-.61-.14-1.03-.25-1.26-.32-.23-.07-.47-.15-.72-.23s-.51-.14-.77-.18c-.26-.04-.46,0-.6,.1-.13,.1-.25,.31-.34,.61l-2.79,9.12Z"/><path class="c" d="M572.56,223.07c-.12,.06-.27,0-.47-.2-.2-.19-.46-.38-.76-.57s-.78-.39-1.42-.6c-.64-.21-1.65-.55-3.02-1.02s-2.56-.99-3.56-1.59c-2.26-1.36-4.13-3.21-5.62-5.55s-2.28-4.88-2.37-7.6,.63-5.38,2.18-7.96,3.59-4.54,6.13-5.87c3.7-1.96,7.7-2.27,12-.96,1.37,.42,2.65,.98,3.84,1.7,1.63,.98,3.4,2.42,5.31,4.31,.58,.57,1.05,1.09,1.41,1.55,.36,.46,.6,.72,.71,.79l.62,.18,.55,.33c.14,.09,.15,.23,.03,.43l-3.34,5.55c-.07,.12-.21,.11-.43-.01s-.32-.23-.33-.31c0-.08,0-.16,.01-.26,.01-.1,.02-.2,.03-.31,0-.11,.01-.21,.01-.31s0-.17,.02-.21c.37-4.66-1.26-8.08-4.89-10.26-3.27-1.97-6.46-2.46-9.56-1.49-3.1,.97-5.68,3.18-7.74,6.61-2.06,3.43-2.82,6.99-2.27,10.68,.55,3.68,2.57,6.57,6.05,8.67,1.9,1.14,3.98,1.62,6.22,1.43,2.24-.19,4.31-.84,6.19-1.94,.07-.06,.16-.05,.28,.02l.23,.14c.12,.07,.13,.18,.05,.32-.09,.14-.2,.26-.35,.35l-5.73,3.95Z"/><path class="c" d="M621.45,224.9c.08-.08,.16-.08,.24,0l.32,.33,4.79,4.67c.58,.55,1.21,1.17,1.87,1.84l1.83,1.86c1.69,1.72,2.9,3.08,3.62,4.08,.72,.99,1.41,1.99,2.06,3,.65,1.01,1.13,2.29,1.45,3.84,.32,1.55,.38,3.1,.19,4.65-.42,3.3-1.71,6-3.87,8.13-2.16,2.12-4.65,3.46-7.47,4.01-4.08,.82-8.02,.06-11.81-2.27-1.2-.75-2.31-1.64-3.32-2.67l-10.64-10.83c-.08-.08-.08-.16,0-.24l.42-.41c.08-.08,.16-.08,.24,0l.32,.33c1.77,1.8,3.23,2.14,4.38,1.01l16.29-16c.55-.54,.76-1.17,.63-1.87-.14-.7-.47-1.32-.99-1.86l-.93-.95c-.08-.08-.08-.16,0-.24l.42-.41Zm5.86,6.86c-.24-.25-.5-.24-.77,.02l-18.17,17.85c-.73,.72-.44,1.78,.89,3.19,.39,.42,.8,.85,1.24,1.29,3.1,3.16,6.43,4.77,9.98,4.84,3.55,.07,6.8-1.35,9.75-4.24s4.53-6.09,4.75-9.58c.22-3.49-1.01-6.6-3.69-9.33l-3.97-4.04Z"/><path class="c" d="M642.5,293.8l.5-.3c.09-.06,.17-.04,.23,.06l.23,.39c.33,.48,.66,.98,.98,1.5,.32,.52,.66,.96,1.04,1.32,.87,.81,1.88,.87,3.02,.19l18.88-11.21c1.18-.7,1.52-1.85,1.01-3.44-.15-.44-.32-.89-.5-1.33l-.22-.38c-.06-.1-.04-.17,.06-.23l.43-.26c.1-.06,.17-.04,.23,.06l10.11,17.04c.13,.21,.18,.39,.16,.53-.02,.14-.16,.3-.4,.48l-5,3.41c-.12,.07-.23,.02-.34-.16s-.13-.34-.07-.49c.08-.14,.46-.49,1.14-1.05,.68-.56,1.19-1.14,1.51-1.73,.33-.6,.33-1.31,.01-2.14l-4.43-7.47c-.09-.16-.22-.19-.37-.09l-9.26,5.5c-.12,.07-.14,.17-.07,.29l3.68,6.2c.95,1.6,2.36,1.85,4.22,.74,.09-.06,.17-.04,.23,.06l.25,.43c.06,.1,.04,.17-.06,.23l-7.67,4.55c-.1,.06-.17,.04-.23-.06l-.25-.43c-.06-.1-.04-.17,.06-.23,1.77-1.05,2.48-2.17,2.15-3.36-.1-.33-.24-.65-.43-.98l-3.65-6.14c-.07-.12-.17-.14-.29-.07l-8.72,5.18c-.9,.53-1.16,1.24-.79,2.14,.11,.26,.24,.52,.39,.78l3.54,5.97c.73,1.23,1.84,1.86,3.33,1.9,1.07,.03,2.13-.2,3.2-.69,.36-.16,.63-.08,.82,.24,.09,.14,.05,.26-.1,.35l-6.37,2.98c-.21,.03-.34,0-.4-.1l-11.84-19.96c-.06-.1-.04-.17,.06-.23Z"/><path class="c" d="M689.67,355.95c.57,1.77,1.72,2.38,3.46,1.82,.11-.03,.18,0,.21,.11l.15,.48c.03,.11,0,.18-.11,.21l-7.37,2.38c-.11,.03-.18,0-.21-.11l-.15-.48c-.03-.11,0-.18,.11-.21,1.21-.39,1.94-1.01,2.18-1.84,.13-.45,.09-1.02-.14-1.71l-2.53-7.81c-.1-.32-.33-.42-.69-.3l-10.19,3.29c-.9,.29-1.39,1.04-1.47,2.26-.08,1.22-.08,1.97,.02,2.25s.08,.44-.02,.48l-.48,.15c-.11,.03-.18,0-.21-.11l-3.5-10.82c-.03-.11,0-.18,.11-.21l.48-.15c.11-.03,.19,.06,.27,.29,.07,.22,.29,.54,.66,.95,.36,.41,.81,.73,1.35,.95,.53,.23,1.1,.25,1.69,.06l21.41-6.92c.86-.28,1.33-.93,1.4-1.96,.05-.6,0-1.16-.17-1.67l-.03-.08c-.03-.11,0-.18,.11-.21l.48-.15c.11-.03,.18,0,.21,.11l6.04,18.69c.02,.17,.03,.3,0,.39-.02,.09-.12,.17-.31,.23l-4.8,1.55c-.16,.05-.26,.06-.32,.03-.05-.03-.1-.11-.14-.23l-.08-.24s.34-.24,.99-.62c.66-.38,1.13-.79,1.41-1.23,.41-.73,.53-1.45,.38-2.16-.06-.29-.16-.63-.29-1.02l-2.43-7.51c-.08-.26-.26-.35-.52-.27l-9.18,2.97c-.3,.1-.4,.31-.3,.62l2.51,7.77Z"/><path class="c" d="M697.33,428.28c.01,.15-.09,.24-.3,.25-.21,.02-.37-.05-.46-.19-.18-.36-.34-.74-.48-1.12s-.31-.74-.52-1.06c-.47-.73-1.17-1.06-2.1-.99l-6.75,.51c-.31,.02-.77-.68-1.39-2.1-.62-1.42-1.09-2.58-1.39-3.48-1.38-4.2-1.56-8.03-.54-11.49,1.19-3.98,3.63-6.91,7.33-8.81,1.85-.95,3.72-1.49,5.61-1.64,1.89-.14,3.49-.08,4.81,.2,4.02,.84,7.23,2.99,9.62,6.45,1.57,2.26,2.45,4.7,2.65,7.31,.2,2.61-.12,5.42-.95,8.44-.15,.55-.23,.87-.22,.94l.02,.25,.27,.81,.04,.52c.01,.15-.06,.23-.21,.25l-6.92,.53c-.26,.02-.41-.12-.43-.43v-.08c0-.27,.34-.47,1.01-.62,.14-.04,.24-.07,.31-.09,4.23-1.71,6.17-4.8,5.83-9.26-.27-3.57-1.84-6.32-4.7-8.24-2.86-1.92-6.16-2.74-9.88-2.46-3.72,.28-6.94,1.6-9.63,3.96-2.7,2.36-3.9,5.41-3.62,9.14,.15,1.92,.57,3.49,1.26,4.69,.27,.47,.6,.82,.98,1.05l5.69-.43c1.29-.1,2.21-.54,2.75-1.32,.55-.78,.75-2.15,.6-4.12-.01-.15,.11-.24,.37-.26,.26-.02,.39,.05,.4,.2l.96,12.67Z"/><path class="c" d="M681.4,491.25c-1.84-.34-3.04,.77-3.59,3.31-.02,.11-.08,.15-.19,.13l-.49-.09c-.11-.02-.15-.08-.13-.19l2.37-13.04c.02-.11,.08-.15,.19-.13l.49,.09c.11,.02,.1,.37-.02,1.05-.12,.68-.12,1.49,.03,2.42,.19,1.42,.81,2.22,1.85,2.41l9.78,1.78c.14,.03,.23,.02,.28-.01,.05-.03,.09-.12,.11-.26l2.94-16.15c.02-.14,.02-.23-.01-.28-.03-.05-.12-.08-.26-.11l-9.98-1.82c-1.64-.3-2.68,.76-3.12,3.18-.02,.11-.08,.15-.19,.13l-.49-.09c-.11-.02-.16-.08-.14-.17l2.06-11.31c.02-.11,.08-.15,.19-.13l.49,.09c.11,.02,.14,.17,.09,.44-.42,2.28,.35,3.6,2.31,3.96l21.87,3.98c1.6,.29,2.62-.5,3.06-2.39,.07-.29,.15-.42,.26-.4l.39,.07c.11,.02,.16,.08,.14,.17l-1.87,10.29c-.02,.11-.08,.15-.19,.13l-.39-.07c-.08-.01-.1-.15-.05-.41,.36-1.95-.43-3.11-2.36-3.46l-9.47-1.72c-.14-.02-.23-.02-.28,.01-.05,.03-.08,.12-.11,.25l-2.94,16.15c-.03,.14-.02,.23,.01,.28,.03,.05,.12,.08,.25,.11l9.8,1.78c.13,0,.24,0,.35,0,.1,.01,.27,.02,.49,.02,.48-.01,.95-.43,1.4-1.25,.45-.82,.82-1.78,1.1-2.87,.02-.11,.08-.15,.19-.13l.39,.07c.11,.02,.16,.08,.14,.17l-2.15,11.83c-.02,.11-.08,.15-.19,.13l-.39-.07c-.08-.01-.1-.15-.05-.41,.37-2.02-.41-3.21-2.34-3.56l-21.62-3.94Z"/><path class="c" d="M688.79,539.58c1.53,.65,2.68,.1,3.43-1.67,.12-.28,.23-.4,.33-.36l.46,.2c.1,.04,.13,.12,.09,.22l-4.09,9.6c-.04,.1-.12,.13-.22,.09l-.46-.2c-.1-.04-.03-.35,.21-.91,.24-.56,.28-1.16,.12-1.78s-.79-1.17-1.9-1.65l-20.45-8.71c-1.53-.65-2.68-.09-3.43,1.68-.11,.27-.22,.38-.32,.34l-.46-.2c-.1-.04-.13-.12-.09-.22l4.09-9.6c.04-.1,.12-.13,.22-.09l.46,.2c.1,.04,.03,.35-.21,.91s-.28,1.16-.12,1.78,.79,1.17,1.9,1.65l20.45,8.71Z"/><path class="c" d="M663.75,591.22c-.09-.06,.02-.33,.33-.8s.46-1.05,.43-1.74c-.03-.68-.54-1.35-1.53-2.01l-21.51-14.18c-2.59-1.7-4.51-4.03-5.76-6.97-.88-2.03-1.13-4-.75-5.94,.19-.99,.55-1.9,1.1-2.73,.55-.83,1.27-1.52,2.16-2.06s1.57-.66,2.03-.36,.73,.75,.79,1.32c.06,.57-.04,1.06-.29,1.45-.26,.39-.51,.69-.76,.89-.25,.2-.5,.36-.75,.47-.25,.11-.49,.19-.73,.24-.24,.05-.55,.14-.92,.26-.37,.13-.71,.42-1.01,.87-.59,.89-.66,1.82-.23,2.78s1.13,1.84,2.06,2.62c.94,.78,2.18,1.69,3.74,2.71l23.48,15.48c1.17,.77,2.28,.56,3.31-.64,.32-.39,.65-.84,1-1.36,.06-.09,.14-.11,.23-.05l.42,.28c.09,.06,.11,.14,.05,.23l-6.23,9.44c-.06,.09-.14,.11-.23,.05l-.42-.28Z"/><path class="c" d="M610.67,610.55c-.08-.08-.08-.16,0-.24l8.74-8.58c.07-.07,.14-.06,.22,.02l.28,.28c.08,.08-.09,.33-.5,.75-.41,.42-.77,1.08-1.09,1.99-.31,.9-.17,1.66,.43,2.27l15.9,16.21c1.1,1.12,2.7,.77,4.8-1.06,.08-.08,.16-.08,.24,0l.28,.28c.08,.08,.08,.15,.01,.22l-8.74,8.58c-.08,.08-.16,.08-.24,0l-.28-.28c-.06-.06,.12-.29,.53-.69,.41-.4,.75-.97,1.01-1.69,.35-.97,.17-1.82-.54-2.54l-6.43-6.56c-.86-.87-1.37-1.23-1.54-1.06-.43,.42-.7,1.22-.83,2.4s-.16,2.31-.1,3.38,.22,2.25,.48,3.54,.44,2.17,.52,2.66c.29,1.78,.69,2.94,1.21,3.47s1.1,.66,1.73,.39c.41-.17,.9-.53,1.45-1.08l.15-.15c.08-.08,.16-.08,.24,0l.28,.28c.08,.08,.08,.16,0,.24l-8.59,8.43c-.08,.08-.16,.08-.24,0l-.28-.28c-.12-.12-.12-.24,0-.35,1.23-1.29,1.99-2.36,2.29-3.23s.45-1.65,.46-2.34-.12-1.59-.39-2.71c-.84-3.4-1.26-6.36-1.27-8.88,0-1.07-.05-1.68-.16-1.83-.15-.05-.94-.05-2.39,0-3.62,.12-7.93-.28-12.95-1.21-1.9-.37-3.62-.07-5.15,.91-1.04,.63-1.67,1.05-1.89,1.27-.22,.22-.37,.29-.45,.21l-.25-.25c-.08-.08-.08-.16,0-.24l9.72-9.54c.08-.08,.16-.08,.24,0l.28,.28c.08,.08-.04,.3-.34,.66-1.02,1.2-1.26,2.08-.72,2.63,.61,.49,2.96,.88,7.03,1.19,.73,.05,1.51,.12,2.35,.23,3.33,.38,5.47,.09,6.45-.87l.28-.28c.1-.1,.08-.22-.06-.35l-6.83-6.96c-1.36-1.39-2.99-1.15-4.9,.72-.08,.08-.16,.08-.24,0l-.25-.25Z"/><path class="c" d="M572.4,642.1c.09-.06,.17-.04,.23,.06l.26,.43c.06,.09,.04,.17-.06,.23l-.43,.26c-1.02,.62-1.79,1.37-2.29,2.25-.2,.37-.29,.79-.27,1.29s.17,.98,.45,1.44l11.36,18.89c.44,.74,1.26,1.02,2.45,.84,.84-.12,1.63-.4,2.38-.85l.39-.24c.1-.06,.17-.04,.23,.06l.26,.43c.06,.09,.04,.17-.06,.23l-12.08,7.27c-.09,.06-.17,.04-.23-.06l-.26-.43c-.06-.09-.04-.17,.06-.23l.77-.46c1.23-.74,2.21-1.56,2.94-2.47,.22-.26,.3-.52,.24-.79-.05-.27-.24-.67-.57-1.2l-11.91-19.8c-.15-.19-.37-.31-.67-.38-.3-.06-.57-.02-.8,.12l-7.05,4.24c-1.06,.64-1.72,1.89-2,3.75-.07,.5-.15,1.15-.22,1.94-.07,.8-.13,1.26-.19,1.39-.21,.51-.4,.62-.58,.33-.04-.07-.07-.15-.08-.25l-.48-6.91c-.02-.28,.04-.46,.18-.55l18.01-10.83Z"/><path class="c" d="M514.11,671.68c-.08,.02-.14-.02-.17-.12l-.14-.48c-.03-.11,0-.17,.07-.2l9.33-2.77c.11-.03,.17,0,.21,.11l.14,.48c.03,.11,0,.18-.11,.21-2.18,.65-3.09,1.94-2.72,3.87,.11,.56,.32,1.49,.64,2.78,.32,1.29,.96,4.08,1.91,8.36s1.82,7.73,2.59,10.32l.22,.74c.16,.53,.59,.89,1.31,1.07,.71,.18,1.21,.23,1.49,.14s.44-.07,.47,.04l.14,.48c.03,.11,0,.18-.11,.21l-5.77,1.71c-.26,.04-.51-.05-.75-.25l-15.57-18.08c-.09-.07-.17-.14-.23-.19s-.17-.06-.33,0c-.16,.05-.24,.21-.26,.46l-3.18,23.24c-.12,.62-.29,.96-.52,1.02l-5.81,1.73c-.11,.03-.17,0-.21-.11l-.14-.48c-.03-.11-.01-.17,.05-.19,.4-.12,.85-.4,1.36-.84,.77-.67,1.04-1.39,.81-2.17l-7.75-21.71c-.23-.68-.76-1.14-1.58-1.36-.82-.22-1.79-.16-2.91,.17-.11,.03-.18,0-.21-.11l-.14-.48c-.03-.11,0-.18,.11-.21l11.34-3.37c.11-.03,.18,0,.21,.11l.14,.48c.03,.11,0,.17-.11,.21-2.38,.71-3.4,1.64-3.06,2.8l6.72,18.75c.05,.13,.11,.18,.17,.17,.06-.02,.09-.09,.1-.22l3.54-24.44c.03-.11,.17-.2,.42-.28s.42-.07,.49,.03l16.18,18.62c.14,.16,.24,.23,.31,.21,.07-.02,.07-.18-.02-.47-.18-.61-.88-3.55-2.1-8.81-1.22-5.26-2.01-8.53-2.39-9.81l-.24-.82c-.39-.71-1.28-.98-2.7-.81-.41,.05-.82,.13-1.25,.26Z"/><path class="c" d="M454.11,683.68c.11,0,.17,.05,.17,.16v.5c.01,.11-.06,.17-.2,.17h-.48c-.76,.02-1.28,.1-1.56,.24-1.02,.52-1.51,1.9-1.47,4.15l.37,21.64c.02,.93,.93,1.47,2.74,1.62,.4,.04,.68,.05,.84,.05,.16,0,.24,.05,.24,.16v.5c0,.11-.04,.17-.16,.17l-7.62,.13-20.14-21.51c-.07-.07-.12-.12-.15-.15-.03-.03-.07-.05-.14-.05s-.09,.06-.09,.19l.24,14.35c.05,2.76,.31,4.56,.78,5.4,.47,.84,1.4,1.25,2.79,1.22l1.06-.02c.11,0,.17,.05,.17,.16v.5c.01,.11-.04,.17-.16,.17l-10.83,.18c-.11,0-.17-.05-.17-.16v-.5c-.01-.11,.19-.17,.6-.18s1.08-.25,2.01-.74c.93-.49,1.39-1.08,1.38-1.77l-.43-25.47c0-.31,.03-.52,.11-.66,.08-.13,.28-.2,.59-.21,.31,0,.55,.05,.7,.18,.15,.12,.34,.3,.55,.53l21.88,23.44c.14,.14,.27,.2,.38,.2,.07,0,.1-.07,.1-.21l-.35-20.79c-.02-1.26-1.04-2.08-3.04-2.45-.56-.1-.98-.15-1.27-.14-.29,0-.44-.05-.44-.16v-.5c-.01-.11,.04-.17,.16-.17l10.83-.18Z"/><path class="c" d="M367.11,675.37c1.49-.05,2.77,.06,3.85,.33,2.21,.56,4.23,1.45,6.05,2.67,2.5,1.69,4.33,3.72,5.51,6.1,1.5,3.03,1.76,6.46,.8,10.28-.7,2.76-2.04,5.1-4.03,7.01-1.99,1.91-4.4,3.21-7.23,3.9s-5.68,.67-8.56-.06-5.29-2.02-7.24-3.87c-1.95-1.85-3.33-4.07-4.14-6.65-.81-2.58-.88-5.18-.23-7.78,.66-2.61,1.96-4.91,3.92-6.92,1.95-2.01,4.3-3.44,7.04-4.29,1.35-.42,2.77-.65,4.26-.71Zm11.8,18.95c.56-2.24,.63-4.58,.2-7.03-.43-2.45-1.4-4.6-2.89-6.46-1.49-1.85-3.45-3.08-5.88-3.7-3.45-.87-6.47-.23-9.06,1.92-2.34,1.94-3.98,4.77-4.91,8.47-.94,3.7-.68,7.16,.77,10.38,.71,1.57,1.71,2.94,3.01,4.1s2.72,1.94,4.25,2.33c1.53,.39,2.82,.53,3.88,.44,1.06-.09,2.06-.33,3.01-.71,.94-.39,1.82-.91,2.63-1.56,.81-.66,1.54-1.4,2.18-2.24,1.31-1.73,2.25-3.71,2.81-5.95Z"/><path class="c" d="M323.66,659.24c.1,.05,.08,.2-.05,.45l-.12,.22c-.05,.1-.14,.11-.26,.05-.12-.07-.32-.13-.6-.18s-.48-.1-.62-.14c-1.4-.39-2.4-.01-3.02,1.12l-10.41,19.38c-.6,1.12-.78,1.96-.53,2.49,.25,.54,.92,1.1,2.01,1.68l.83,.44c.26,.14,.31,.35,.15,.65-.09,.17-.23,.23-.41,.18l-.13-.07-10.44-5.26-1.85-1c-2.11-1.32-3.51-3.09-4.2-5.31-.69-2.21-.49-4.32,.58-6.32,1.07-2,2.76-3.43,5.07-4.29,1.01-.39,2.03-.59,3.05-.62,1.02-.03,1.92,.16,2.68,.55l5.39,3.18,.15,.08c.18,.1,.32,.06,.41-.11l4.05-7.54c.36-.67,.44-1.27,.25-1.78-.2-.52-.84-1.18-1.93-2-.15-.11-.38-.29-.71-.53-.33-.25-.55-.4-.67-.47-.12-.07-.16-.15-.1-.25l.24-.44c.05-.1,.13-.12,.23-.07l10.97,5.9Zm-21.61,20.9c.15,.07,.31,.15,.48,.23,.17,.08,.38,.19,.64,.32s.44,.1,.55-.1l6.36-11.84,.26-.57c.1-.28,.06-.47-.13-.59l-1.81-1.12c-1.97-1.06-3.91-1.25-5.83-.58-1.92,.67-3.41,2.01-4.48,4.01-1.07,2-1.32,3.87-.75,5.59s1.84,3.12,3.78,4.16c.17,.09,.33,.17,.48,.25,.15,.07,.3,.15,.45,.22Z"/><path class="c" d="M265.86,619.65c1.5,1.62,2.61,3.39,3.35,5.33,.74,1.93,1.13,3.81,1.17,5.63,.08,3.88-1.19,7.27-3.82,10.17-3.03,3.34-6.67,5.05-10.9,5.13s-8.07-1.43-11.48-4.53c-3.42-3.1-5.29-6.72-5.62-10.88-.33-4.16,1.01-7.89,4-11.19,3.56-3.93,8.55-5.41,14.96-4.44,.15,.02,.72,.18,1.73,.47s1.52,.41,1.57,.37c.04-.05-.06-.58-.31-1.6-.25-1.02-.65-3.32-1.21-6.9-.34-2.15-.79-3.6-1.36-4.37-.56-.76-.78-1.21-.66-1.35,.23-.26,.54-.27,.93-.03,.39,.24,.91,.66,1.58,1.26,1.16,1.05,2.1,2.6,2.82,4.64,1,3.88,1.55,6.62,1.67,8.21,.12,1.59,.45,2.73,1.01,3.42,.17,.21,.36,.43,.58,.67Zm-7.08,22.1c1.46-.84,2.7-1.82,3.7-2.96,1.82-2.05,3.09-4.26,3.81-6.65,.72-2.39,.84-4.74,.34-7.06-.5-2.32-1.68-4.32-3.56-6.02-2.29-2.08-5.02-2.91-8.17-2.5-3.15,.42-6.04,2.08-8.68,4.99-2.64,2.91-4.11,6.03-4.41,9.36-.32,3.68,.93,6.96,3.74,9.83,2.49,2.26,5.4,3.13,8.74,2.61,1.52-.23,3.01-.77,4.48-1.61Z"/><path class="c" d="M230.95,582.57c.06,.09-.02,.22-.26,.37l-.21,.14c-.09,.06-.17,.05-.23-.05-.05-.07-.13-.17-.25-.31-.12-.14-.25-.28-.38-.42-.13-.15-.26-.28-.38-.4-.12-.12-.21-.2-.26-.25-1.05-1.01-2.11-1.15-3.19-.44l-18.36,12.12c-1,.66-1.44,1.53-1.33,2.6,.06,.64,.27,1.24,.63,1.78l.44,.66c.06,.09,.05,.17-.05,.23l-.42,.28c-.09,.06-.19,.02-.28-.12l-6.56-9.37-1.16-1.76c-1.22-2.14-1.6-4.35-1.17-6.63,.44-2.28,1.64-4.07,3.62-5.37,1.98-1.3,4.06-1.5,6.25-.58,.67,.29,1.34,.64,1.99,1.05l5.13-10.95c.9-1.91,1.15-3.84,.75-5.79-.05-.15-.01-.27,.12-.35,.29-.19,.56-.1,.81,.29,1.72,2.61,2.1,5.34,1.14,8.19-.22,.63-.49,1.29-.81,1.98l-4.08,9.16,2.54,4.26,.09,.14c.11,.17,.25,.21,.42,.1l8.01-5.29c.64-.42,.99-.91,1.07-1.48,.08-.57-.12-1.33-.58-2.28-.12-.25-.26-.57-.42-.95-.16-.38-.28-.63-.36-.75-.08-.12-.07-.21,.02-.27l.42-.28c.09-.06,.17-.05,.23,.05l7.06,10.69Zm-29.22,7.64c.1,.14,.2,.28,.31,.43,.11,.15,.25,.35,.41,.59,.17,.24,.34,.3,.53,.18l10.53-6.96,.5-.38c.22-.2,.28-.39,.16-.58l-1.07-1.84c-2.15-3.26-4.61-4.46-7.37-3.6-.88,.26-1.78,.7-2.72,1.32-1.83,1.21-2.9,2.73-3.2,4.57-.3,1.84,.13,3.64,1.31,5.42,.11,.16,.21,.31,.31,.45,.1,.13,.2,.27,.29,.41Z"/><path class="c" d="M168.38,525.37c-.05-.13,.07-.25,.36-.36l3.96-2.07c.24-.15,.4-.24,.47-.26,.07-.03,.15,.06,.22,.26,.08,.2,.1,.34,.07,.41s-.1,.16-.2,.25c-.1,.1-.22,.21-.35,.34-.13,.13-.26,.26-.38,.4-.49,.5-.92,1.15-1.29,1.96-.84,1.95-.92,3.82-.24,5.61,.41,1.08,1.14,1.97,2.21,2.66s2.07,.87,3.03,.5c.96-.36,1.72-.85,2.28-1.47s1.04-1.34,1.42-2.15,.7-1.7,.96-2.65,.52-1.93,.79-2.92c.66-2.61,1.34-4.54,2.04-5.8,1.07-1.96,2.57-3.37,4.5-4.24,2.21-.83,4.29-.65,6.25,.55,1.96,1.2,3.36,2.92,4.21,5.17,.54,1.44,.83,2.64,.86,3.61,.03,.96,.04,1.63,.03,2,0,.37,.02,.64,.07,.79s.1,.24,.13,.28l.56,.88c.06,.17-.03,.32-.29,.47-3.08,1.59-4.72,2.43-4.92,2.5-.2,.08-.34,.11-.43,.11-.08,0-.15-.08-.21-.22-.14-.36,.26-.89,1.18-1.58,2.41-2.47,3.02-5.29,1.82-8.46-.55-1.46-1.46-2.53-2.73-3.23-1.27-.7-2.62-.78-4.03-.25-2.26,.85-3.86,3-4.79,6.44-.26,.97-.6,2.36-1.03,4.17s-.97,3.33-1.62,4.55c-1,1.91-2.43,3.21-4.28,3.91s-3.65,.53-5.39-.5c-1.74-1.03-2.97-2.5-3.69-4.41-.37-.99-.61-2.14-.72-3.46s-.2-2.23-.25-2.74l-.55-1.04Z"/><path class="c" d="M184.56,474.09c-.11,.02-.17-.04-.19-.16l-.08-.58c-.18-1.35-.62-2.39-1.3-3.14-.69-.74-1.42-1.06-2.19-.96l-22.85,3.07c-.29,.04-.44,.12-.46,.24-.02,.12-.03,.27-.04,.44l1.07,7.93c.45,1.24,1.54,1.95,3.29,2.12,.94,.1,1.54,.15,1.8,.16,.26,0,.4,.07,.41,.18l.05,.37c.01,.08-.01,.13-.07,.13l-.68,.09-6.54,.1c-.44-.03-.67-.13-.7-.33s.08-.42,.32-.67c.24-.26,.32-.69,.23-1.31l-2.99-22.26c-.08-.59-.2-.94-.35-1.05s-.3-.2-.45-.3c-.15-.09-.23-.22-.25-.4-.02-.17,.03-.29,.16-.36,.13-.07,.27-.12,.42-.17l6.34-1.63,.68-.09c.06,0,.09,.03,.1,.11l.05,.37c.01,.11-.08,.2-.28,.27-1.35,.41-2.4,.87-3.14,1.39-.75,.52-1.16,1.24-1.23,2.16l1.07,7.95c.05,.16,.1,.3,.15,.41,.05,.11,.22,.15,.51,.11l22.85-3.07c.77-.1,1.39-.6,1.86-1.5,.47-.9,.61-2.02,.43-3.37l-.08-.6c-.01-.11,.03-.17,.14-.19l.5-.07c.11-.01,.17,.03,.19,.14l1.91,14.18c.02,.11-.03,.17-.14,.19l-.5,.07Z"/><path class="c" d="M154.71,405.84c-.27,2.32,.52,3.58,2.37,3.8l14.82,1.72c2.73,.32,5.07-.33,7.01-1.93,1.94-1.61,3.08-3.82,3.4-6.65,.34-2.94-.17-5.44-1.53-7.51-1.36-2.07-3.44-3.26-6.24-3.59l-13.16-1.53c-1.31-.15-2.23-.14-2.77,.03-1.43,.43-2.27,1.69-2.51,3.78-.01,.11-.07,.16-.19,.15l-.5-.06c-.11-.01-.16-.07-.15-.18l1.18-10.18c.01-.11,.07-.16,.18-.15l.5,.06c.11,.01,.15,.17,.11,.47-.21,1.81,.37,2.99,1.73,3.56,.23,.1,.44,.16,.65,.18l13.55,1.58c6.06,.7,9.68,3.47,10.88,8.31,.41,1.63,.53,3.21,.35,4.76-.64,5.53-2.57,9.44-5.77,11.72-1.65,1.18-3.57,1.64-5.76,1.39l-16.55-1.92c-1.17-.14-2.03,.48-2.56,1.86-.16,.4-.25,.75-.29,1.04s-.11,.43-.22,.42l-.5-.06c-.11-.01-.16-.07-.15-.16l1.3-11.21c.01-.11,.07-.16,.18-.15l.5,.06c.11,.01,.15,.15,.12,.41Z"/><path class="c" d="M177.64,317.65c.1,.04,.14,.11,.1,.22l-.28,.72c-.31,1.77,.57,3.5,2.64,5.2,.54,.45,1.06,.89,1.56,1.34l17.66,15.61c.28,.24,.42,.46,.42,.65,0,.19-.06,.44-.17,.74l-.35,.91c-.12,.31-.34,.46-.66,.44l-28.77,.65c-1.18,.02-2.21,.8-3.07,2.34-.05,.09-.08,.16-.11,.22-.02,.06-.09,.07-.19,.03l-.47-.18c-.1-.04-.14-.11-.1-.22l4.43-11.46c.04-.1,.11-.14,.22-.1l.47,.18c.1,.04,.14,.11,.1,.22l-.11,.29c-.07,.34-.17,.74-.28,1.19-.43,1.74-.09,2.82,1.02,3.25,.35,.13,.76,.19,1.23,.16l20.76-.44c.31-.03,.36-.17,.14-.42l-15.69-13.84c-.22-.19-.51-.35-.87-.49-.36-.14-.76-.12-1.2,.05-.45,.17-.75,.4-.92,.68-.17,.28-.3,.51-.39,.67-.09,.16-.24,.41-.43,.74-.19,.33-.31,.55-.36,.67-.04,.12-.12,.15-.22,.11l-.47-.18c-.1-.04-.14-.11-.1-.22l3.79-9.81c.04-.1,.11-.14,.22-.1l.47,.18Z"/><path class="c" d="M202.25,274.72c-1,1.33-.99,2.38,.03,3.15,.19,.14,.42,.26,.68,.34s.54,.19,.81,.31l20.14,5.17c.15,.03,.27-.02,.37-.14s.11-.27,.04-.44l-5.89-10.19-10.28-2.65c-.65-.18-1.75,.3-3.31,1.42-.46,.33-.74,.56-.83,.69-.1,.13-.19,.16-.28,.09l-.4-.3c-.09-.07-.1-.14-.03-.23l11.47-15.25c.07-.09,.15-.1,.23-.03l.4,.3c.09,.07,.1,.15,.03,.23l-.46,.62c-.8,1.07-.89,2.27-.26,3.61,.21,.46,.48,.96,.81,1.52l3.45,5.98,13.46,3.45c.15,.03,.27-.02,.37-.14s.11-.27,.04-.44l-11.27-19.5c-.21-.37-.44-.64-.68-.83-.49-.37-1.21,.09-2.17,1.36l-.78,1.03c-.07,.09-.14,.1-.23,.03l-.4-.3c-.09-.07-.1-.14-.03-.23l5.57-7.41c.07-.09,.15-.1,.23-.03l.4,.3c.09,.07,.1,.14,.03,.23l-.59,.78c-.37,.49-.48,.98-.33,1.49,.15,.5,.58,1.38,1.28,2.62l13.65,23.67c.17,.32,.24,.57,.2,.75-.04,.18-.15,.4-.35,.65l-.59,.78c-.2,.27-.46,.35-.77,.26l-14.27-3.7,7.25,12.57c.17,.32,.24,.57,.2,.75s-.15,.4-.35,.65l-.59,.78c-.2,.27-.46,.34-.77,.23l-27.88-7.16c-.57-.15-1.36,.12-2.38,.79-1.02,.68-1.61,1.12-1.77,1.34s-.29,.29-.38,.22l-.4-.3c-.09-.07-.1-.15-.03-.23l7.14-9.49c.07-.09,.14-.1,.23-.03l.4,.3c.09,.07,.1,.14,.03,.23l-.23,.3Zm10.18-11.9c-.47-.35-1.08-.07-1.84,.86-.67,1.01-.75,1.82-.24,2.43,.12,.16,.27,.31,.46,.45s.41,.25,.67,.34,.54,.19,.81,.31l3.34,.87-2.56-4.46c-.21-.37-.42-.63-.63-.79Z"/><path class="c" d="M273.63,236.2c.5,.67,1.44,.43,2.82-.69,.49-.41,.8-.53,.93-.36l.3,.4c.07,.09,.06,.17-.03,.23l-9.02,6.82c-.09,.07-.17,.06-.23-.03l-.3-.4c-.07-.09-.06-.17,.03-.23l.65-.49c1.33-1.28,2.01-3.39,2.06-6.33,.02-.78,.06-1.52,.12-2.23l.02-10.85-10.01-2.7c-.63-.17-1.26-.35-1.87-.54-2.24-.71-4.13-.72-5.67-.04-.58,.16-1.24,.52-2,1.09-.09,.07-.17,.06-.23-.03l-.3-.4c-.07-.09-.06-.17,.03-.23l10.95-8.28c.09-.07,.17-.06,.23,.03l.3,.4c.07,.09-.17,.34-.71,.75s-.95,.79-1.23,1.14c-.45,.53-.5,1.03-.15,1.5,.14,.19,.42,.36,.82,.5l9.25,2.64c.12,.02,.19,.03,.22,.04,.03,.01,.09-.01,.18-.09s.16-.32,.18-.74l.14-9.14c.02-.41-.08-.76-.3-1.05-.54-.72-1.65-.45-3.31,.8-.09,.07-.17,.06-.23-.03l-.31-.42c-.06-.08-.04-.15,.04-.22l8.92-6.75c.09-.07,.17-.06,.23,.03l.3,.4c.07,.09,.06,.17-.03,.23-1.77,1.34-2.76,3.69-2.97,7.05l-.06,10.62s.07,.02,.15,.06c.08,.04,.48,.17,1.21,.39,.73,.23,3.3,.97,7.72,2.23,4.42,1.26,6.87,1.91,7.35,1.95,1.3,.13,2.33,0,3.09-.37,.18-.03,.36-.11,.54-.23s.41-.27,.7-.46c.28-.19,.51-.18,.66,.03,.19,.25,.07,.55-.36,.87l-9.16,6.92c-.09,.07-.17,.06-.23-.03l-.3-.4c-.08-.11,.04-.29,.37-.54,1.23-.88,1.59-1.66,1.08-2.33-.13-.17-.34-.31-.64-.43l-11.69-3.31c-.17-.04-.31-.03-.41,.05-.1,.08-.15,.2-.16,.38l-.02,11.9c0,.33,.12,.64,.33,.92Z"/><path class="c" d="M331.53,203.3c-.44,.18-.71,.15-.81-.11l-.08-.19c-.09-.2,.05-.41,.41-.61,.36-.2,.59-.34,.7-.4,.93-.51,1.52-1.04,1.75-1.58,.24-.54,.2-1.19-.12-1.95l-2.66-6.36c-.04-.09-.1-.18-.18-.26l-13.11-9.24c-2.05-1.44-3.74-2.06-5.07-1.85-.07,.01-.2,.04-.38,.07-.18,.03-.58,.12-1.19,.27-.22,.05-.38-.05-.49-.3-.1-.25-.06-.42,.13-.5l10.99-4.6c.22-.09,.38,0,.49,.25s.05,.43-.17,.52c-.82,.45-1.35,.78-1.6,.99-.54,.5-.69,1.04-.45,1.63,.13,.31,.32,.55,.58,.73l10.84,7.65c.23,.15,.37,.24,.42,.29,.06,.04,.14,.04,.25,0,.11-.05,.2-.3,.28-.77l1.49-10.99c.02-.37,.06-.78,.11-1.21,.05-.44,0-.84-.16-1.21-.39-.94-1.26-1.22-2.61-.85-.49,.13-.77,.16-.84,.1-.07-.06-.13-.15-.18-.26-.1-.23-.04-.39,.18-.48l8.97-3.76c.18-.08,.31-.02,.38,.16,.08,.18,.1,.31,.07,.4-.03,.09-.09,.17-.17,.24-.08,.07-.18,.14-.28,.21-.11,.07-.33,.23-.68,.48-.81,.59-1.48,1.71-2.03,3.36-.06,.19-.09,.3-.09,.33l-2.12,16.24,3,7.17c.29,.69,.71,1.15,1.27,1.39,.56,.23,1.33,.22,2.3-.05,.98-.27,1.51-.31,1.58-.13l.09,.21c.11,.26-.06,.48-.49,.66l-10.36,4.34Z"/><path class="c" d="M381.84,186.86c-.25,.04-.41-.18-.48-.64-.07-.47-.02-.84,.17-1.12l15.47-27.83c.04-.08,.06-.17,.04-.27s-.16-.13-.44-.09l-12.5,1.9c-1.14,.17-2.01,.71-2.6,1.6-.21,.3-.34,.62-.41,.98s-.12,.95-.15,1.78c-.03,.83-.08,1.29-.12,1.36-.05,.07-.17,.12-.37,.15-.2,.03-.33,0-.4-.07l-.65-6.37c-.07-.47,.05-.72,.37-.77l22.37-3.4c.22-.03,.36,.17,.43,.61,.07,.44,.03,.8-.11,1.09l-14.87,26.77c-.03,.08-.09,.2-.18,.39-.09,.18-.13,.33-.11,.44,.06,.37,.4,.51,1.03,.41l14.52-2.21c.66-.1,1.28-.48,1.87-1.14,.59-.66,.96-1.48,1.11-2.46,.15-.98,.18-2.14,.09-3.47,0-.21,.13-.34,.36-.37,.23-.04,.36,.03,.39,.19l.15,.97,.54,6.45c0,.15,.02,.3,.05,.44,.08,.52-.07,.81-.46,.87l-25.1,3.82Z"/></g></g></g></svg>