<?xml version="1.0" standalone="no"?>
<!DOCTYPE svg PUBLIC "-//W3C//DTD SVG 20010904//EN"
 "http://www.w3.org/TR/2001/REC-SVG-20010904/DTD/svg10.dtd">
<svg version="1.0" xmlns="http://www.w3.org/2000/svg"
 width="996.000000pt" height="996.000000pt" viewBox="0 0 996.000000 996.000000"
 preserveAspectRatio="xMidYMid meet">
<metadata>
Created by potrace 1.14, written by Peter Selinger 2001-2017
</metadata>
<g transform="translate(0.000000,996.000000) scale(0.100000,-0.100000)"
fill="#000000" stroke="none">
<path d="M5378 9955 c-2 -1 -46 -5 -98 -9 -92 -6 -190 -14 -254 -21 -17 -2
-60 -6 -96 -10 -36 -4 -68 -9 -71 -11 -3 -2 -33 -6 -65 -10 -32 -3 -62 -8 -65
-9 -3 -2 -28 -7 -55 -11 -27 -3 -52 -8 -55 -10 -3 -2 -19 -5 -35 -8 -75 -13
-91 -16 -121 -25 -18 -5 -33 -8 -33 -6 0 3 -11 0 -26 -5 -14 -6 -37 -12 -52
-15 -73 -13 -370 -103 -389 -118 -7 -5 -13 -7 -13 -3 0 3 -17 -1 -37 -10 -21
-9 -42 -17 -48 -18 -28 -5 -211 -82 -217 -91 -4 -5 -8 -7 -8 -3 0 14 -328
-143 -467 -223 -47 -27 -87 -49 -89 -49 -3 0 -25 -13 -49 -30 -24 -16 -46 -30
-49 -30 -12 0 -328 -219 -383 -265 -7 -5 -18 -14 -25 -20 -34 -26 -114 -91
-134 -110 -13 -11 -45 -38 -71 -60 -64 -54 -316 -307 -378 -380 -27 -33 -67
-77 -87 -99 -21 -23 -38 -44 -38 -48 0 -3 -6 -13 -13 -20 -28 -28 -157 -198
-157 -207 0 -5 -3 -11 -8 -13 -9 -4 -132 -184 -132 -194 0 -4 -8 -17 -19 -28
-25 -28 -191 -324 -191 -341 0 -7 -4 -15 -9 -17 -9 -3 -181 -366 -181 -383 0
-3 -10 -27 -21 -53 -12 -25 -22 -51 -24 -57 -1 -5 -8 -23 -14 -40 -26 -62
-120 -355 -146 -456 -15 -57 -29 -111 -32 -119 -3 -8 -7 -24 -9 -35 -1 -11
-10 -54 -19 -95 -18 -81 -19 -85 -40 -205 -25 -139 -35 -205 -51 -360 -3 -27
-7 -66 -9 -85 -20 -190 -27 -751 -12 -960 4 -58 9 -132 12 -165 2 -33 6 -69 8
-80 3 -11 8 -51 12 -90 4 -38 9 -79 11 -90 6 -30 16 -97 20 -135 4 -36 27
-157 35 -182 2 -8 18 -90 24 -123 1 -11 13 -58 25 -105 12 -47 23 -92 25 -100
2 -8 16 -53 30 -100 14 -47 30 -98 35 -115 31 -113 188 -518 202 -523 4 -2 8
-10 8 -18 0 -22 210 -440 229 -454 3 -3 13 -18 21 -35 37 -76 244 -385 262
-393 5 -2 8 -10 8 -18 0 -8 5 -14 10 -14 6 0 10 -4 10 -10 0 -5 9 -20 19 -32
11 -13 58 -70 106 -128 142 -172 223 -258 410 -437 22 -21 67 -60 100 -88 32
-27 66 -57 75 -65 9 -8 31 -26 50 -40 18 -14 38 -30 44 -35 6 -6 45 -35 86
-65 41 -30 77 -58 78 -62 2 -5 9 -8 16 -8 7 0 21 -9 31 -20 10 -11 24 -20 32
-20 7 0 13 -4 13 -8 0 -5 10 -14 23 -21 12 -6 34 -19 49 -29 68 -44 226 -138
254 -152 17 -8 38 -21 48 -29 9 -7 16 -10 16 -6 0 4 6 3 13 -3 24 -20 206
-110 211 -104 4 3 6 -1 6 -8 0 -7 3 -10 7 -7 3 4 11 3 17 -2 12 -9 190 -88
216 -96 3 -1 21 -8 41 -17 19 -9 107 -39 195 -68 87 -29 166 -55 174 -58 8 -3
18 -6 23 -7 4 -2 8 -3 10 -5 2 -2 33 -9 62 -15 11 -2 50 -13 88 -24 37 -11 67
-17 67 -14 0 3 7 0 15 -7 8 -7 15 -10 15 -7 0 4 33 -2 105 -20 37 -9 155 -32
193 -38 21 -3 49 -8 62 -11 14 -3 39 -6 55 -8 17 -2 53 -6 80 -10 28 -4 64 -9
80 -12 49 -6 117 -14 162 -18 22 -2 46 -6 51 -10 6 -3 13 -2 17 4 4 6 11 7 17
4 41 -26 795 -25 982 1 31 4 79 10 167 20 26 3 57 8 70 10 13 3 41 7 64 10 53
7 81 13 230 44 124 27 132 29 155 36 10 3 29 8 42 11 25 6 24 5 88 23 77 22
264 82 295 96 17 7 41 16 55 20 14 4 39 13 55 20 17 8 68 29 115 48 116 48
298 135 305 147 3 6 15 10 26 10 10 0 19 4 19 8 0 5 16 16 35 25 19 9 54 29
77 44 24 15 46 26 51 25 4 -1 7 2 7 7 0 5 9 13 20 16 11 3 26 12 32 18 7 7 40
30 73 51 33 22 72 49 86 60 14 12 40 32 59 46 45 34 152 119 170 136 8 7 32
29 53 49 21 19 40 35 42 35 1 0 54 51 117 113 162 160 331 351 454 515 l43 57
-22 18 c-12 9 -56 43 -97 74 -41 31 -77 60 -80 63 -3 3 -21 17 -40 30 -19 13
-37 27 -40 30 -3 3 -30 23 -60 45 -30 22 -66 50 -80 62 -14 13 -28 23 -31 23
-3 0 -22 13 -40 30 -19 16 -42 32 -51 36 -10 3 -18 9 -18 14 0 5 -16 18 -35
30 -20 12 -41 27 -48 34 -30 29 -79 58 -86 50 -4 -5 -37 -49 -72 -99 -124
-174 -340 -412 -475 -522 -91 -74 -153 -122 -209 -163 -33 -24 -61 -47 -63
-52 -2 -4 -8 -8 -14 -8 -6 0 -25 -10 -42 -23 -98 -74 -485 -287 -521 -287 -8
0 -15 -4 -15 -10 0 -5 -8 -10 -18 -10 -10 0 -22 -4 -27 -9 -6 -5 -35 -18 -65
-29 -30 -11 -68 -26 -85 -33 -16 -7 -33 -13 -37 -14 -5 -2 -9 -3 -10 -5 -2 -1
-10 -3 -18 -5 -8 -2 -37 -11 -64 -20 -26 -9 -56 -18 -65 -20 -9 -2 -37 -11
-64 -20 -26 -8 -61 -17 -77 -18 -16 -1 -30 -5 -30 -8 0 -5 -111 -30 -150 -34
-8 -1 -24 -4 -35 -8 -18 -5 -63 -13 -125 -22 -14 -2 -43 -7 -65 -10 -151 -22
-270 -29 -470 -28 -213 1 -445 13 -542 28 -18 3 -50 7 -70 10 -21 3 -83 13
-138 22 -55 8 -109 17 -120 18 -11 2 -20 4 -20 5 0 1 -7 3 -15 5 -75 14 -178
38 -190 42 -18 7 -39 13 -60 17 -8 1 -22 5 -30 8 -8 3 -76 25 -150 48 -121 39
-184 63 -315 118 -83 35 -363 177 -421 214 -34 21 -66 38 -72 38 -6 0 -12 3
-14 8 -4 10 -86 62 -98 62 -5 0 -10 3 -10 8 0 4 -25 23 -55 42 -30 19 -55 38
-55 43 0 4 -5 7 -11 7 -9 0 -92 61 -109 81 -3 3 -15 12 -27 20 -79 54 -276
240 -426 403 -151 163 -292 356 -437 596 -53 88 -203 373 -205 390 -1 3 -11
28 -24 55 -33 72 -126 320 -147 390 -10 33 -23 63 -29 67 -5 4 -7 8 -3 8 4 0
2 15 -3 33 -14 43 -78 290 -83 319 -3 13 -5 23 -6 23 -1 0 -3 12 -5 28 -2 15
-9 53 -16 85 -6 31 -13 66 -15 77 -7 52 -24 164 -30 200 -3 22 -8 58 -10 80
-2 22 -6 69 -9 105 -3 36 -7 95 -9 131 -1 36 -5 70 -7 75 -12 23 1 609 15 739
2 17 7 59 11 95 4 36 9 76 10 90 3 39 22 155 25 155 1 0 3 16 5 35 2 19 6 46
9 60 3 14 9 41 12 60 4 19 9 44 11 55 3 11 6 27 7 35 1 8 5 24 9 35 3 11 9 32
12 48 10 55 15 73 35 142 11 39 23 80 25 92 9 38 106 314 142 403 76 189 252
539 275 548 4 2 8 8 8 13 0 8 38 72 98 164 29 43 190 263 207 281 5 6 35 39
65 74 102 119 210 230 329 340 49 45 144 123 198 162 34 25 59 48 56 52 -4 3
1 6 10 6 8 0 23 8 33 17 10 10 25 22 34 28 27 16 144 93 155 103 50 42 403
226 550 287 50 20 99 41 110 46 23 10 215 80 230 83 6 1 37 10 70 20 33 10 67
20 75 22 8 2 69 16 135 33 66 16 136 32 155 35 19 3 58 10 87 15 29 6 74 13
100 16 26 4 59 8 73 11 58 9 115 16 168 19 31 2 57 4 57 5 0 1 47 4 105 7 215
12 582 6 680 -12 14 -2 49 -7 79 -10 52 -7 67 -9 121 -20 14 -2 41 -7 60 -10
19 -3 42 -8 50 -10 8 -2 26 -6 40 -9 69 -14 84 -17 92 -22 5 -3 21 -7 36 -10
58 -10 293 -88 422 -141 147 -59 373 -169 378 -184 2 -5 8 -9 13 -9 8 0 98
-53 124 -72 6 -4 48 -36 95 -70 47 -34 90 -67 96 -73 6 -5 40 -35 75 -65 56
-49 200 -190 194 -190 -1 0 18 -21 43 -47 41 -44 188 -235 226 -295 15 -23 19
-25 34 -13 9 8 51 42 92 77 42 35 98 81 124 103 68 55 257 212 281 233 11 9
47 40 80 67 33 28 67 56 75 63 8 7 25 20 37 30 l21 18 -38 44 c-21 25 -69 81
-106 125 -82 97 -305 321 -394 396 -35 30 -71 60 -78 67 -8 7 -30 25 -50 40
-21 15 -39 29 -42 32 -15 17 -252 180 -307 211 -18 11 -50 29 -70 41 -21 11
-62 34 -91 49 -29 16 -59 32 -65 36 -7 4 -14 8 -17 9 -3 0 -36 15 -75 33 -62
30 -110 51 -125 56 -3 1 -14 5 -25 10 -69 28 -135 53 -248 91 -70 23 -130 43
-132 44 -3 0 -10 3 -17 5 -20 7 -131 37 -148 39 -8 2 -35 9 -60 16 -25 7 -52
14 -60 15 -8 1 -46 10 -85 18 -38 9 -85 19 -102 22 -41 6 -91 15 -123 21 -22
4 -126 19 -205 29 -16 2 -59 7 -95 10 -36 3 -83 8 -105 11 -45 5 -692 14 -697
9z"/>
</g>
</svg>
